G04 #@! TF.GenerationSoftware,KiCad,Pcbnew,8.0.5-8.0.5-0~ubuntu22.04.1*
G04 #@! TF.CreationDate,2024-09-12T15:59:49+02:00*
G04 #@! TF.ProjectId,carte_principale,63617274-655f-4707-9269-6e636970616c,03A*
G04 #@! TF.SameCoordinates,Original*
G04 #@! TF.FileFunction,Legend,Top*
G04 #@! TF.FilePolarity,Positive*
%FSLAX46Y46*%
G04 Gerber Fmt 4.6, Leading zero omitted, Abs format (unit mm)*
G04 Created by KiCad (PCBNEW 8.0.5-8.0.5-0~ubuntu22.04.1) date 2024-09-12 15:59:49*
%MOMM*%
%LPD*%
G01*
G04 APERTURE LIST*
%ADD10C,0.300000*%
%ADD11C,0.150000*%
%ADD12C,0.120000*%
%ADD13C,0.010000*%
G04 APERTURE END LIST*
D10*
X95917144Y-67123328D02*
X96417144Y-68623328D01*
X96417144Y-68623328D02*
X96917144Y-67123328D01*
X98845715Y-67123328D02*
X98988572Y-67123328D01*
X98988572Y-67123328D02*
X99131429Y-67194757D01*
X99131429Y-67194757D02*
X99202858Y-67266185D01*
X99202858Y-67266185D02*
X99274286Y-67409042D01*
X99274286Y-67409042D02*
X99345715Y-67694757D01*
X99345715Y-67694757D02*
X99345715Y-68051900D01*
X99345715Y-68051900D02*
X99274286Y-68337614D01*
X99274286Y-68337614D02*
X99202858Y-68480471D01*
X99202858Y-68480471D02*
X99131429Y-68551900D01*
X99131429Y-68551900D02*
X98988572Y-68623328D01*
X98988572Y-68623328D02*
X98845715Y-68623328D01*
X98845715Y-68623328D02*
X98702858Y-68551900D01*
X98702858Y-68551900D02*
X98631429Y-68480471D01*
X98631429Y-68480471D02*
X98560000Y-68337614D01*
X98560000Y-68337614D02*
X98488572Y-68051900D01*
X98488572Y-68051900D02*
X98488572Y-67694757D01*
X98488572Y-67694757D02*
X98560000Y-67409042D01*
X98560000Y-67409042D02*
X98631429Y-67266185D01*
X98631429Y-67266185D02*
X98702858Y-67194757D01*
X98702858Y-67194757D02*
X98845715Y-67123328D01*
X99845714Y-67123328D02*
X100774286Y-67123328D01*
X100774286Y-67123328D02*
X100274286Y-67694757D01*
X100274286Y-67694757D02*
X100488571Y-67694757D01*
X100488571Y-67694757D02*
X100631429Y-67766185D01*
X100631429Y-67766185D02*
X100702857Y-67837614D01*
X100702857Y-67837614D02*
X100774286Y-67980471D01*
X100774286Y-67980471D02*
X100774286Y-68337614D01*
X100774286Y-68337614D02*
X100702857Y-68480471D01*
X100702857Y-68480471D02*
X100631429Y-68551900D01*
X100631429Y-68551900D02*
X100488571Y-68623328D01*
X100488571Y-68623328D02*
X100060000Y-68623328D01*
X100060000Y-68623328D02*
X99917143Y-68551900D01*
X99917143Y-68551900D02*
X99845714Y-68480471D01*
X101345714Y-68194757D02*
X102060000Y-68194757D01*
X101202857Y-68623328D02*
X101702857Y-67123328D01*
X101702857Y-67123328D02*
X102202857Y-68623328D01*
X136092857Y-106706900D02*
X136307143Y-106778328D01*
X136307143Y-106778328D02*
X136664285Y-106778328D01*
X136664285Y-106778328D02*
X136807143Y-106706900D01*
X136807143Y-106706900D02*
X136878571Y-106635471D01*
X136878571Y-106635471D02*
X136950000Y-106492614D01*
X136950000Y-106492614D02*
X136950000Y-106349757D01*
X136950000Y-106349757D02*
X136878571Y-106206900D01*
X136878571Y-106206900D02*
X136807143Y-106135471D01*
X136807143Y-106135471D02*
X136664285Y-106064042D01*
X136664285Y-106064042D02*
X136378571Y-105992614D01*
X136378571Y-105992614D02*
X136235714Y-105921185D01*
X136235714Y-105921185D02*
X136164285Y-105849757D01*
X136164285Y-105849757D02*
X136092857Y-105706900D01*
X136092857Y-105706900D02*
X136092857Y-105564042D01*
X136092857Y-105564042D02*
X136164285Y-105421185D01*
X136164285Y-105421185D02*
X136235714Y-105349757D01*
X136235714Y-105349757D02*
X136378571Y-105278328D01*
X136378571Y-105278328D02*
X136735714Y-105278328D01*
X136735714Y-105278328D02*
X136950000Y-105349757D01*
X137378571Y-105278328D02*
X138235714Y-105278328D01*
X137807142Y-106778328D02*
X137807142Y-105278328D01*
X138735713Y-106778328D02*
X138735713Y-105278328D01*
X138735713Y-105278328D02*
X139307142Y-105278328D01*
X139307142Y-105278328D02*
X139449999Y-105349757D01*
X139449999Y-105349757D02*
X139521428Y-105421185D01*
X139521428Y-105421185D02*
X139592856Y-105564042D01*
X139592856Y-105564042D02*
X139592856Y-105778328D01*
X139592856Y-105778328D02*
X139521428Y-105921185D01*
X139521428Y-105921185D02*
X139449999Y-105992614D01*
X139449999Y-105992614D02*
X139307142Y-106064042D01*
X139307142Y-106064042D02*
X138735713Y-106064042D01*
X140235713Y-106778328D02*
X140235713Y-105278328D01*
D11*
X117652319Y-107441904D02*
X118461842Y-107441904D01*
X118461842Y-107441904D02*
X118557080Y-107394285D01*
X118557080Y-107394285D02*
X118604700Y-107346666D01*
X118604700Y-107346666D02*
X118652319Y-107251428D01*
X118652319Y-107251428D02*
X118652319Y-107060952D01*
X118652319Y-107060952D02*
X118604700Y-106965714D01*
X118604700Y-106965714D02*
X118557080Y-106918095D01*
X118557080Y-106918095D02*
X118461842Y-106870476D01*
X118461842Y-106870476D02*
X117652319Y-106870476D01*
X117747557Y-106441904D02*
X117699938Y-106394285D01*
X117699938Y-106394285D02*
X117652319Y-106299047D01*
X117652319Y-106299047D02*
X117652319Y-106060952D01*
X117652319Y-106060952D02*
X117699938Y-105965714D01*
X117699938Y-105965714D02*
X117747557Y-105918095D01*
X117747557Y-105918095D02*
X117842795Y-105870476D01*
X117842795Y-105870476D02*
X117938033Y-105870476D01*
X117938033Y-105870476D02*
X118080890Y-105918095D01*
X118080890Y-105918095D02*
X118652319Y-106489523D01*
X118652319Y-106489523D02*
X118652319Y-105870476D01*
X118564819Y-103671666D02*
X118088628Y-104004999D01*
X118564819Y-104243094D02*
X117564819Y-104243094D01*
X117564819Y-104243094D02*
X117564819Y-103862142D01*
X117564819Y-103862142D02*
X117612438Y-103766904D01*
X117612438Y-103766904D02*
X117660057Y-103719285D01*
X117660057Y-103719285D02*
X117755295Y-103671666D01*
X117755295Y-103671666D02*
X117898152Y-103671666D01*
X117898152Y-103671666D02*
X117993390Y-103719285D01*
X117993390Y-103719285D02*
X118041009Y-103766904D01*
X118041009Y-103766904D02*
X118088628Y-103862142D01*
X118088628Y-103862142D02*
X118088628Y-104243094D01*
X118564819Y-102719285D02*
X118564819Y-103290713D01*
X118564819Y-103004999D02*
X117564819Y-103004999D01*
X117564819Y-103004999D02*
X117707676Y-103100237D01*
X117707676Y-103100237D02*
X117802914Y-103195475D01*
X117802914Y-103195475D02*
X117850533Y-103290713D01*
X116024819Y-103671666D02*
X115548628Y-104004999D01*
X116024819Y-104243094D02*
X115024819Y-104243094D01*
X115024819Y-104243094D02*
X115024819Y-103862142D01*
X115024819Y-103862142D02*
X115072438Y-103766904D01*
X115072438Y-103766904D02*
X115120057Y-103719285D01*
X115120057Y-103719285D02*
X115215295Y-103671666D01*
X115215295Y-103671666D02*
X115358152Y-103671666D01*
X115358152Y-103671666D02*
X115453390Y-103719285D01*
X115453390Y-103719285D02*
X115501009Y-103766904D01*
X115501009Y-103766904D02*
X115548628Y-103862142D01*
X115548628Y-103862142D02*
X115548628Y-104243094D01*
X115120057Y-103290713D02*
X115072438Y-103243094D01*
X115072438Y-103243094D02*
X115024819Y-103147856D01*
X115024819Y-103147856D02*
X115024819Y-102909761D01*
X115024819Y-102909761D02*
X115072438Y-102814523D01*
X115072438Y-102814523D02*
X115120057Y-102766904D01*
X115120057Y-102766904D02*
X115215295Y-102719285D01*
X115215295Y-102719285D02*
X115310533Y-102719285D01*
X115310533Y-102719285D02*
X115453390Y-102766904D01*
X115453390Y-102766904D02*
X116024819Y-103338332D01*
X116024819Y-103338332D02*
X116024819Y-102719285D01*
X107039580Y-73191666D02*
X107087200Y-73239285D01*
X107087200Y-73239285D02*
X107134819Y-73382142D01*
X107134819Y-73382142D02*
X107134819Y-73477380D01*
X107134819Y-73477380D02*
X107087200Y-73620237D01*
X107087200Y-73620237D02*
X106991961Y-73715475D01*
X106991961Y-73715475D02*
X106896723Y-73763094D01*
X106896723Y-73763094D02*
X106706247Y-73810713D01*
X106706247Y-73810713D02*
X106563390Y-73810713D01*
X106563390Y-73810713D02*
X106372914Y-73763094D01*
X106372914Y-73763094D02*
X106277676Y-73715475D01*
X106277676Y-73715475D02*
X106182438Y-73620237D01*
X106182438Y-73620237D02*
X106134819Y-73477380D01*
X106134819Y-73477380D02*
X106134819Y-73382142D01*
X106134819Y-73382142D02*
X106182438Y-73239285D01*
X106182438Y-73239285D02*
X106230057Y-73191666D01*
X107134819Y-72239285D02*
X107134819Y-72810713D01*
X107134819Y-72524999D02*
X106134819Y-72524999D01*
X106134819Y-72524999D02*
X106277676Y-72620237D01*
X106277676Y-72620237D02*
X106372914Y-72715475D01*
X106372914Y-72715475D02*
X106420533Y-72810713D01*
X126159580Y-110566666D02*
X126207200Y-110614285D01*
X126207200Y-110614285D02*
X126254819Y-110757142D01*
X126254819Y-110757142D02*
X126254819Y-110852380D01*
X126254819Y-110852380D02*
X126207200Y-110995237D01*
X126207200Y-110995237D02*
X126111961Y-111090475D01*
X126111961Y-111090475D02*
X126016723Y-111138094D01*
X126016723Y-111138094D02*
X125826247Y-111185713D01*
X125826247Y-111185713D02*
X125683390Y-111185713D01*
X125683390Y-111185713D02*
X125492914Y-111138094D01*
X125492914Y-111138094D02*
X125397676Y-111090475D01*
X125397676Y-111090475D02*
X125302438Y-110995237D01*
X125302438Y-110995237D02*
X125254819Y-110852380D01*
X125254819Y-110852380D02*
X125254819Y-110757142D01*
X125254819Y-110757142D02*
X125302438Y-110614285D01*
X125302438Y-110614285D02*
X125350057Y-110566666D01*
X125350057Y-110185713D02*
X125302438Y-110138094D01*
X125302438Y-110138094D02*
X125254819Y-110042856D01*
X125254819Y-110042856D02*
X125254819Y-109804761D01*
X125254819Y-109804761D02*
X125302438Y-109709523D01*
X125302438Y-109709523D02*
X125350057Y-109661904D01*
X125350057Y-109661904D02*
X125445295Y-109614285D01*
X125445295Y-109614285D02*
X125540533Y-109614285D01*
X125540533Y-109614285D02*
X125683390Y-109661904D01*
X125683390Y-109661904D02*
X126254819Y-110233332D01*
X126254819Y-110233332D02*
X126254819Y-109614285D01*
X107377580Y-103914666D02*
X107425200Y-103962285D01*
X107425200Y-103962285D02*
X107472819Y-104105142D01*
X107472819Y-104105142D02*
X107472819Y-104200380D01*
X107472819Y-104200380D02*
X107425200Y-104343237D01*
X107425200Y-104343237D02*
X107329961Y-104438475D01*
X107329961Y-104438475D02*
X107234723Y-104486094D01*
X107234723Y-104486094D02*
X107044247Y-104533713D01*
X107044247Y-104533713D02*
X106901390Y-104533713D01*
X106901390Y-104533713D02*
X106710914Y-104486094D01*
X106710914Y-104486094D02*
X106615676Y-104438475D01*
X106615676Y-104438475D02*
X106520438Y-104343237D01*
X106520438Y-104343237D02*
X106472819Y-104200380D01*
X106472819Y-104200380D02*
X106472819Y-104105142D01*
X106472819Y-104105142D02*
X106520438Y-103962285D01*
X106520438Y-103962285D02*
X106568057Y-103914666D01*
X106806152Y-103057523D02*
X107472819Y-103057523D01*
X106425200Y-103295618D02*
X107139485Y-103533713D01*
X107139485Y-103533713D02*
X107139485Y-102914666D01*
X108944580Y-80811666D02*
X108992200Y-80859285D01*
X108992200Y-80859285D02*
X109039819Y-81002142D01*
X109039819Y-81002142D02*
X109039819Y-81097380D01*
X109039819Y-81097380D02*
X108992200Y-81240237D01*
X108992200Y-81240237D02*
X108896961Y-81335475D01*
X108896961Y-81335475D02*
X108801723Y-81383094D01*
X108801723Y-81383094D02*
X108611247Y-81430713D01*
X108611247Y-81430713D02*
X108468390Y-81430713D01*
X108468390Y-81430713D02*
X108277914Y-81383094D01*
X108277914Y-81383094D02*
X108182676Y-81335475D01*
X108182676Y-81335475D02*
X108087438Y-81240237D01*
X108087438Y-81240237D02*
X108039819Y-81097380D01*
X108039819Y-81097380D02*
X108039819Y-81002142D01*
X108039819Y-81002142D02*
X108087438Y-80859285D01*
X108087438Y-80859285D02*
X108135057Y-80811666D01*
X108039819Y-79906904D02*
X108039819Y-80383094D01*
X108039819Y-80383094D02*
X108516009Y-80430713D01*
X108516009Y-80430713D02*
X108468390Y-80383094D01*
X108468390Y-80383094D02*
X108420771Y-80287856D01*
X108420771Y-80287856D02*
X108420771Y-80049761D01*
X108420771Y-80049761D02*
X108468390Y-79954523D01*
X108468390Y-79954523D02*
X108516009Y-79906904D01*
X108516009Y-79906904D02*
X108611247Y-79859285D01*
X108611247Y-79859285D02*
X108849342Y-79859285D01*
X108849342Y-79859285D02*
X108944580Y-79906904D01*
X108944580Y-79906904D02*
X108992200Y-79954523D01*
X108992200Y-79954523D02*
X109039819Y-80049761D01*
X109039819Y-80049761D02*
X109039819Y-80287856D01*
X109039819Y-80287856D02*
X108992200Y-80383094D01*
X108992200Y-80383094D02*
X108944580Y-80430713D01*
X122279580Y-82081666D02*
X122327200Y-82129285D01*
X122327200Y-82129285D02*
X122374819Y-82272142D01*
X122374819Y-82272142D02*
X122374819Y-82367380D01*
X122374819Y-82367380D02*
X122327200Y-82510237D01*
X122327200Y-82510237D02*
X122231961Y-82605475D01*
X122231961Y-82605475D02*
X122136723Y-82653094D01*
X122136723Y-82653094D02*
X121946247Y-82700713D01*
X121946247Y-82700713D02*
X121803390Y-82700713D01*
X121803390Y-82700713D02*
X121612914Y-82653094D01*
X121612914Y-82653094D02*
X121517676Y-82605475D01*
X121517676Y-82605475D02*
X121422438Y-82510237D01*
X121422438Y-82510237D02*
X121374819Y-82367380D01*
X121374819Y-82367380D02*
X121374819Y-82272142D01*
X121374819Y-82272142D02*
X121422438Y-82129285D01*
X121422438Y-82129285D02*
X121470057Y-82081666D01*
X121374819Y-81224523D02*
X121374819Y-81414999D01*
X121374819Y-81414999D02*
X121422438Y-81510237D01*
X121422438Y-81510237D02*
X121470057Y-81557856D01*
X121470057Y-81557856D02*
X121612914Y-81653094D01*
X121612914Y-81653094D02*
X121803390Y-81700713D01*
X121803390Y-81700713D02*
X122184342Y-81700713D01*
X122184342Y-81700713D02*
X122279580Y-81653094D01*
X122279580Y-81653094D02*
X122327200Y-81605475D01*
X122327200Y-81605475D02*
X122374819Y-81510237D01*
X122374819Y-81510237D02*
X122374819Y-81319761D01*
X122374819Y-81319761D02*
X122327200Y-81224523D01*
X122327200Y-81224523D02*
X122279580Y-81176904D01*
X122279580Y-81176904D02*
X122184342Y-81129285D01*
X122184342Y-81129285D02*
X121946247Y-81129285D01*
X121946247Y-81129285D02*
X121851009Y-81176904D01*
X121851009Y-81176904D02*
X121803390Y-81224523D01*
X121803390Y-81224523D02*
X121755771Y-81319761D01*
X121755771Y-81319761D02*
X121755771Y-81510237D01*
X121755771Y-81510237D02*
X121803390Y-81605475D01*
X121803390Y-81605475D02*
X121851009Y-81653094D01*
X121851009Y-81653094D02*
X121946247Y-81700713D01*
X109579580Y-102401666D02*
X109627200Y-102449285D01*
X109627200Y-102449285D02*
X109674819Y-102592142D01*
X109674819Y-102592142D02*
X109674819Y-102687380D01*
X109674819Y-102687380D02*
X109627200Y-102830237D01*
X109627200Y-102830237D02*
X109531961Y-102925475D01*
X109531961Y-102925475D02*
X109436723Y-102973094D01*
X109436723Y-102973094D02*
X109246247Y-103020713D01*
X109246247Y-103020713D02*
X109103390Y-103020713D01*
X109103390Y-103020713D02*
X108912914Y-102973094D01*
X108912914Y-102973094D02*
X108817676Y-102925475D01*
X108817676Y-102925475D02*
X108722438Y-102830237D01*
X108722438Y-102830237D02*
X108674819Y-102687380D01*
X108674819Y-102687380D02*
X108674819Y-102592142D01*
X108674819Y-102592142D02*
X108722438Y-102449285D01*
X108722438Y-102449285D02*
X108770057Y-102401666D01*
X108674819Y-102068332D02*
X108674819Y-101401666D01*
X108674819Y-101401666D02*
X109674819Y-101830237D01*
X101959580Y-111132857D02*
X102007200Y-111180476D01*
X102007200Y-111180476D02*
X102054819Y-111323333D01*
X102054819Y-111323333D02*
X102054819Y-111418571D01*
X102054819Y-111418571D02*
X102007200Y-111561428D01*
X102007200Y-111561428D02*
X101911961Y-111656666D01*
X101911961Y-111656666D02*
X101816723Y-111704285D01*
X101816723Y-111704285D02*
X101626247Y-111751904D01*
X101626247Y-111751904D02*
X101483390Y-111751904D01*
X101483390Y-111751904D02*
X101292914Y-111704285D01*
X101292914Y-111704285D02*
X101197676Y-111656666D01*
X101197676Y-111656666D02*
X101102438Y-111561428D01*
X101102438Y-111561428D02*
X101054819Y-111418571D01*
X101054819Y-111418571D02*
X101054819Y-111323333D01*
X101054819Y-111323333D02*
X101102438Y-111180476D01*
X101102438Y-111180476D02*
X101150057Y-111132857D01*
X102054819Y-110180476D02*
X102054819Y-110751904D01*
X102054819Y-110466190D02*
X101054819Y-110466190D01*
X101054819Y-110466190D02*
X101197676Y-110561428D01*
X101197676Y-110561428D02*
X101292914Y-110656666D01*
X101292914Y-110656666D02*
X101340533Y-110751904D01*
X101054819Y-109561428D02*
X101054819Y-109466190D01*
X101054819Y-109466190D02*
X101102438Y-109370952D01*
X101102438Y-109370952D02*
X101150057Y-109323333D01*
X101150057Y-109323333D02*
X101245295Y-109275714D01*
X101245295Y-109275714D02*
X101435771Y-109228095D01*
X101435771Y-109228095D02*
X101673866Y-109228095D01*
X101673866Y-109228095D02*
X101864342Y-109275714D01*
X101864342Y-109275714D02*
X101959580Y-109323333D01*
X101959580Y-109323333D02*
X102007200Y-109370952D01*
X102007200Y-109370952D02*
X102054819Y-109466190D01*
X102054819Y-109466190D02*
X102054819Y-109561428D01*
X102054819Y-109561428D02*
X102007200Y-109656666D01*
X102007200Y-109656666D02*
X101959580Y-109704285D01*
X101959580Y-109704285D02*
X101864342Y-109751904D01*
X101864342Y-109751904D02*
X101673866Y-109799523D01*
X101673866Y-109799523D02*
X101435771Y-109799523D01*
X101435771Y-109799523D02*
X101245295Y-109751904D01*
X101245295Y-109751904D02*
X101150057Y-109704285D01*
X101150057Y-109704285D02*
X101102438Y-109656666D01*
X101102438Y-109656666D02*
X101054819Y-109561428D01*
X108039819Y-84581904D02*
X108849342Y-84581904D01*
X108849342Y-84581904D02*
X108944580Y-84534285D01*
X108944580Y-84534285D02*
X108992200Y-84486666D01*
X108992200Y-84486666D02*
X109039819Y-84391428D01*
X109039819Y-84391428D02*
X109039819Y-84200952D01*
X109039819Y-84200952D02*
X108992200Y-84105714D01*
X108992200Y-84105714D02*
X108944580Y-84058095D01*
X108944580Y-84058095D02*
X108849342Y-84010476D01*
X108849342Y-84010476D02*
X108039819Y-84010476D01*
X108039819Y-83058095D02*
X108039819Y-83534285D01*
X108039819Y-83534285D02*
X108516009Y-83581904D01*
X108516009Y-83581904D02*
X108468390Y-83534285D01*
X108468390Y-83534285D02*
X108420771Y-83439047D01*
X108420771Y-83439047D02*
X108420771Y-83200952D01*
X108420771Y-83200952D02*
X108468390Y-83105714D01*
X108468390Y-83105714D02*
X108516009Y-83058095D01*
X108516009Y-83058095D02*
X108611247Y-83010476D01*
X108611247Y-83010476D02*
X108849342Y-83010476D01*
X108849342Y-83010476D02*
X108944580Y-83058095D01*
X108944580Y-83058095D02*
X108992200Y-83105714D01*
X108992200Y-83105714D02*
X109039819Y-83200952D01*
X109039819Y-83200952D02*
X109039819Y-83439047D01*
X109039819Y-83439047D02*
X108992200Y-83534285D01*
X108992200Y-83534285D02*
X108944580Y-83581904D01*
X121374819Y-85851904D02*
X122184342Y-85851904D01*
X122184342Y-85851904D02*
X122279580Y-85804285D01*
X122279580Y-85804285D02*
X122327200Y-85756666D01*
X122327200Y-85756666D02*
X122374819Y-85661428D01*
X122374819Y-85661428D02*
X122374819Y-85470952D01*
X122374819Y-85470952D02*
X122327200Y-85375714D01*
X122327200Y-85375714D02*
X122279580Y-85328095D01*
X122279580Y-85328095D02*
X122184342Y-85280476D01*
X122184342Y-85280476D02*
X121374819Y-85280476D01*
X121374819Y-84375714D02*
X121374819Y-84566190D01*
X121374819Y-84566190D02*
X121422438Y-84661428D01*
X121422438Y-84661428D02*
X121470057Y-84709047D01*
X121470057Y-84709047D02*
X121612914Y-84804285D01*
X121612914Y-84804285D02*
X121803390Y-84851904D01*
X121803390Y-84851904D02*
X122184342Y-84851904D01*
X122184342Y-84851904D02*
X122279580Y-84804285D01*
X122279580Y-84804285D02*
X122327200Y-84756666D01*
X122327200Y-84756666D02*
X122374819Y-84661428D01*
X122374819Y-84661428D02*
X122374819Y-84470952D01*
X122374819Y-84470952D02*
X122327200Y-84375714D01*
X122327200Y-84375714D02*
X122279580Y-84328095D01*
X122279580Y-84328095D02*
X122184342Y-84280476D01*
X122184342Y-84280476D02*
X121946247Y-84280476D01*
X121946247Y-84280476D02*
X121851009Y-84328095D01*
X121851009Y-84328095D02*
X121803390Y-84375714D01*
X121803390Y-84375714D02*
X121755771Y-84470952D01*
X121755771Y-84470952D02*
X121755771Y-84661428D01*
X121755771Y-84661428D02*
X121803390Y-84756666D01*
X121803390Y-84756666D02*
X121851009Y-84804285D01*
X121851009Y-84804285D02*
X121946247Y-84851904D01*
X104000595Y-103404819D02*
X104000595Y-104214342D01*
X104000595Y-104214342D02*
X104048214Y-104309580D01*
X104048214Y-104309580D02*
X104095833Y-104357200D01*
X104095833Y-104357200D02*
X104191071Y-104404819D01*
X104191071Y-104404819D02*
X104381547Y-104404819D01*
X104381547Y-104404819D02*
X104476785Y-104357200D01*
X104476785Y-104357200D02*
X104524404Y-104309580D01*
X104524404Y-104309580D02*
X104572023Y-104214342D01*
X104572023Y-104214342D02*
X104572023Y-103404819D01*
X104952976Y-103404819D02*
X105572023Y-103404819D01*
X105572023Y-103404819D02*
X105238690Y-103785771D01*
X105238690Y-103785771D02*
X105381547Y-103785771D01*
X105381547Y-103785771D02*
X105476785Y-103833390D01*
X105476785Y-103833390D02*
X105524404Y-103881009D01*
X105524404Y-103881009D02*
X105572023Y-103976247D01*
X105572023Y-103976247D02*
X105572023Y-104214342D01*
X105572023Y-104214342D02*
X105524404Y-104309580D01*
X105524404Y-104309580D02*
X105476785Y-104357200D01*
X105476785Y-104357200D02*
X105381547Y-104404819D01*
X105381547Y-104404819D02*
X105095833Y-104404819D01*
X105095833Y-104404819D02*
X105000595Y-104357200D01*
X105000595Y-104357200D02*
X104952976Y-104309580D01*
X101803095Y-97827319D02*
X101803095Y-98636842D01*
X101803095Y-98636842D02*
X101850714Y-98732080D01*
X101850714Y-98732080D02*
X101898333Y-98779700D01*
X101898333Y-98779700D02*
X101993571Y-98827319D01*
X101993571Y-98827319D02*
X102184047Y-98827319D01*
X102184047Y-98827319D02*
X102279285Y-98779700D01*
X102279285Y-98779700D02*
X102326904Y-98732080D01*
X102326904Y-98732080D02*
X102374523Y-98636842D01*
X102374523Y-98636842D02*
X102374523Y-97827319D01*
X103374523Y-98827319D02*
X102803095Y-98827319D01*
X103088809Y-98827319D02*
X103088809Y-97827319D01*
X103088809Y-97827319D02*
X102993571Y-97970176D01*
X102993571Y-97970176D02*
X102898333Y-98065414D01*
X102898333Y-98065414D02*
X102803095Y-98113033D01*
X136414819Y-91843094D02*
X135414819Y-91843094D01*
X135414819Y-91843094D02*
X135414819Y-91462142D01*
X135414819Y-91462142D02*
X135462438Y-91366904D01*
X135462438Y-91366904D02*
X135510057Y-91319285D01*
X135510057Y-91319285D02*
X135605295Y-91271666D01*
X135605295Y-91271666D02*
X135748152Y-91271666D01*
X135748152Y-91271666D02*
X135843390Y-91319285D01*
X135843390Y-91319285D02*
X135891009Y-91366904D01*
X135891009Y-91366904D02*
X135938628Y-91462142D01*
X135938628Y-91462142D02*
X135938628Y-91843094D01*
X135510057Y-90890713D02*
X135462438Y-90843094D01*
X135462438Y-90843094D02*
X135414819Y-90747856D01*
X135414819Y-90747856D02*
X135414819Y-90509761D01*
X135414819Y-90509761D02*
X135462438Y-90414523D01*
X135462438Y-90414523D02*
X135510057Y-90366904D01*
X135510057Y-90366904D02*
X135605295Y-90319285D01*
X135605295Y-90319285D02*
X135700533Y-90319285D01*
X135700533Y-90319285D02*
X135843390Y-90366904D01*
X135843390Y-90366904D02*
X136414819Y-90938332D01*
X136414819Y-90938332D02*
X136414819Y-90319285D01*
X100999819Y-91743094D02*
X99999819Y-91743094D01*
X99999819Y-91743094D02*
X99999819Y-91362142D01*
X99999819Y-91362142D02*
X100047438Y-91266904D01*
X100047438Y-91266904D02*
X100095057Y-91219285D01*
X100095057Y-91219285D02*
X100190295Y-91171666D01*
X100190295Y-91171666D02*
X100333152Y-91171666D01*
X100333152Y-91171666D02*
X100428390Y-91219285D01*
X100428390Y-91219285D02*
X100476009Y-91266904D01*
X100476009Y-91266904D02*
X100523628Y-91362142D01*
X100523628Y-91362142D02*
X100523628Y-91743094D01*
X100999819Y-90219285D02*
X100999819Y-90790713D01*
X100999819Y-90504999D02*
X99999819Y-90504999D01*
X99999819Y-90504999D02*
X100142676Y-90600237D01*
X100142676Y-90600237D02*
X100237914Y-90695475D01*
X100237914Y-90695475D02*
X100285533Y-90790713D01*
X99149819Y-73358333D02*
X99864104Y-73358333D01*
X99864104Y-73358333D02*
X100006961Y-73405952D01*
X100006961Y-73405952D02*
X100102200Y-73501190D01*
X100102200Y-73501190D02*
X100149819Y-73644047D01*
X100149819Y-73644047D02*
X100149819Y-73739285D01*
X99245057Y-72929761D02*
X99197438Y-72882142D01*
X99197438Y-72882142D02*
X99149819Y-72786904D01*
X99149819Y-72786904D02*
X99149819Y-72548809D01*
X99149819Y-72548809D02*
X99197438Y-72453571D01*
X99197438Y-72453571D02*
X99245057Y-72405952D01*
X99245057Y-72405952D02*
X99340295Y-72358333D01*
X99340295Y-72358333D02*
X99435533Y-72358333D01*
X99435533Y-72358333D02*
X99578390Y-72405952D01*
X99578390Y-72405952D02*
X100149819Y-72977380D01*
X100149819Y-72977380D02*
X100149819Y-72358333D01*
X135979819Y-73358333D02*
X136694104Y-73358333D01*
X136694104Y-73358333D02*
X136836961Y-73405952D01*
X136836961Y-73405952D02*
X136932200Y-73501190D01*
X136932200Y-73501190D02*
X136979819Y-73644047D01*
X136979819Y-73644047D02*
X136979819Y-73739285D01*
X135979819Y-72977380D02*
X135979819Y-72358333D01*
X135979819Y-72358333D02*
X136360771Y-72691666D01*
X136360771Y-72691666D02*
X136360771Y-72548809D01*
X136360771Y-72548809D02*
X136408390Y-72453571D01*
X136408390Y-72453571D02*
X136456009Y-72405952D01*
X136456009Y-72405952D02*
X136551247Y-72358333D01*
X136551247Y-72358333D02*
X136789342Y-72358333D01*
X136789342Y-72358333D02*
X136884580Y-72405952D01*
X136884580Y-72405952D02*
X136932200Y-72453571D01*
X136932200Y-72453571D02*
X136979819Y-72548809D01*
X136979819Y-72548809D02*
X136979819Y-72834523D01*
X136979819Y-72834523D02*
X136932200Y-72929761D01*
X136932200Y-72929761D02*
X136884580Y-72977380D01*
X127766666Y-108754819D02*
X127766666Y-109469104D01*
X127766666Y-109469104D02*
X127719047Y-109611961D01*
X127719047Y-109611961D02*
X127623809Y-109707200D01*
X127623809Y-109707200D02*
X127480952Y-109754819D01*
X127480952Y-109754819D02*
X127385714Y-109754819D01*
X128242857Y-109754819D02*
X128242857Y-108754819D01*
X128242857Y-108754819D02*
X128623809Y-108754819D01*
X128623809Y-108754819D02*
X128719047Y-108802438D01*
X128719047Y-108802438D02*
X128766666Y-108850057D01*
X128766666Y-108850057D02*
X128814285Y-108945295D01*
X128814285Y-108945295D02*
X128814285Y-109088152D01*
X128814285Y-109088152D02*
X128766666Y-109183390D01*
X128766666Y-109183390D02*
X128719047Y-109231009D01*
X128719047Y-109231009D02*
X128623809Y-109278628D01*
X128623809Y-109278628D02*
X128242857Y-109278628D01*
X129766666Y-109754819D02*
X129195238Y-109754819D01*
X129480952Y-109754819D02*
X129480952Y-108754819D01*
X129480952Y-108754819D02*
X129385714Y-108897676D01*
X129385714Y-108897676D02*
X129290476Y-108992914D01*
X129290476Y-108992914D02*
X129195238Y-109040533D01*
X125866666Y-100354819D02*
X125866666Y-101069104D01*
X125866666Y-101069104D02*
X125819047Y-101211961D01*
X125819047Y-101211961D02*
X125723809Y-101307200D01*
X125723809Y-101307200D02*
X125580952Y-101354819D01*
X125580952Y-101354819D02*
X125485714Y-101354819D01*
X126342857Y-101354819D02*
X126342857Y-100354819D01*
X126342857Y-100354819D02*
X126723809Y-100354819D01*
X126723809Y-100354819D02*
X126819047Y-100402438D01*
X126819047Y-100402438D02*
X126866666Y-100450057D01*
X126866666Y-100450057D02*
X126914285Y-100545295D01*
X126914285Y-100545295D02*
X126914285Y-100688152D01*
X126914285Y-100688152D02*
X126866666Y-100783390D01*
X126866666Y-100783390D02*
X126819047Y-100831009D01*
X126819047Y-100831009D02*
X126723809Y-100878628D01*
X126723809Y-100878628D02*
X126342857Y-100878628D01*
X127295238Y-100450057D02*
X127342857Y-100402438D01*
X127342857Y-100402438D02*
X127438095Y-100354819D01*
X127438095Y-100354819D02*
X127676190Y-100354819D01*
X127676190Y-100354819D02*
X127771428Y-100402438D01*
X127771428Y-100402438D02*
X127819047Y-100450057D01*
X127819047Y-100450057D02*
X127866666Y-100545295D01*
X127866666Y-100545295D02*
X127866666Y-100640533D01*
X127866666Y-100640533D02*
X127819047Y-100783390D01*
X127819047Y-100783390D02*
X127247619Y-101354819D01*
X127247619Y-101354819D02*
X127866666Y-101354819D01*
X112554819Y-111733333D02*
X113269104Y-111733333D01*
X113269104Y-111733333D02*
X113411961Y-111780952D01*
X113411961Y-111780952D02*
X113507200Y-111876190D01*
X113507200Y-111876190D02*
X113554819Y-112019047D01*
X113554819Y-112019047D02*
X113554819Y-112114285D01*
X113554819Y-111257142D02*
X112554819Y-111257142D01*
X112554819Y-111257142D02*
X112554819Y-110876190D01*
X112554819Y-110876190D02*
X112602438Y-110780952D01*
X112602438Y-110780952D02*
X112650057Y-110733333D01*
X112650057Y-110733333D02*
X112745295Y-110685714D01*
X112745295Y-110685714D02*
X112888152Y-110685714D01*
X112888152Y-110685714D02*
X112983390Y-110733333D01*
X112983390Y-110733333D02*
X113031009Y-110780952D01*
X113031009Y-110780952D02*
X113078628Y-110876190D01*
X113078628Y-110876190D02*
X113078628Y-111257142D01*
X112554819Y-110352380D02*
X112554819Y-109733333D01*
X112554819Y-109733333D02*
X112935771Y-110066666D01*
X112935771Y-110066666D02*
X112935771Y-109923809D01*
X112935771Y-109923809D02*
X112983390Y-109828571D01*
X112983390Y-109828571D02*
X113031009Y-109780952D01*
X113031009Y-109780952D02*
X113126247Y-109733333D01*
X113126247Y-109733333D02*
X113364342Y-109733333D01*
X113364342Y-109733333D02*
X113459580Y-109780952D01*
X113459580Y-109780952D02*
X113507200Y-109828571D01*
X113507200Y-109828571D02*
X113554819Y-109923809D01*
X113554819Y-109923809D02*
X113554819Y-110209523D01*
X113554819Y-110209523D02*
X113507200Y-110304761D01*
X113507200Y-110304761D02*
X113459580Y-110352380D01*
D12*
X121757500Y-108290000D02*
X121582500Y-108290000D01*
X119037500Y-107615000D02*
X119037500Y-107990000D01*
X121757500Y-107615000D02*
X121757500Y-108290000D01*
X119037500Y-105745000D02*
X119037500Y-105070000D01*
X121757500Y-105745000D02*
X121757500Y-105070000D01*
X119037500Y-105070000D02*
X119212500Y-105070000D01*
X121757500Y-105070000D02*
X121582500Y-105070000D01*
X119037500Y-108290000D02*
X118847500Y-108430000D01*
X118847500Y-108150000D01*
X119037500Y-108290000D01*
G36*
X119037500Y-108290000D02*
G01*
X118847500Y-108430000D01*
X118847500Y-108150000D01*
X119037500Y-108290000D01*
G37*
X118837495Y-99593844D02*
X118837495Y-101047972D01*
X117017495Y-99593844D02*
X117017495Y-101047972D01*
X116547495Y-99593844D02*
X116547495Y-101047972D01*
X114727495Y-99593844D02*
X114727495Y-101047972D01*
X105770000Y-77546252D02*
X105770000Y-76123748D01*
X107590000Y-77546252D02*
X107590000Y-76123748D01*
X126640000Y-105968748D02*
X126640000Y-107391252D01*
X124820000Y-105968748D02*
X124820000Y-107391252D01*
X106108000Y-100779252D02*
X106108000Y-99356748D01*
X107928000Y-100779252D02*
X107928000Y-99356748D01*
X111048748Y-79735000D02*
X112471252Y-79735000D01*
X111048748Y-81555000D02*
X112471252Y-81555000D01*
X118033748Y-81005000D02*
X119456252Y-81005000D01*
X118033748Y-82825000D02*
X119456252Y-82825000D01*
X110130000Y-105333748D02*
X110130000Y-106756252D01*
X108310000Y-105333748D02*
X108310000Y-106756252D01*
X104063748Y-109580000D02*
X105486252Y-109580000D01*
X104063748Y-111400000D02*
X105486252Y-111400000D01*
X109965000Y-84530000D02*
X109965000Y-83120000D01*
X112285000Y-84520000D02*
X112285000Y-83120000D01*
X110015000Y-84900000D02*
X109685000Y-85140000D01*
X109685000Y-84660000D01*
X110015000Y-84900000D01*
G36*
X110015000Y-84900000D02*
G01*
X109685000Y-85140000D01*
X109685000Y-84660000D01*
X110015000Y-84900000D01*
G37*
X118745000Y-97135000D02*
X120695000Y-97135000D01*
X118745000Y-97135000D02*
X116795000Y-97135000D01*
X118745000Y-87015000D02*
X120695000Y-87015000D01*
X118745000Y-87015000D02*
X116795000Y-87015000D01*
X121685000Y-97410000D02*
X121205000Y-97410000D01*
X121445000Y-97080000D01*
X121685000Y-97410000D01*
G36*
X121685000Y-97410000D02*
G01*
X121205000Y-97410000D01*
X121445000Y-97080000D01*
X121685000Y-97410000D01*
G37*
X103662500Y-104925000D02*
X103662500Y-104925000D01*
X103662500Y-105425000D02*
X103662500Y-105125000D01*
X103662500Y-106625000D02*
X103662500Y-106625000D01*
X103662500Y-107125000D02*
X103662500Y-106625000D01*
X104162500Y-104925000D02*
X103862500Y-104925000D01*
X104162500Y-107125000D02*
X103662500Y-107125000D01*
X105362500Y-104925000D02*
X105862500Y-104925000D01*
X105362500Y-107125000D02*
X105362500Y-107125000D01*
X105862500Y-104925000D02*
X105862500Y-105425000D01*
X105862500Y-105425000D02*
X105862500Y-105425000D01*
X105862500Y-106625000D02*
X105862500Y-107125000D01*
X105862500Y-107125000D02*
X105362500Y-107125000D01*
X103662500Y-104925000D02*
X103302500Y-104925000D01*
X103662500Y-104565000D01*
X103662500Y-104925000D01*
G36*
X103662500Y-104925000D02*
G01*
X103302500Y-104925000D01*
X103662500Y-104565000D01*
X103662500Y-104925000D01*
G37*
X101445000Y-99637500D02*
X101445000Y-99442500D01*
X101455000Y-101432500D02*
X101455000Y-101007500D01*
X101630000Y-101432500D02*
X101455000Y-101432500D01*
X103500000Y-99212500D02*
X103675000Y-99212500D01*
X103500000Y-101432500D02*
X103675000Y-101432500D01*
X103675000Y-99212500D02*
X103675000Y-99637500D01*
X103675000Y-101432500D02*
X103675000Y-101007500D01*
X101445000Y-99202500D02*
X101305000Y-99012500D01*
X101585000Y-99012500D01*
X101445000Y-99202500D01*
G36*
X101445000Y-99202500D02*
G01*
X101305000Y-99012500D01*
X101585000Y-99012500D01*
X101445000Y-99202500D01*
G37*
D11*
X130610000Y-88405000D02*
X130610000Y-93705000D01*
X130610000Y-93705000D02*
X133410000Y-93705000D01*
X133410000Y-93705000D02*
X133410000Y-95805000D01*
X133410000Y-95805000D02*
X134860000Y-95805000D01*
X134860000Y-95805000D02*
X134860000Y-86305000D01*
X134860000Y-86305000D02*
X133410000Y-86305000D01*
X133410000Y-86305000D02*
X133410000Y-88405000D01*
X133410000Y-88405000D02*
X130610000Y-88405000D01*
X103095000Y-93705000D02*
X105895000Y-93705000D01*
X103095000Y-95805000D02*
X103095000Y-93705000D01*
X101645000Y-95805000D02*
X103095000Y-95805000D01*
X101645000Y-86305000D02*
X101645000Y-95805000D01*
X103095000Y-86305000D02*
X101645000Y-86305000D01*
X103095000Y-88405000D02*
X103095000Y-86305000D01*
X105895000Y-88405000D02*
X103095000Y-88405000D01*
X105895000Y-93705000D02*
X105895000Y-88405000D01*
D12*
X98365000Y-80070000D02*
X101025000Y-80070000D01*
X98365000Y-77470000D02*
X98365000Y-80070000D01*
X101025000Y-77470000D02*
X101025000Y-80070000D01*
X98365000Y-77470000D02*
X101025000Y-77470000D01*
X98365000Y-76200000D02*
X98365000Y-74870000D01*
X98365000Y-74870000D02*
X99695000Y-74870000D01*
X135195000Y-74870000D02*
X136525000Y-74870000D01*
X135195000Y-76200000D02*
X135195000Y-74870000D01*
X135195000Y-77470000D02*
X137855000Y-77470000D01*
X137855000Y-77470000D02*
X137855000Y-80070000D01*
X135195000Y-77470000D02*
X135195000Y-80070000D01*
X135195000Y-80070000D02*
X137855000Y-80070000D01*
D13*
X136437899Y-108410812D02*
X136582291Y-108421612D01*
X136697311Y-108438974D01*
X136893266Y-108498554D01*
X137059745Y-108588239D01*
X137195966Y-108707010D01*
X137301150Y-108853848D01*
X137374513Y-109027734D01*
X137415276Y-109227649D01*
X137424000Y-109386889D01*
X137424000Y-109511000D01*
X136556166Y-109511000D01*
X136556166Y-109459125D01*
X136543806Y-109335752D01*
X136509513Y-109226096D01*
X136457467Y-109136877D01*
X136391846Y-109074815D01*
X136316832Y-109046631D01*
X136298991Y-109045646D01*
X136197363Y-109065119D01*
X136115098Y-109118834D01*
X136057278Y-109201180D01*
X136028989Y-109306546D01*
X136027000Y-109345848D01*
X136033154Y-109428775D01*
X136054162Y-109501514D01*
X136093841Y-109567363D01*
X136156006Y-109629622D01*
X136244476Y-109691589D01*
X136363066Y-109756562D01*
X136515594Y-109827842D01*
X136652754Y-109886669D01*
X136768474Y-109937067D01*
X136880989Y-109989618D01*
X136979341Y-110038968D01*
X137052571Y-110079762D01*
X137068063Y-110089572D01*
X137230873Y-110219879D01*
X137357621Y-110371127D01*
X137448696Y-110544168D01*
X137504484Y-110739853D01*
X137525374Y-110959034D01*
X137522244Y-111088045D01*
X137494521Y-111307497D01*
X137439358Y-111495513D01*
X137355091Y-111654240D01*
X137240055Y-111785823D01*
X137092585Y-111892410D01*
X136911015Y-111976145D01*
X136807039Y-112010081D01*
X136697673Y-112033398D01*
X136557715Y-112050807D01*
X136398539Y-112061976D01*
X136231517Y-112066574D01*
X136068024Y-112064272D01*
X135919431Y-112054737D01*
X135805325Y-112039229D01*
X135603805Y-111984582D01*
X135434096Y-111902331D01*
X135295935Y-111792138D01*
X135189058Y-111653663D01*
X135113201Y-111486567D01*
X135068102Y-111290512D01*
X135053493Y-111072042D01*
X135053333Y-110950334D01*
X135958031Y-110950334D01*
X135972896Y-111081715D01*
X135996231Y-111216115D01*
X136033587Y-111314092D01*
X136088298Y-111380185D01*
X136163699Y-111418933D01*
X136230388Y-111432196D01*
X136336807Y-111425864D01*
X136426303Y-111385415D01*
X136494824Y-111317063D01*
X136538321Y-111227022D01*
X136552740Y-111121503D01*
X136534031Y-111006721D01*
X136524933Y-110980492D01*
X136487438Y-110908949D01*
X136429301Y-110842394D01*
X136345988Y-110777583D01*
X136232960Y-110711275D01*
X136085683Y-110640226D01*
X135991626Y-110599302D01*
X135843765Y-110535844D01*
X135728238Y-110483655D01*
X135637873Y-110438783D01*
X135565502Y-110397279D01*
X135503954Y-110355192D01*
X135446059Y-110308573D01*
X135416137Y-110282235D01*
X135296958Y-110157370D01*
X135209286Y-110022494D01*
X135150460Y-109870838D01*
X135117819Y-109695637D01*
X135108642Y-109500417D01*
X135124296Y-109262234D01*
X135169702Y-109054010D01*
X135245236Y-108875229D01*
X135351269Y-108725372D01*
X135488174Y-108603922D01*
X135656325Y-108510360D01*
X135856095Y-108444169D01*
X135872233Y-108440323D01*
X135984847Y-108422083D01*
X136125668Y-108411069D01*
X136281189Y-108407305D01*
X136437899Y-108410812D01*
G36*
X136437899Y-108410812D02*
G01*
X136582291Y-108421612D01*
X136697311Y-108438974D01*
X136893266Y-108498554D01*
X137059745Y-108588239D01*
X137195966Y-108707010D01*
X137301150Y-108853848D01*
X137374513Y-109027734D01*
X137415276Y-109227649D01*
X137424000Y-109386889D01*
X137424000Y-109511000D01*
X136556166Y-109511000D01*
X136556166Y-109459125D01*
X136543806Y-109335752D01*
X136509513Y-109226096D01*
X136457467Y-109136877D01*
X136391846Y-109074815D01*
X136316832Y-109046631D01*
X136298991Y-109045646D01*
X136197363Y-109065119D01*
X136115098Y-109118834D01*
X136057278Y-109201180D01*
X136028989Y-109306546D01*
X136027000Y-109345848D01*
X136033154Y-109428775D01*
X136054162Y-109501514D01*
X136093841Y-109567363D01*
X136156006Y-109629622D01*
X136244476Y-109691589D01*
X136363066Y-109756562D01*
X136515594Y-109827842D01*
X136652754Y-109886669D01*
X136768474Y-109937067D01*
X136880989Y-109989618D01*
X136979341Y-110038968D01*
X137052571Y-110079762D01*
X137068063Y-110089572D01*
X137230873Y-110219879D01*
X137357621Y-110371127D01*
X137448696Y-110544168D01*
X137504484Y-110739853D01*
X137525374Y-110959034D01*
X137522244Y-111088045D01*
X137494521Y-111307497D01*
X137439358Y-111495513D01*
X137355091Y-111654240D01*
X137240055Y-111785823D01*
X137092585Y-111892410D01*
X136911015Y-111976145D01*
X136807039Y-112010081D01*
X136697673Y-112033398D01*
X136557715Y-112050807D01*
X136398539Y-112061976D01*
X136231517Y-112066574D01*
X136068024Y-112064272D01*
X135919431Y-112054737D01*
X135805325Y-112039229D01*
X135603805Y-111984582D01*
X135434096Y-111902331D01*
X135295935Y-111792138D01*
X135189058Y-111653663D01*
X135113201Y-111486567D01*
X135068102Y-111290512D01*
X135053493Y-111072042D01*
X135053333Y-110950334D01*
X135958031Y-110950334D01*
X135972896Y-111081715D01*
X135996231Y-111216115D01*
X136033587Y-111314092D01*
X136088298Y-111380185D01*
X136163699Y-111418933D01*
X136230388Y-111432196D01*
X136336807Y-111425864D01*
X136426303Y-111385415D01*
X136494824Y-111317063D01*
X136538321Y-111227022D01*
X136552740Y-111121503D01*
X136534031Y-111006721D01*
X136524933Y-110980492D01*
X136487438Y-110908949D01*
X136429301Y-110842394D01*
X136345988Y-110777583D01*
X136232960Y-110711275D01*
X136085683Y-110640226D01*
X135991626Y-110599302D01*
X135843765Y-110535844D01*
X135728238Y-110483655D01*
X135637873Y-110438783D01*
X135565502Y-110397279D01*
X135503954Y-110355192D01*
X135446059Y-110308573D01*
X135416137Y-110282235D01*
X135296958Y-110157370D01*
X135209286Y-110022494D01*
X135150460Y-109870838D01*
X135117819Y-109695637D01*
X135108642Y-109500417D01*
X135124296Y-109262234D01*
X135169702Y-109054010D01*
X135245236Y-108875229D01*
X135351269Y-108725372D01*
X135488174Y-108603922D01*
X135656325Y-108510360D01*
X135856095Y-108444169D01*
X135872233Y-108440323D01*
X135984847Y-108422083D01*
X136125668Y-108411069D01*
X136281189Y-108407305D01*
X136437899Y-108410812D01*
G37*
X132153500Y-112029834D02*
X131201000Y-112029834D01*
X131201000Y-108473834D01*
X132153500Y-108473834D01*
X132153500Y-112029834D01*
G36*
X132153500Y-112029834D02*
G01*
X131201000Y-112029834D01*
X131201000Y-108473834D01*
X132153500Y-108473834D01*
X132153500Y-112029834D01*
G37*
X134905166Y-112029834D02*
X133869640Y-112029834D01*
X133840422Y-111929292D01*
X133828814Y-111888732D01*
X133807009Y-111811942D01*
X133776285Y-111703442D01*
X133737920Y-111567750D01*
X133693189Y-111409386D01*
X133643371Y-111232869D01*
X133589743Y-111042719D01*
X133537977Y-110859057D01*
X133264750Y-109889364D01*
X133253778Y-112029834D01*
X132386333Y-112029834D01*
X132386333Y-108473834D01*
X133434083Y-108474248D01*
X134005583Y-110569296D01*
X134016561Y-108473834D01*
X134905166Y-108473834D01*
X134905166Y-112029834D01*
G36*
X134905166Y-112029834D02*
G01*
X133869640Y-112029834D01*
X133840422Y-111929292D01*
X133828814Y-111888732D01*
X133807009Y-111811942D01*
X133776285Y-111703442D01*
X133737920Y-111567750D01*
X133693189Y-111409386D01*
X133643371Y-111232869D01*
X133589743Y-111042719D01*
X133537977Y-110859057D01*
X133264750Y-109889364D01*
X133253778Y-112029834D01*
X132386333Y-112029834D01*
X132386333Y-108473834D01*
X133434083Y-108474248D01*
X134005583Y-110569296D01*
X134016561Y-108473834D01*
X134905166Y-108473834D01*
X134905166Y-112029834D01*
G37*
X139519724Y-108753966D02*
X139536266Y-108822208D01*
X139561877Y-108927406D01*
X139595539Y-109065398D01*
X139636236Y-109232024D01*
X139682949Y-109423126D01*
X139734663Y-109634544D01*
X139790359Y-109862116D01*
X139849022Y-110101684D01*
X139909634Y-110349088D01*
X139945059Y-110493629D01*
X140004251Y-110735639D01*
X140060383Y-110966174D01*
X140112647Y-111181853D01*
X140160237Y-111379295D01*
X140202344Y-111555116D01*
X140238161Y-111705934D01*
X140266880Y-111828369D01*
X140287693Y-111919038D01*
X140299794Y-111974559D01*
X140302666Y-111991171D01*
X140300382Y-112003461D01*
X140290180Y-112012836D01*
X140267041Y-112019688D01*
X140225943Y-112024409D01*
X140161864Y-112027392D01*
X140069784Y-112029028D01*
X139944681Y-112029710D01*
X139807895Y-112029834D01*
X139313125Y-112029834D01*
X139302086Y-111971625D01*
X139294788Y-111928322D01*
X139283116Y-111853655D01*
X139268687Y-111758169D01*
X139253370Y-111654125D01*
X139215692Y-111394834D01*
X138505418Y-111394834D01*
X138492744Y-111463625D01*
X138484490Y-111512221D01*
X138471858Y-111591069D01*
X138456684Y-111688549D01*
X138443393Y-111775834D01*
X138406716Y-112019250D01*
X137915358Y-112024932D01*
X137758605Y-112026555D01*
X137639160Y-112027112D01*
X137552004Y-112026278D01*
X137492117Y-112023729D01*
X137454482Y-112019140D01*
X137434078Y-112012185D01*
X137425887Y-112002540D01*
X137424743Y-111993182D01*
X137429715Y-111967322D01*
X137443917Y-111903403D01*
X137466619Y-111804509D01*
X137497091Y-111673725D01*
X137534606Y-111514138D01*
X137578433Y-111328833D01*
X137627844Y-111120896D01*
X137682110Y-110893411D01*
X137734342Y-110675192D01*
X138615817Y-110675192D01*
X138627924Y-110685780D01*
X138659825Y-110692116D01*
X138718242Y-110695263D01*
X138809898Y-110696283D01*
X138851323Y-110696334D01*
X138963741Y-110695039D01*
X139038730Y-110690808D01*
X139081123Y-110683117D01*
X139095757Y-110671443D01*
X139095880Y-110669875D01*
X139092353Y-110642076D01*
X139082642Y-110579476D01*
X139067773Y-110488044D01*
X139048774Y-110373753D01*
X139026673Y-110242574D01*
X139002497Y-110100477D01*
X138977273Y-109953434D01*
X138952029Y-109807415D01*
X138927793Y-109668392D01*
X138905592Y-109542336D01*
X138886454Y-109435218D01*
X138871407Y-109353008D01*
X138861477Y-109301679D01*
X138857873Y-109286818D01*
X138852976Y-109305291D01*
X138842066Y-109360663D01*
X138826013Y-109448063D01*
X138805685Y-109562622D01*
X138781952Y-109699467D01*
X138755684Y-109853728D01*
X138739281Y-109951337D01*
X138711612Y-110116049D01*
X138685782Y-110268397D01*
X138662709Y-110403081D01*
X138643310Y-110514799D01*
X138628503Y-110598249D01*
X138619204Y-110648130D01*
X138616782Y-110659292D01*
X138615817Y-110675192D01*
X137734342Y-110675192D01*
X137740501Y-110649464D01*
X137802289Y-110392141D01*
X137843707Y-110220084D01*
X138261928Y-108484417D01*
X139451996Y-108473181D01*
X139519724Y-108753966D01*
G36*
X139519724Y-108753966D02*
G01*
X139536266Y-108822208D01*
X139561877Y-108927406D01*
X139595539Y-109065398D01*
X139636236Y-109232024D01*
X139682949Y-109423126D01*
X139734663Y-109634544D01*
X139790359Y-109862116D01*
X139849022Y-110101684D01*
X139909634Y-110349088D01*
X139945059Y-110493629D01*
X140004251Y-110735639D01*
X140060383Y-110966174D01*
X140112647Y-111181853D01*
X140160237Y-111379295D01*
X140202344Y-111555116D01*
X140238161Y-111705934D01*
X140266880Y-111828369D01*
X140287693Y-111919038D01*
X140299794Y-111974559D01*
X140302666Y-111991171D01*
X140300382Y-112003461D01*
X140290180Y-112012836D01*
X140267041Y-112019688D01*
X140225943Y-112024409D01*
X140161864Y-112027392D01*
X140069784Y-112029028D01*
X139944681Y-112029710D01*
X139807895Y-112029834D01*
X139313125Y-112029834D01*
X139302086Y-111971625D01*
X139294788Y-111928322D01*
X139283116Y-111853655D01*
X139268687Y-111758169D01*
X139253370Y-111654125D01*
X139215692Y-111394834D01*
X138505418Y-111394834D01*
X138492744Y-111463625D01*
X138484490Y-111512221D01*
X138471858Y-111591069D01*
X138456684Y-111688549D01*
X138443393Y-111775834D01*
X138406716Y-112019250D01*
X137915358Y-112024932D01*
X137758605Y-112026555D01*
X137639160Y-112027112D01*
X137552004Y-112026278D01*
X137492117Y-112023729D01*
X137454482Y-112019140D01*
X137434078Y-112012185D01*
X137425887Y-112002540D01*
X137424743Y-111993182D01*
X137429715Y-111967322D01*
X137443917Y-111903403D01*
X137466619Y-111804509D01*
X137497091Y-111673725D01*
X137534606Y-111514138D01*
X137578433Y-111328833D01*
X137627844Y-111120896D01*
X137682110Y-110893411D01*
X137734342Y-110675192D01*
X138615817Y-110675192D01*
X138627924Y-110685780D01*
X138659825Y-110692116D01*
X138718242Y-110695263D01*
X138809898Y-110696283D01*
X138851323Y-110696334D01*
X138963741Y-110695039D01*
X139038730Y-110690808D01*
X139081123Y-110683117D01*
X139095757Y-110671443D01*
X139095880Y-110669875D01*
X139092353Y-110642076D01*
X139082642Y-110579476D01*
X139067773Y-110488044D01*
X139048774Y-110373753D01*
X139026673Y-110242574D01*
X139002497Y-110100477D01*
X138977273Y-109953434D01*
X138952029Y-109807415D01*
X138927793Y-109668392D01*
X138905592Y-109542336D01*
X138886454Y-109435218D01*
X138871407Y-109353008D01*
X138861477Y-109301679D01*
X138857873Y-109286818D01*
X138852976Y-109305291D01*
X138842066Y-109360663D01*
X138826013Y-109448063D01*
X138805685Y-109562622D01*
X138781952Y-109699467D01*
X138755684Y-109853728D01*
X138739281Y-109951337D01*
X138711612Y-110116049D01*
X138685782Y-110268397D01*
X138662709Y-110403081D01*
X138643310Y-110514799D01*
X138628503Y-110598249D01*
X138619204Y-110648130D01*
X138616782Y-110659292D01*
X138615817Y-110675192D01*
X137734342Y-110675192D01*
X137740501Y-110649464D01*
X137802289Y-110392141D01*
X137843707Y-110220084D01*
X138261928Y-108484417D01*
X139451996Y-108473181D01*
X139519724Y-108753966D01*
G37*
X140302666Y-109807334D02*
X140302585Y-110040617D01*
X140302349Y-110260922D01*
X140301974Y-110464679D01*
X140301473Y-110648317D01*
X140300861Y-110808266D01*
X140300152Y-110940956D01*
X140299360Y-111042817D01*
X140298500Y-111110278D01*
X140297584Y-111139770D01*
X140297375Y-111140808D01*
X140291731Y-111120777D01*
X140277252Y-111063009D01*
X140254770Y-110970984D01*
X140225118Y-110848180D01*
X140189131Y-110698075D01*
X140147642Y-110524148D01*
X140101483Y-110329878D01*
X140051489Y-110118742D01*
X139998493Y-109894219D01*
X139986743Y-109844350D01*
X139932984Y-109616134D01*
X139881948Y-109399560D01*
X139834489Y-109198238D01*
X139791457Y-109015781D01*
X139753706Y-108855798D01*
X139722088Y-108721902D01*
X139697454Y-108617703D01*
X139680658Y-108546812D01*
X139672550Y-108512840D01*
X139672066Y-108510875D01*
X139671540Y-108496658D01*
X139682300Y-108486612D01*
X139710342Y-108480023D01*
X139761665Y-108476175D01*
X139842266Y-108474353D01*
X139958142Y-108473841D01*
X139982697Y-108473834D01*
X140302666Y-108473834D01*
X140302666Y-109807334D01*
G36*
X140302666Y-109807334D02*
G01*
X140302585Y-110040617D01*
X140302349Y-110260922D01*
X140301974Y-110464679D01*
X140301473Y-110648317D01*
X140300861Y-110808266D01*
X140300152Y-110940956D01*
X140299360Y-111042817D01*
X140298500Y-111110278D01*
X140297584Y-111139770D01*
X140297375Y-111140808D01*
X140291731Y-111120777D01*
X140277252Y-111063009D01*
X140254770Y-110970984D01*
X140225118Y-110848180D01*
X140189131Y-110698075D01*
X140147642Y-110524148D01*
X140101483Y-110329878D01*
X140051489Y-110118742D01*
X139998493Y-109894219D01*
X139986743Y-109844350D01*
X139932984Y-109616134D01*
X139881948Y-109399560D01*
X139834489Y-109198238D01*
X139791457Y-109015781D01*
X139753706Y-108855798D01*
X139722088Y-108721902D01*
X139697454Y-108617703D01*
X139680658Y-108546812D01*
X139672550Y-108512840D01*
X139672066Y-108510875D01*
X139671540Y-108496658D01*
X139682300Y-108486612D01*
X139710342Y-108480023D01*
X139761665Y-108476175D01*
X139842266Y-108474353D01*
X139958142Y-108473841D01*
X139982697Y-108473834D01*
X140302666Y-108473834D01*
X140302666Y-109807334D01*
G37*
D12*
X129300000Y-110100000D02*
G75*
G02*
X130000000Y-110800000I0J-700000D01*
G01*
X130000000Y-111400000D02*
G75*
G02*
X129300000Y-112100000I-700000J0D01*
G01*
X127900000Y-112100000D02*
G75*
G02*
X127200000Y-111400000I0J700000D01*
G01*
X127200000Y-110800000D02*
G75*
G02*
X127900000Y-110100000I700000J0D01*
G01*
X127200000Y-111400000D02*
X127200000Y-110800000D01*
X129300000Y-112100000D02*
X127900000Y-112100000D01*
X130000000Y-110800000D02*
X130000000Y-111400000D01*
X127900000Y-110100000D02*
X129300000Y-110100000D01*
X127400000Y-101700000D02*
G75*
G02*
X128100000Y-102400000I0J-700000D01*
G01*
X128100000Y-103000000D02*
G75*
G02*
X127400000Y-103700000I-700000J0D01*
G01*
X126000000Y-103700000D02*
G75*
G02*
X125300000Y-103000000I0J700000D01*
G01*
X125300000Y-102400000D02*
G75*
G02*
X126000000Y-101700000I700000J0D01*
G01*
X125300000Y-103000000D02*
X125300000Y-102400000D01*
X127400000Y-103700000D02*
X126000000Y-103700000D01*
X128100000Y-102400000D02*
X128100000Y-103000000D01*
X126000000Y-101700000D02*
X127400000Y-101700000D01*
X110100000Y-111500000D02*
X110100000Y-110100000D01*
X110800000Y-109400000D02*
X111400000Y-109400000D01*
X112100000Y-110100000D02*
X112100000Y-111500000D01*
X111400000Y-112200000D02*
X110800000Y-112200000D01*
X110800000Y-112200000D02*
G75*
G02*
X110100000Y-111500000I0J700000D01*
G01*
X112100000Y-111500000D02*
G75*
G02*
X111400000Y-112200000I-700000J0D01*
G01*
X111400000Y-109400000D02*
G75*
G02*
X112100000Y-110100000I0J-700000D01*
G01*
X110100000Y-110100000D02*
G75*
G02*
X110800000Y-109400000I700000J0D01*
G01*
M02*
