G04 #@! TF.GenerationSoftware,KiCad,Pcbnew,8.0.5-8.0.5-0~ubuntu22.04.1*
G04 #@! TF.CreationDate,2024-09-12T15:59:49+02:00*
G04 #@! TF.ProjectId,carte_principale,63617274-655f-4707-9269-6e636970616c,03A*
G04 #@! TF.SameCoordinates,Original*
G04 #@! TF.FileFunction,Copper,L1,Top*
G04 #@! TF.FilePolarity,Positive*
%FSLAX46Y46*%
G04 Gerber Fmt 4.6, Leading zero omitted, Abs format (unit mm)*
G04 Created by KiCad (PCBNEW 8.0.5-8.0.5-0~ubuntu22.04.1) date 2024-09-12 15:59:49*
%MOMM*%
%LPD*%
G01*
G04 APERTURE LIST*
G04 Aperture macros list*
%AMRoundRect*
0 Rectangle with rounded corners*
0 $1 Rounding radius*
0 $2 $3 $4 $5 $6 $7 $8 $9 X,Y pos of 4 corners*
0 Add a 4 corners polygon primitive as box body*
4,1,4,$2,$3,$4,$5,$6,$7,$8,$9,$2,$3,0*
0 Add four circle primitives for the rounded corners*
1,1,$1+$1,$2,$3*
1,1,$1+$1,$4,$5*
1,1,$1+$1,$6,$7*
1,1,$1+$1,$8,$9*
0 Add four rect primitives between the rounded corners*
20,1,$1+$1,$2,$3,$4,$5,0*
20,1,$1+$1,$4,$5,$6,$7,0*
20,1,$1+$1,$6,$7,$8,$9,0*
20,1,$1+$1,$8,$9,$2,$3,0*%
%AMFreePoly0*
4,1,19,0.500000,-0.750000,0.000000,-0.750000,0.000000,-0.744911,-0.071157,-0.744911,-0.207708,-0.704816,-0.327430,-0.627875,-0.420627,-0.520320,-0.479746,-0.390866,-0.500000,-0.250000,-0.500000,0.250000,-0.479746,0.390866,-0.420627,0.520320,-0.327430,0.627875,-0.207708,0.704816,-0.071157,0.744911,0.000000,0.744911,0.000000,0.750000,0.500000,0.750000,0.500000,-0.750000,0.500000,-0.750000,
$1*%
%AMFreePoly1*
4,1,19,0.000000,0.744911,0.071157,0.744911,0.207708,0.704816,0.327430,0.627875,0.420627,0.520320,0.479746,0.390866,0.500000,0.250000,0.500000,-0.250000,0.479746,-0.390866,0.420627,-0.520320,0.327430,-0.627875,0.207708,-0.704816,0.071157,-0.744911,0.000000,-0.744911,0.000000,-0.750000,-0.500000,-0.750000,-0.500000,0.750000,0.000000,0.750000,0.000000,0.744911,0.000000,0.744911,
$1*%
G04 Aperture macros list end*
%ADD10C,0.300000*%
G04 #@! TA.AperFunction,NonConductor*
%ADD11C,0.300000*%
G04 #@! TD*
G04 #@! TA.AperFunction,SMDPad,CuDef*
%ADD12RoundRect,0.087500X0.087500X-0.225000X0.087500X0.225000X-0.087500X0.225000X-0.087500X-0.225000X0*%
G04 #@! TD*
G04 #@! TA.AperFunction,SMDPad,CuDef*
%ADD13RoundRect,0.087500X0.225000X-0.087500X0.225000X0.087500X-0.225000X0.087500X-0.225000X-0.087500X0*%
G04 #@! TD*
G04 #@! TA.AperFunction,SMDPad,CuDef*
%ADD14RoundRect,0.250000X-0.625000X0.312500X-0.625000X-0.312500X0.625000X-0.312500X0.625000X0.312500X0*%
G04 #@! TD*
G04 #@! TA.AperFunction,SMDPad,CuDef*
%ADD15RoundRect,0.250000X0.650000X-0.325000X0.650000X0.325000X-0.650000X0.325000X-0.650000X-0.325000X0*%
G04 #@! TD*
G04 #@! TA.AperFunction,SMDPad,CuDef*
%ADD16RoundRect,0.250000X-0.650000X0.325000X-0.650000X-0.325000X0.650000X-0.325000X0.650000X0.325000X0*%
G04 #@! TD*
G04 #@! TA.AperFunction,SMDPad,CuDef*
%ADD17RoundRect,0.250000X-0.325000X-0.650000X0.325000X-0.650000X0.325000X0.650000X-0.325000X0.650000X0*%
G04 #@! TD*
G04 #@! TA.AperFunction,SMDPad,CuDef*
%ADD18RoundRect,0.100000X0.100000X-0.225000X0.100000X0.225000X-0.100000X0.225000X-0.100000X-0.225000X0*%
G04 #@! TD*
G04 #@! TA.AperFunction,SMDPad,CuDef*
%ADD19RoundRect,0.150000X0.825000X0.150000X-0.825000X0.150000X-0.825000X-0.150000X0.825000X-0.150000X0*%
G04 #@! TD*
G04 #@! TA.AperFunction,SMDPad,CuDef*
%ADD20R,0.375000X0.350000*%
G04 #@! TD*
G04 #@! TA.AperFunction,SMDPad,CuDef*
%ADD21R,0.350000X0.375000*%
G04 #@! TD*
G04 #@! TA.AperFunction,SMDPad,CuDef*
%ADD22RoundRect,0.087500X-0.125000X-0.087500X0.125000X-0.087500X0.125000X0.087500X-0.125000X0.087500X0*%
G04 #@! TD*
G04 #@! TA.AperFunction,SMDPad,CuDef*
%ADD23RoundRect,0.087500X-0.087500X-0.125000X0.087500X-0.125000X0.087500X0.125000X-0.087500X0.125000X0*%
G04 #@! TD*
G04 #@! TA.AperFunction,ComponentPad*
%ADD24O,1.600000X1.600000*%
G04 #@! TD*
G04 #@! TA.AperFunction,ComponentPad*
%ADD25R,1.600000X1.600000*%
G04 #@! TD*
G04 #@! TA.AperFunction,SMDPad,CuDef*
%ADD26R,0.700000X0.250000*%
G04 #@! TD*
G04 #@! TA.AperFunction,SMDPad,CuDef*
%ADD27R,2.800000X1.750000*%
G04 #@! TD*
G04 #@! TA.AperFunction,ComponentPad*
%ADD28R,1.700000X1.700000*%
G04 #@! TD*
G04 #@! TA.AperFunction,ComponentPad*
%ADD29O,1.700000X1.700000*%
G04 #@! TD*
G04 #@! TA.AperFunction,SMDPad,CuDef*
%ADD30FreePoly0,0.000000*%
G04 #@! TD*
G04 #@! TA.AperFunction,SMDPad,CuDef*
%ADD31FreePoly1,0.000000*%
G04 #@! TD*
G04 #@! TA.AperFunction,SMDPad,CuDef*
%ADD32FreePoly1,90.000000*%
G04 #@! TD*
G04 #@! TA.AperFunction,SMDPad,CuDef*
%ADD33FreePoly0,90.000000*%
G04 #@! TD*
G04 #@! TA.AperFunction,ViaPad*
%ADD34C,0.800000*%
G04 #@! TD*
G04 #@! TA.AperFunction,Conductor*
%ADD35C,0.300000*%
G04 #@! TD*
G04 #@! TA.AperFunction,Conductor*
%ADD36C,0.400000*%
G04 #@! TD*
G04 #@! TA.AperFunction,Conductor*
%ADD37C,0.250000*%
G04 #@! TD*
G04 #@! TA.AperFunction,Conductor*
%ADD38C,0.200000*%
G04 #@! TD*
G04 APERTURE END LIST*
D10*
D11*
X143303572Y-112438328D02*
X142446429Y-112438328D01*
X142875000Y-112438328D02*
X142875000Y-110938328D01*
X142875000Y-110938328D02*
X142732143Y-111152614D01*
X142732143Y-111152614D02*
X142589286Y-111295471D01*
X142589286Y-111295471D02*
X142446429Y-111366900D01*
D12*
X119647500Y-107842500D03*
X120147500Y-107842500D03*
X120647500Y-107842500D03*
X121147500Y-107842500D03*
D13*
X121310000Y-107180000D03*
X121310000Y-106680000D03*
X121310000Y-106180000D03*
D12*
X121147500Y-105517500D03*
X120647500Y-105517500D03*
X120147500Y-105517500D03*
X119647500Y-105517500D03*
D13*
X119485000Y-106180000D03*
X119485000Y-106680000D03*
X119485000Y-107180000D03*
D14*
X117927495Y-98858408D03*
X117927495Y-101783408D03*
X115637495Y-98858408D03*
X115637495Y-101783408D03*
D15*
X106680000Y-78310000D03*
X106680000Y-75360000D03*
D16*
X125730000Y-105205000D03*
X125730000Y-108155000D03*
D15*
X107018000Y-101543000D03*
X107018000Y-98593000D03*
D17*
X110285000Y-80645000D03*
X113235000Y-80645000D03*
X117270000Y-81915000D03*
X120220000Y-81915000D03*
D16*
X109220000Y-104570000D03*
X109220000Y-107520000D03*
D17*
X103300000Y-110490000D03*
X106250000Y-110490000D03*
D18*
X110475000Y-84770000D03*
X111125000Y-84770000D03*
X111775000Y-84770000D03*
X111775000Y-82870000D03*
X110475000Y-82870000D03*
D19*
X121220000Y-96520000D03*
X121220000Y-95250000D03*
X121220000Y-93980000D03*
X121220000Y-92710000D03*
X121220000Y-91440000D03*
X121220000Y-90170000D03*
X121220000Y-88900000D03*
X121220000Y-87630000D03*
X116270000Y-87630000D03*
X116270000Y-88900000D03*
X116270000Y-90170000D03*
X116270000Y-91440000D03*
X116270000Y-92710000D03*
X116270000Y-93980000D03*
X116270000Y-95250000D03*
X116270000Y-96520000D03*
D20*
X104000000Y-105275000D03*
X104000000Y-105775000D03*
X104000000Y-106275000D03*
X104000000Y-106775000D03*
D21*
X104512500Y-106787500D03*
X105012500Y-106787500D03*
D20*
X105525000Y-106775000D03*
X105525000Y-106275000D03*
X105525000Y-105775000D03*
X105525000Y-105275000D03*
D21*
X105012500Y-105262500D03*
X104512500Y-105262500D03*
D22*
X101802500Y-100072500D03*
X101802500Y-100572500D03*
D23*
X102065000Y-101085000D03*
X102565000Y-101085000D03*
X103065000Y-101085000D03*
D22*
X103327500Y-100572500D03*
X103327500Y-100072500D03*
D23*
X103065000Y-99560000D03*
X102565000Y-99560000D03*
X102065000Y-99560000D03*
D24*
X93240000Y-68480000D03*
X93240000Y-65940000D03*
X93240000Y-105560000D03*
X141500000Y-65940000D03*
X93240000Y-103020000D03*
X141500000Y-68480000D03*
X93240000Y-100480000D03*
X141500000Y-71020000D03*
X93240000Y-97940000D03*
X141500000Y-73560000D03*
X93240000Y-95400000D03*
X141500000Y-76100000D03*
X93240000Y-92860000D03*
X141500000Y-78640000D03*
X93240000Y-90320000D03*
X141500000Y-83720000D03*
X93240000Y-87780000D03*
X141500000Y-86260000D03*
X93240000Y-83720000D03*
X141500000Y-88800000D03*
X93240000Y-81180000D03*
X141500000Y-91340000D03*
X93240000Y-78640000D03*
X141500000Y-93880000D03*
X93240000Y-76100000D03*
X141500000Y-96420000D03*
X93240000Y-73560000D03*
X141500000Y-98960000D03*
X93240000Y-71020000D03*
D25*
X141500000Y-101500000D03*
D24*
X93240000Y-108100000D03*
X93240000Y-110640000D03*
D26*
X130110000Y-93305000D03*
X130110000Y-88805000D03*
X130110000Y-91305000D03*
X130110000Y-91805000D03*
X130110000Y-92305000D03*
X130110000Y-92805000D03*
X130110000Y-90805000D03*
X130110000Y-90305000D03*
X130110000Y-89805000D03*
X130110000Y-89305000D03*
D27*
X131860000Y-94740000D03*
X131860000Y-87370000D03*
X104645000Y-94740000D03*
X104645000Y-87370000D03*
D26*
X106395000Y-92805000D03*
X106395000Y-92305000D03*
X106395000Y-91805000D03*
X106395000Y-91305000D03*
X106395000Y-89305000D03*
X106395000Y-89805000D03*
X106395000Y-90305000D03*
X106395000Y-90805000D03*
X106395000Y-93305000D03*
X106395000Y-88805000D03*
D28*
X99695000Y-76200000D03*
D29*
X99695000Y-78740000D03*
X136525000Y-78740000D03*
D28*
X136525000Y-76200000D03*
D30*
X127950000Y-111100000D03*
D31*
X129250000Y-111100000D03*
D30*
X126050000Y-102700000D03*
D31*
X127350000Y-102700000D03*
D32*
X111100000Y-110150000D03*
D33*
X111100000Y-111450000D03*
D34*
X101684000Y-102100000D03*
X105240000Y-99814000D03*
X109812000Y-101846000D03*
X102700000Y-103094999D03*
X108585000Y-82550000D03*
X127000000Y-79375000D03*
X116205000Y-105410000D03*
X128270000Y-105410000D03*
X100465000Y-90305000D03*
X122555000Y-109220000D03*
X118745000Y-109220000D03*
X119380000Y-104140000D03*
X122682000Y-105280000D03*
X109855000Y-77470000D03*
X114300000Y-83185000D03*
X123190000Y-80645000D03*
X123825000Y-102235000D03*
X123190000Y-106680000D03*
X108585000Y-109220000D03*
X127000000Y-94615000D03*
X127635000Y-87630000D03*
X113030000Y-92710000D03*
X112395000Y-86995000D03*
X128905000Y-94615000D03*
X127635000Y-93345000D03*
X120015000Y-85090000D03*
X108599999Y-86374999D03*
X99398000Y-97274000D03*
X124460000Y-88900000D03*
X110490000Y-87630000D03*
X118110000Y-85590000D03*
X113030000Y-107950000D03*
X118110000Y-103505000D03*
X117475000Y-107950000D03*
X102870000Y-92710000D03*
X133985000Y-103505000D03*
X127635000Y-99695000D03*
D35*
X122682000Y-105280000D02*
X122560000Y-105402000D01*
X122560000Y-105402000D02*
X121288000Y-105402000D01*
X121288000Y-105402000D02*
X121197501Y-105492499D01*
D36*
X117345000Y-81915000D02*
X117432000Y-81828000D01*
X117432000Y-81828000D02*
X117432000Y-78740000D01*
X116045000Y-87630000D02*
X116045000Y-83215000D01*
X116045000Y-83215000D02*
X117345000Y-81915000D01*
D35*
X118110000Y-85590000D02*
X118110000Y-89535000D01*
X118110000Y-89535000D02*
X118745000Y-90170000D01*
X118745000Y-90170000D02*
X121445000Y-90170000D01*
D36*
X111775000Y-84770000D02*
X114242000Y-84770000D01*
X114242000Y-84770000D02*
X114300000Y-84828000D01*
X99695000Y-78740000D02*
X99695000Y-81569000D01*
X99695000Y-81569000D02*
X100608081Y-82482081D01*
X100608081Y-82482081D02*
X106612081Y-82482081D01*
X106612081Y-82482081D02*
X107315000Y-83185000D01*
X107315000Y-83185000D02*
X107315000Y-87630000D01*
X106045000Y-106725000D02*
X106635000Y-106725000D01*
X106635000Y-106725000D02*
X107196000Y-106164000D01*
X111100000Y-106690000D02*
X111100000Y-110150000D01*
X107196000Y-106164000D02*
X110574000Y-106164000D01*
X110574000Y-106164000D02*
X111100000Y-106690000D01*
X93240000Y-103020000D02*
X92108630Y-103020000D01*
X92108630Y-103020000D02*
X91440000Y-102351370D01*
X91440000Y-102351370D02*
X91440000Y-92883998D01*
X91440000Y-92883998D02*
X92663999Y-91659999D01*
X92663999Y-91659999D02*
X102015001Y-91659999D01*
X102015001Y-91659999D02*
X102235000Y-91440000D01*
X107018000Y-98668000D02*
X109428000Y-98668000D01*
X109812000Y-99052000D02*
X109812000Y-100330000D01*
X123825000Y-100965000D02*
X123825000Y-102235000D01*
X109428000Y-98668000D02*
X109812000Y-99052000D01*
X109812000Y-100330000D02*
X123190000Y-100330000D01*
X123190000Y-100330000D02*
X123825000Y-100965000D01*
X104775000Y-89535000D02*
X104386000Y-89146000D01*
X104386000Y-89146000D02*
X98382000Y-89146000D01*
X98382000Y-89146000D02*
X97810000Y-88574000D01*
X97810000Y-88574000D02*
X97810000Y-76835000D01*
X97810000Y-76835000D02*
X98445000Y-76200000D01*
X98445000Y-76200000D02*
X99695000Y-76200000D01*
X110498000Y-78732000D02*
X107177000Y-78732000D01*
X107177000Y-78732000D02*
X106680000Y-78235000D01*
X110360000Y-78870000D02*
X110498000Y-78732000D01*
X110498000Y-78732000D02*
X116832000Y-78732000D01*
X116848000Y-78732000D02*
X126357000Y-78732000D01*
X126357000Y-78732000D02*
X127000000Y-79375000D01*
X136425000Y-93880000D02*
X136425000Y-95807000D01*
X136425000Y-95807000D02*
X135712000Y-96520000D01*
X135712000Y-96520000D02*
X128905000Y-96520000D01*
D37*
X136425000Y-93880000D02*
X134620000Y-92075000D01*
D36*
X136425000Y-93880000D02*
X141500000Y-93880000D01*
D37*
X134620000Y-92075000D02*
X130980000Y-92075000D01*
X130980000Y-92075000D02*
X130710000Y-91805000D01*
X130710000Y-91805000D02*
X130110000Y-91805000D01*
D36*
X116045000Y-95250000D02*
X111760000Y-95250000D01*
X111760000Y-95250000D02*
X110752000Y-96258000D01*
X102954000Y-96258000D02*
X102446000Y-95750000D01*
X110752000Y-96258000D02*
X102954000Y-96258000D01*
X102446000Y-95750000D02*
X102446000Y-93134000D01*
X102446000Y-93134000D02*
X102870000Y-92710000D01*
X93240000Y-81180000D02*
X91540000Y-81180000D01*
X91540000Y-81180000D02*
X90500010Y-82219990D01*
X90500010Y-82219990D02*
X90500010Y-111998010D01*
X110484990Y-113035010D02*
X111125000Y-112395000D01*
X90500010Y-111998010D02*
X91537010Y-113035010D01*
X91537010Y-113035010D02*
X110484990Y-113035010D01*
X111125000Y-112395000D02*
X111100000Y-112370000D01*
X111100000Y-112370000D02*
X111100000Y-111450000D01*
D37*
X101802500Y-100072500D02*
X102450500Y-100072500D01*
X102950500Y-100572500D02*
X103327500Y-100572500D01*
X102450500Y-100072500D02*
X102950500Y-100572500D01*
D36*
X105240000Y-98668000D02*
X105240000Y-99814000D01*
X107018000Y-98668000D02*
X105240000Y-98668000D01*
X105240000Y-98668000D02*
X103878000Y-98668000D01*
D35*
X101684000Y-101466000D02*
X102065000Y-101085000D01*
X101684000Y-102100000D02*
X101684000Y-101466000D01*
D36*
X103000000Y-97790000D02*
X103735000Y-98525000D01*
X103878000Y-98668000D02*
X103735000Y-98525000D01*
X109812000Y-101846000D02*
X107396000Y-101846000D01*
X107396000Y-101846000D02*
X107018000Y-101468000D01*
D35*
X103716000Y-101084000D02*
X103715000Y-101085000D01*
X103715000Y-101085000D02*
X103065000Y-101085000D01*
D36*
X104100000Y-101468000D02*
X103716000Y-101084000D01*
X107018000Y-101468000D02*
X104100000Y-101468000D01*
X99398000Y-97274000D02*
X98732000Y-97940000D01*
X98732000Y-97940000D02*
X93240000Y-97940000D01*
D35*
X102565000Y-102959999D02*
X102565000Y-101085000D01*
X101802500Y-100572500D02*
X101179500Y-100572500D01*
D36*
X100922000Y-100576000D02*
X101176000Y-100576000D01*
X101176000Y-100576000D02*
X101179500Y-100572500D01*
X102700000Y-103094999D02*
X102565000Y-102959999D01*
X100668000Y-105410000D02*
X100668000Y-100830000D01*
X98425000Y-105410000D02*
X100668000Y-105410000D01*
X100668000Y-100830000D02*
X100922000Y-100576000D01*
X100668000Y-105410000D02*
X102870000Y-105410000D01*
D37*
X101802500Y-100072500D02*
X101802500Y-99822500D01*
X101802500Y-99822500D02*
X102065000Y-99560000D01*
X103327500Y-100572500D02*
X103327500Y-100822500D01*
X103327500Y-100822500D02*
X103065000Y-101085000D01*
X102565000Y-99560000D02*
X103065000Y-99560000D01*
D35*
X103065000Y-99560000D02*
X103065000Y-97855000D01*
D37*
X103065000Y-97855000D02*
X103000000Y-97790000D01*
D36*
X116045000Y-96520000D02*
X121445000Y-96520000D01*
X110360000Y-78870000D02*
X110360000Y-80645000D01*
X110475000Y-80760000D02*
X110360000Y-80645000D01*
X110475000Y-82870000D02*
X110475000Y-80760000D01*
X108905000Y-82870000D02*
X110475000Y-82870000D01*
X108585000Y-82550000D02*
X108905000Y-82870000D01*
X121445000Y-96520000D02*
X128905000Y-96520000D01*
D38*
X105150000Y-105795000D02*
X105537500Y-105795000D01*
X105084301Y-105795000D02*
X105150000Y-105795000D01*
X104584301Y-106295000D02*
X105084301Y-105795000D01*
X104012500Y-106295000D02*
X104584301Y-106295000D01*
X105537500Y-105795000D02*
X105537500Y-105295000D01*
X119510000Y-106180000D02*
X120150000Y-106180000D01*
X121285000Y-107180000D02*
X120647501Y-107180000D01*
X120150000Y-106682499D02*
X120150000Y-106180000D01*
X120647501Y-107180000D02*
X120150000Y-106682499D01*
X119510000Y-106180000D02*
X118880000Y-106180000D01*
D37*
X118880000Y-106180000D02*
X118745000Y-106045000D01*
X118745000Y-106045000D02*
X118745000Y-104775000D01*
D36*
X128400000Y-105280000D02*
X125730000Y-105280000D01*
X129539988Y-96520012D02*
X129539988Y-104140012D01*
X129539988Y-104140012D02*
X128400000Y-105280000D01*
X128905000Y-96520000D02*
X129539976Y-96520000D01*
X129539976Y-96520000D02*
X129539988Y-96520012D01*
D37*
X105537500Y-104870000D02*
X105632500Y-104775000D01*
X105537500Y-105295000D02*
X105537500Y-104870000D01*
D36*
X105762500Y-104645000D02*
X109220000Y-104645000D01*
X105632500Y-104775000D02*
X105762500Y-104645000D01*
X109220000Y-104645000D02*
X115440000Y-104645000D01*
X115440000Y-104645000D02*
X116205000Y-105410000D01*
D38*
X106395000Y-90305000D02*
X100465000Y-90305000D01*
D36*
X116045000Y-98513403D02*
X115637495Y-98920908D01*
X116045000Y-96520000D02*
X116045000Y-98513403D01*
X117927495Y-98920908D02*
X115637495Y-98920908D01*
D38*
X121285000Y-107180000D02*
X122420000Y-107180000D01*
X122420000Y-107180000D02*
X122555000Y-107315000D01*
X122555000Y-107315000D02*
X122555000Y-109220000D01*
X119647500Y-107817500D02*
X119647500Y-108317500D01*
X119647500Y-108317500D02*
X118745000Y-109220000D01*
D37*
X118745000Y-104775000D02*
X119380000Y-104140000D01*
D35*
X125730000Y-105280000D02*
X122682000Y-105280000D01*
D36*
X141500000Y-86260000D02*
X141500000Y-88800000D01*
X140368630Y-88800000D02*
X138998630Y-90170000D01*
X141500000Y-88800000D02*
X140368630Y-88800000D01*
X121445000Y-87630000D02*
X128270000Y-87630000D01*
X128270000Y-87630000D02*
X128905000Y-88265000D01*
D37*
X130110000Y-88805000D02*
X129445000Y-88805000D01*
X129445000Y-88805000D02*
X128905000Y-88265000D01*
X130110000Y-88805000D02*
X131350000Y-88805000D01*
X131350000Y-88805000D02*
X131445000Y-88900000D01*
D36*
X131445000Y-90170000D02*
X138998630Y-90170000D01*
X131445000Y-90170000D02*
X131445000Y-88900000D01*
X121445000Y-83215000D02*
X120145000Y-81915000D01*
X121445000Y-87630000D02*
X121445000Y-83215000D01*
X121415000Y-80645000D02*
X123190000Y-80645000D01*
X120145000Y-81915000D02*
X121415000Y-80645000D01*
X114300000Y-84455000D02*
X114300000Y-83185000D01*
X107950000Y-88900000D02*
X113030000Y-88900000D01*
X113160000Y-80645000D02*
X113160000Y-82045000D01*
X113160000Y-82045000D02*
X114300000Y-83185000D01*
X113030000Y-88900000D02*
X114300000Y-87630000D01*
X114300000Y-87630000D02*
X114300000Y-84455000D01*
D38*
X104775000Y-92710000D02*
X104775000Y-90805000D01*
X106395000Y-93305000D02*
X105370000Y-93305000D01*
X105370000Y-93305000D02*
X104775000Y-92710000D01*
X104775000Y-90805000D02*
X106395000Y-90805000D01*
D37*
X105025000Y-106807500D02*
X105025000Y-108200000D01*
X105025000Y-108200000D02*
X105410000Y-108585000D01*
D35*
X106175000Y-109350000D02*
X105410000Y-108585000D01*
X106175000Y-109350000D02*
X108455000Y-109350000D01*
X108455000Y-109350000D02*
X109220000Y-108585000D01*
X109220000Y-108585000D02*
X109220000Y-107445000D01*
D38*
X105025000Y-106420000D02*
X105025000Y-106807500D01*
X105150000Y-106295000D02*
X105025000Y-106420000D01*
X105537500Y-106295000D02*
X105150000Y-106295000D01*
X121285000Y-106180000D02*
X121285000Y-106680000D01*
D37*
X121285000Y-106180000D02*
X121785000Y-106180000D01*
D35*
X121785000Y-106180000D02*
X122285000Y-106680000D01*
X124330000Y-106680000D02*
X125730000Y-108080000D01*
X122285000Y-106680000D02*
X124330000Y-106680000D01*
D36*
X103000000Y-97790000D02*
X101600000Y-96390000D01*
X101600000Y-96390000D02*
X101600000Y-92075000D01*
X101600000Y-92075000D02*
X102235000Y-91440000D01*
X102235000Y-91440000D02*
X104775000Y-91440000D01*
X106680000Y-75435000D02*
X109090000Y-75435000D01*
X109855000Y-76200000D02*
X109855000Y-77470000D01*
X109090000Y-75435000D02*
X109855000Y-76200000D01*
D35*
X106175000Y-109350000D02*
X106175000Y-110490000D01*
D37*
X129248002Y-92805000D02*
X127438002Y-94615000D01*
X130110000Y-92805000D02*
X129248002Y-92805000D01*
X127438002Y-94615000D02*
X127000000Y-94615000D01*
D38*
X107545000Y-89305000D02*
X107950000Y-88900000D01*
X106395000Y-89305000D02*
X107545000Y-89305000D01*
X106395000Y-90805000D02*
X107315000Y-90805000D01*
X107315000Y-90805000D02*
X107449992Y-90670008D01*
X107449992Y-89400008D02*
X107545000Y-89305000D01*
X107449992Y-90670008D02*
X107449992Y-89400008D01*
D37*
X111125000Y-84770000D02*
X111125000Y-86360000D01*
D36*
X116045000Y-92710000D02*
X113030000Y-92710000D01*
D37*
X111125000Y-86360000D02*
X111760000Y-86995000D01*
X111760000Y-86995000D02*
X112395000Y-86995000D01*
D36*
X116045000Y-93980000D02*
X110490000Y-93980000D01*
D38*
X109315000Y-92805000D02*
X109855000Y-93345000D01*
X106395000Y-92805000D02*
X109315000Y-92805000D01*
D36*
X110490000Y-93980000D02*
X109855000Y-93345000D01*
X109012084Y-91440000D02*
X108377084Y-92075000D01*
X116045000Y-91440000D02*
X109012084Y-91440000D01*
D38*
X108147084Y-92305000D02*
X108377084Y-92075000D01*
X106395000Y-92305000D02*
X108147084Y-92305000D01*
D36*
X109433542Y-90170000D02*
X108163542Y-91440000D01*
X116045000Y-90170000D02*
X109433542Y-90170000D01*
D38*
X107798542Y-91805000D02*
X108163542Y-91440000D01*
X106395000Y-91805000D02*
X107798542Y-91805000D01*
D36*
X109220000Y-89535000D02*
X107950000Y-90805000D01*
X109220000Y-89535000D02*
X114300000Y-89535000D01*
X114895000Y-88900000D02*
X116045000Y-88900000D01*
X114300000Y-89495000D02*
X114895000Y-88900000D01*
X114300000Y-89535000D02*
X114300000Y-89495000D01*
D38*
X107450000Y-91305000D02*
X107950000Y-90805000D01*
X106395000Y-91305000D02*
X107450000Y-91305000D01*
X106395000Y-89805000D02*
X105045000Y-89805000D01*
X105045000Y-89805000D02*
X104775000Y-89535000D01*
X106395000Y-88805000D02*
X107220000Y-88805000D01*
X107220000Y-88805000D02*
X107315000Y-88710000D01*
X107315000Y-88710000D02*
X107315000Y-87630000D01*
D37*
X129885000Y-93305000D02*
X128905000Y-94285000D01*
X130110000Y-93305000D02*
X129885000Y-93305000D01*
X128905000Y-94285000D02*
X128905000Y-94615000D01*
X130110000Y-92305000D02*
X128675000Y-92305000D01*
X128675000Y-92305000D02*
X127635000Y-93345000D01*
D36*
X121445000Y-95250000D02*
X123825000Y-95250000D01*
X123825000Y-95250000D02*
X127635000Y-91440000D01*
X127635000Y-91440000D02*
X128905000Y-91440000D01*
D37*
X129510000Y-90805000D02*
X130110000Y-90805000D01*
X128905000Y-91410000D02*
X129510000Y-90805000D01*
X128905000Y-91440000D02*
X128905000Y-91410000D01*
D36*
X127000000Y-90805000D02*
X128270000Y-90805000D01*
X121445000Y-93980000D02*
X123825000Y-93980000D01*
X123825000Y-93980000D02*
X127000000Y-90805000D01*
D37*
X128873590Y-90805000D02*
X128270000Y-90805000D01*
X129373590Y-90305000D02*
X128873590Y-90805000D01*
X130110000Y-90305000D02*
X129373590Y-90305000D01*
D36*
X126365000Y-90170000D02*
X128270000Y-90170000D01*
X121445000Y-92710000D02*
X123825000Y-92710000D01*
X123825000Y-92710000D02*
X126365000Y-90170000D01*
D37*
X128872180Y-90170000D02*
X128270000Y-90170000D01*
X129237180Y-89805000D02*
X128872180Y-90170000D01*
X130110000Y-89805000D02*
X129237180Y-89805000D01*
D36*
X125730000Y-89535000D02*
X128270000Y-89535000D01*
X121445000Y-91440000D02*
X123825000Y-91440000D01*
X123825000Y-91440000D02*
X125730000Y-89535000D01*
D37*
X128500000Y-89305000D02*
X128270000Y-89535000D01*
X130110000Y-89305000D02*
X128500000Y-89305000D01*
D35*
X121445000Y-88900000D02*
X120995000Y-88900000D01*
X120995000Y-88900000D02*
X120015000Y-88900000D01*
X120015000Y-88900000D02*
X119380000Y-88265000D01*
X119380000Y-88265000D02*
X119380000Y-85725000D01*
X119380000Y-85725000D02*
X120015000Y-85090000D01*
D37*
X111775000Y-82995000D02*
X111760000Y-83010000D01*
X111775000Y-82870000D02*
X111775000Y-82995000D01*
X111760000Y-83010000D02*
X111760000Y-83185000D01*
X111760000Y-83185000D02*
X111125000Y-83820000D01*
X111125000Y-83820000D02*
X109220000Y-83820000D01*
X109220000Y-83820000D02*
X108585000Y-84455000D01*
D36*
X108599999Y-86374999D02*
X108599999Y-84469999D01*
D35*
X123190000Y-90170000D02*
X121445000Y-90170000D01*
X124460000Y-88900000D02*
X123190000Y-90170000D01*
D37*
X110475000Y-84770000D02*
X110475000Y-85740000D01*
X110490000Y-85755000D02*
X110490000Y-87630000D01*
X110475000Y-85740000D02*
X110490000Y-85755000D01*
D36*
X93240000Y-108100000D02*
X97640000Y-108100000D01*
X97640000Y-108100000D02*
X98875000Y-106865000D01*
D37*
X103575000Y-106795000D02*
X103505000Y-106865000D01*
X104012500Y-106795000D02*
X103575000Y-106795000D01*
D36*
X103505000Y-106865000D02*
X98875000Y-106865000D01*
D38*
X119510000Y-107180000D02*
X118880000Y-107180000D01*
X118880000Y-107180000D02*
X118745000Y-107315000D01*
D36*
X118745000Y-107315000D02*
X118110000Y-107950000D01*
X118110000Y-107950000D02*
X113030000Y-107950000D01*
X117927495Y-101720908D02*
X117927495Y-103322495D01*
X117927495Y-103322495D02*
X118110000Y-103505000D01*
X92108630Y-110640000D02*
X91440000Y-109971370D01*
X93240000Y-110640000D02*
X92108630Y-110640000D01*
X91440000Y-109971370D02*
X91440000Y-107315000D01*
X91994999Y-106760001D02*
X97074999Y-106760001D01*
X91440000Y-107315000D02*
X91994999Y-106760001D01*
X97074999Y-106760001D02*
X98425000Y-105410000D01*
D37*
X103575000Y-105295000D02*
X103505000Y-105365000D01*
X104012500Y-105295000D02*
X103575000Y-105295000D01*
D36*
X102915000Y-105365000D02*
X102870000Y-105410000D01*
X103505000Y-105365000D02*
X102915000Y-105365000D01*
X102870000Y-105410000D02*
X102870000Y-104775000D01*
X102870000Y-104775000D02*
X104140000Y-103505000D01*
X104140000Y-103505000D02*
X116205000Y-103505000D01*
X116205000Y-103505000D02*
X117475000Y-104775000D01*
X117475000Y-104775000D02*
X117475000Y-106680000D01*
D38*
X119510000Y-106680000D02*
X118745000Y-106680000D01*
D35*
X118745000Y-106680000D02*
X117475000Y-106680000D01*
D36*
X115637495Y-102445908D02*
X115570000Y-102513403D01*
X115637495Y-101720908D02*
X115637495Y-102445908D01*
X115570000Y-102513403D02*
X115570000Y-102870000D01*
X115570000Y-102870000D02*
X116205000Y-103505000D01*
D37*
X104525000Y-106807500D02*
X104525000Y-108200000D01*
X104525000Y-108200000D02*
X104140000Y-108585000D01*
D35*
X103375000Y-109350000D02*
X104140000Y-108585000D01*
X103375000Y-109350000D02*
X103375000Y-110490000D01*
D36*
X133985000Y-103505000D02*
X133985000Y-109855000D01*
X133985000Y-109855000D02*
X132715000Y-111125000D01*
X132690000Y-111100000D02*
X129250000Y-111100000D01*
X132715000Y-111125000D02*
X132690000Y-111100000D01*
X127635000Y-102415000D02*
X127350000Y-102700000D01*
X127635000Y-99695000D02*
X127635000Y-102415000D01*
D37*
X130110000Y-91305000D02*
X135120000Y-91305000D01*
X135120000Y-91305000D02*
X136525000Y-92710000D01*
X136525000Y-92710000D02*
X143510000Y-92710000D01*
X143510000Y-92710000D02*
X143510000Y-95885000D01*
X142975000Y-96420000D02*
X141500000Y-96420000D01*
X143510000Y-95885000D02*
X142975000Y-96420000D01*
X120647500Y-105465000D02*
X120647500Y-103507500D01*
D36*
X125242500Y-103507500D02*
X126050000Y-102700000D01*
X120647500Y-103507500D02*
X125242500Y-103507500D01*
D37*
X127950000Y-111100000D02*
X121310000Y-111100000D01*
X121147500Y-110937500D02*
X121147500Y-107920000D01*
X121310000Y-111100000D02*
X121147500Y-110937500D01*
X105975000Y-106795000D02*
X106045000Y-106725000D01*
X105537500Y-106795000D02*
X105975000Y-106795000D01*
G04 #@! TA.AperFunction,Conductor*
G36*
X144341621Y-64120502D02*
G01*
X144388114Y-64174158D01*
X144399500Y-64226500D01*
X144399500Y-113773500D01*
X144379498Y-113841621D01*
X144325842Y-113888114D01*
X144273500Y-113899500D01*
X110880917Y-113899500D01*
X110812796Y-113879498D01*
X110766303Y-113825842D01*
X110756199Y-113755568D01*
X110785693Y-113690988D01*
X110815842Y-113666911D01*
X110815444Y-113666314D01*
X110820591Y-113662875D01*
X110936633Y-113585338D01*
X111420142Y-113101828D01*
X141781204Y-113101828D01*
X143967072Y-113101828D01*
X143967072Y-110271984D01*
X141781204Y-110271984D01*
X141781204Y-113101828D01*
X111420142Y-113101828D01*
X111675328Y-112846642D01*
X111752865Y-112730601D01*
X111806273Y-112601661D01*
X111833500Y-112464781D01*
X111833500Y-112412723D01*
X111853502Y-112344602D01*
X111891380Y-112306725D01*
X111918019Y-112289605D01*
X111959368Y-112263032D01*
X112064685Y-112171774D01*
X112066435Y-112170364D01*
X112068029Y-112168878D01*
X112068033Y-112168875D01*
X112163745Y-112058416D01*
X112241477Y-111937462D01*
X112302193Y-111804513D01*
X112342700Y-111666558D01*
X112363500Y-111521889D01*
X112363500Y-110950000D01*
X112358273Y-110876921D01*
X112347602Y-110840583D01*
X112343781Y-110787151D01*
X112363499Y-110650005D01*
X112363500Y-110650000D01*
X112363500Y-110078114D01*
X112361135Y-110061662D01*
X112342700Y-109933442D01*
X112302193Y-109795487D01*
X112241477Y-109662538D01*
X112167406Y-109547282D01*
X112166579Y-109545829D01*
X112163743Y-109541581D01*
X112163743Y-109541580D01*
X112068029Y-109431122D01*
X111959368Y-109336968D01*
X111866379Y-109277208D01*
X111819886Y-109223552D01*
X111808500Y-109171210D01*
X111808500Y-106620220D01*
X111808499Y-106620216D01*
X111807058Y-106612970D01*
X111781273Y-106483338D01*
X111742362Y-106389399D01*
X111727865Y-106354399D01*
X111650328Y-106238357D01*
X111650323Y-106238351D01*
X111025648Y-105613676D01*
X111025638Y-105613667D01*
X110981633Y-105584265D01*
X110936105Y-105529789D01*
X110927256Y-105459346D01*
X110957897Y-105395301D01*
X111018299Y-105357990D01*
X111051634Y-105353500D01*
X115094339Y-105353500D01*
X115162460Y-105373502D01*
X115183434Y-105390405D01*
X115270334Y-105477305D01*
X115304360Y-105539617D01*
X115306549Y-105553228D01*
X115311457Y-105599927D01*
X115341526Y-105692470D01*
X115370473Y-105781556D01*
X115370476Y-105781561D01*
X115465958Y-105946941D01*
X115465965Y-105946951D01*
X115593744Y-106088864D01*
X115649026Y-106129029D01*
X115748248Y-106201118D01*
X115922712Y-106278794D01*
X116109513Y-106318500D01*
X116300487Y-106318500D01*
X116487288Y-106278794D01*
X116589252Y-106233396D01*
X116659618Y-106223963D01*
X116723915Y-106254069D01*
X116761729Y-106314158D01*
X116766500Y-106348504D01*
X116766500Y-106749781D01*
X116793727Y-106886662D01*
X116793728Y-106886664D01*
X116793729Y-106886669D01*
X116847133Y-107015595D01*
X116847134Y-107015597D01*
X116847136Y-107015601D01*
X116867114Y-107045500D01*
X116888328Y-107113250D01*
X116869545Y-107181717D01*
X116816728Y-107229161D01*
X116762348Y-107241500D01*
X113641405Y-107241500D01*
X113573284Y-107221498D01*
X113567344Y-107217436D01*
X113486752Y-107158882D01*
X113312288Y-107081206D01*
X113125487Y-107041500D01*
X112934513Y-107041500D01*
X112747711Y-107081206D01*
X112573247Y-107158882D01*
X112418744Y-107271135D01*
X112290965Y-107413048D01*
X112290958Y-107413058D01*
X112195476Y-107578438D01*
X112195473Y-107578445D01*
X112136457Y-107760072D01*
X112116496Y-107950000D01*
X112136457Y-108139927D01*
X112163478Y-108223087D01*
X112195473Y-108321556D01*
X112195476Y-108321561D01*
X112290958Y-108486941D01*
X112290965Y-108486951D01*
X112418744Y-108628864D01*
X112459818Y-108658706D01*
X112573248Y-108741118D01*
X112747712Y-108818794D01*
X112934513Y-108858500D01*
X113125487Y-108858500D01*
X113312288Y-108818794D01*
X113486752Y-108741118D01*
X113567344Y-108682563D01*
X113634212Y-108658706D01*
X113641405Y-108658500D01*
X116863595Y-108658500D01*
X116931716Y-108678502D01*
X116937655Y-108682563D01*
X117018248Y-108741118D01*
X117192712Y-108818794D01*
X117379513Y-108858500D01*
X117570491Y-108858500D01*
X117693305Y-108832394D01*
X117718714Y-108826993D01*
X117789505Y-108832394D01*
X117846138Y-108875210D01*
X117870632Y-108941848D01*
X117864746Y-108989173D01*
X117851457Y-109030072D01*
X117831496Y-109220000D01*
X117851457Y-109409927D01*
X117875589Y-109484195D01*
X117910473Y-109591556D01*
X117910476Y-109591561D01*
X118005958Y-109756941D01*
X118005965Y-109756951D01*
X118133744Y-109898864D01*
X118181324Y-109933433D01*
X118288248Y-110011118D01*
X118462712Y-110088794D01*
X118649513Y-110128500D01*
X118840487Y-110128500D01*
X119027288Y-110088794D01*
X119201752Y-110011118D01*
X119356253Y-109898866D01*
X119357207Y-109897807D01*
X119484034Y-109756951D01*
X119484035Y-109756949D01*
X119484040Y-109756944D01*
X119579527Y-109591556D01*
X119638542Y-109409928D01*
X119658504Y-109220000D01*
X119658504Y-109219998D01*
X119658504Y-109219235D01*
X119658628Y-109218809D01*
X119659194Y-109213433D01*
X119660177Y-109213536D01*
X119678506Y-109151114D01*
X119695409Y-109130139D01*
X119895315Y-108930234D01*
X120125145Y-108700404D01*
X120187457Y-108666379D01*
X120214240Y-108663500D01*
X120274059Y-108663500D01*
X120274066Y-108663500D01*
X120371556Y-108650665D01*
X120441702Y-108661604D01*
X120494801Y-108708732D01*
X120514000Y-108775587D01*
X120514000Y-110875106D01*
X120514000Y-110999894D01*
X120538345Y-111122285D01*
X120586100Y-111237575D01*
X120655429Y-111341333D01*
X120906167Y-111592072D01*
X121009925Y-111661401D01*
X121091447Y-111695168D01*
X121125215Y-111709155D01*
X121247606Y-111733500D01*
X121247607Y-111733500D01*
X121372394Y-111733500D01*
X126929977Y-111733500D01*
X126998098Y-111753502D01*
X127044590Y-111807157D01*
X127057950Y-111836412D01*
X127057953Y-111836417D01*
X127136968Y-111959368D01*
X127136969Y-111959369D01*
X127136970Y-111959370D01*
X127228213Y-112064672D01*
X127229630Y-112066429D01*
X127231125Y-112068033D01*
X127341584Y-112163745D01*
X127462538Y-112241477D01*
X127595487Y-112302193D01*
X127733442Y-112342700D01*
X127878111Y-112363500D01*
X127878115Y-112363500D01*
X128449994Y-112363500D01*
X128450000Y-112363500D01*
X128523079Y-112358273D01*
X128559416Y-112347602D01*
X128612849Y-112343781D01*
X128750000Y-112363500D01*
X129321885Y-112363500D01*
X129321889Y-112363500D01*
X129466558Y-112342700D01*
X129604513Y-112302193D01*
X129737462Y-112241477D01*
X129852725Y-112167402D01*
X129854172Y-112166579D01*
X129858376Y-112163770D01*
X129858416Y-112163745D01*
X129858420Y-112163743D01*
X129968878Y-112068029D01*
X130063032Y-111959368D01*
X130122791Y-111866379D01*
X130176446Y-111819887D01*
X130228789Y-111808500D01*
X132507125Y-111808500D01*
X132531705Y-111810920D01*
X132645218Y-111833500D01*
X132645219Y-111833500D01*
X132784781Y-111833500D01*
X132784782Y-111833500D01*
X132921661Y-111806273D01*
X133050601Y-111752865D01*
X133166643Y-111675328D01*
X134535328Y-110306643D01*
X134612865Y-110190601D01*
X134638587Y-110128500D01*
X134666273Y-110061662D01*
X134693500Y-109924781D01*
X134693500Y-104124229D01*
X134713502Y-104056108D01*
X134720208Y-104047325D01*
X134720157Y-104047288D01*
X134724033Y-104041950D01*
X134724040Y-104041944D01*
X134819527Y-103876556D01*
X134878542Y-103694928D01*
X134898504Y-103505000D01*
X134878542Y-103315072D01*
X134819527Y-103133444D01*
X134724040Y-102968056D01*
X134724038Y-102968054D01*
X134724034Y-102968048D01*
X134596255Y-102826135D01*
X134441752Y-102713882D01*
X134267288Y-102636206D01*
X134080487Y-102596500D01*
X133889513Y-102596500D01*
X133702711Y-102636206D01*
X133528247Y-102713882D01*
X133373744Y-102826135D01*
X133245965Y-102968048D01*
X133245958Y-102968058D01*
X133150476Y-103133438D01*
X133150473Y-103133445D01*
X133091457Y-103315072D01*
X133071496Y-103505000D01*
X133091457Y-103694927D01*
X133113818Y-103763745D01*
X133150473Y-103876556D01*
X133155993Y-103886117D01*
X133245958Y-104041941D01*
X133249843Y-104047288D01*
X133248233Y-104048457D01*
X133274853Y-104103925D01*
X133276500Y-104124229D01*
X133276500Y-109509339D01*
X133256498Y-109577460D01*
X133239595Y-109598434D01*
X132483434Y-110354595D01*
X132421122Y-110388621D01*
X132394339Y-110391500D01*
X130228789Y-110391500D01*
X130160668Y-110371498D01*
X130122791Y-110333620D01*
X130105454Y-110306643D01*
X130063032Y-110240632D01*
X129971786Y-110135327D01*
X129970368Y-110133569D01*
X129968874Y-110131966D01*
X129919049Y-110088793D01*
X129858416Y-110036255D01*
X129737462Y-109958523D01*
X129604513Y-109897807D01*
X129558528Y-109884304D01*
X129466566Y-109857302D01*
X129466559Y-109857300D01*
X129432456Y-109852397D01*
X129321889Y-109836500D01*
X128750000Y-109836500D01*
X128676921Y-109841727D01*
X128676918Y-109841727D01*
X128676910Y-109841729D01*
X128640579Y-109852397D01*
X128587151Y-109856219D01*
X128450000Y-109836500D01*
X127878111Y-109836500D01*
X127781665Y-109850366D01*
X127733440Y-109857300D01*
X127733433Y-109857302D01*
X127595490Y-109897806D01*
X127595487Y-109897807D01*
X127462538Y-109958523D01*
X127462536Y-109958524D01*
X127462530Y-109958527D01*
X127347290Y-110032587D01*
X127345836Y-110033415D01*
X127341577Y-110036259D01*
X127231122Y-110131970D01*
X127136970Y-110240629D01*
X127057953Y-110363582D01*
X127057950Y-110363587D01*
X127044590Y-110392843D01*
X126998097Y-110446498D01*
X126929977Y-110466500D01*
X121907000Y-110466500D01*
X121838879Y-110446498D01*
X121792386Y-110392842D01*
X121781000Y-110340500D01*
X121781000Y-110027912D01*
X121801002Y-109959791D01*
X121854658Y-109913298D01*
X121924932Y-109903194D01*
X121981060Y-109925975D01*
X122098248Y-110011118D01*
X122272712Y-110088794D01*
X122459513Y-110128500D01*
X122650487Y-110128500D01*
X122837288Y-110088794D01*
X123011752Y-110011118D01*
X123166253Y-109898866D01*
X123167207Y-109897807D01*
X123294034Y-109756951D01*
X123294035Y-109756949D01*
X123294040Y-109756944D01*
X123389527Y-109591556D01*
X123448542Y-109409928D01*
X123468504Y-109220000D01*
X123448542Y-109030072D01*
X123389527Y-108848444D01*
X123294040Y-108683056D01*
X123222707Y-108603833D01*
X123195863Y-108574019D01*
X123174986Y-108530516D01*
X124322000Y-108530516D01*
X124332605Y-108634318D01*
X124332606Y-108634321D01*
X124388342Y-108802525D01*
X124481365Y-108953339D01*
X124481370Y-108953345D01*
X124606654Y-109078629D01*
X124606660Y-109078634D01*
X124757474Y-109171657D01*
X124925678Y-109227393D01*
X124925681Y-109227394D01*
X125029483Y-109237999D01*
X125029483Y-109238000D01*
X125476000Y-109238000D01*
X125984000Y-109238000D01*
X126430517Y-109238000D01*
X126430516Y-109237999D01*
X126534318Y-109227394D01*
X126534321Y-109227393D01*
X126702525Y-109171657D01*
X126853339Y-109078634D01*
X126853345Y-109078629D01*
X126978629Y-108953345D01*
X126978634Y-108953339D01*
X127071657Y-108802525D01*
X127127393Y-108634321D01*
X127127394Y-108634318D01*
X127137999Y-108530516D01*
X127138000Y-108530516D01*
X127138000Y-108409000D01*
X125984000Y-108409000D01*
X125984000Y-109238000D01*
X125476000Y-109238000D01*
X125476000Y-108409000D01*
X124322000Y-108409000D01*
X124322000Y-108530516D01*
X123174986Y-108530516D01*
X123165146Y-108510012D01*
X123163500Y-108489709D01*
X123163500Y-107779483D01*
X124322000Y-107779483D01*
X124322000Y-107901000D01*
X125476000Y-107901000D01*
X125984000Y-107901000D01*
X127138000Y-107901000D01*
X127138000Y-107779483D01*
X127127394Y-107675681D01*
X127127393Y-107675678D01*
X127071657Y-107507474D01*
X126978634Y-107356660D01*
X126978629Y-107356654D01*
X126853345Y-107231370D01*
X126853339Y-107231365D01*
X126702525Y-107138342D01*
X126534321Y-107082606D01*
X126534318Y-107082605D01*
X126430516Y-107072000D01*
X125984000Y-107072000D01*
X125984000Y-107901000D01*
X125476000Y-107901000D01*
X125476000Y-107072000D01*
X125029483Y-107072000D01*
X124925681Y-107082605D01*
X124925678Y-107082606D01*
X124757474Y-107138342D01*
X124606660Y-107231365D01*
X124606654Y-107231370D01*
X124481370Y-107356654D01*
X124481365Y-107356660D01*
X124388342Y-107507474D01*
X124332606Y-107675678D01*
X124332605Y-107675681D01*
X124322000Y-107779483D01*
X123163500Y-107779483D01*
X123163500Y-107234890D01*
X123162557Y-107231370D01*
X123122032Y-107080128D01*
X123106620Y-107053434D01*
X123041922Y-106941373D01*
X123041919Y-106941370D01*
X123041916Y-106941366D01*
X122793633Y-106693083D01*
X122793623Y-106693075D01*
X122654877Y-106612970D01*
X122654874Y-106612969D01*
X122654873Y-106612968D01*
X122654871Y-106612967D01*
X122654870Y-106612967D01*
X122546138Y-106583833D01*
X122500111Y-106571500D01*
X122500109Y-106571500D01*
X122243374Y-106571500D01*
X122175253Y-106551498D01*
X122128760Y-106497842D01*
X122118452Y-106461949D01*
X122116411Y-106446449D01*
X122116411Y-106413553D01*
X122124120Y-106355000D01*
X121771756Y-106355000D01*
X121703635Y-106334998D01*
X121657142Y-106281342D01*
X121647038Y-106211068D01*
X121671793Y-106152296D01*
X121704406Y-106109794D01*
X121761745Y-106067928D01*
X121804368Y-106060500D01*
X122174617Y-106060500D01*
X122225865Y-106071392D01*
X122399712Y-106148794D01*
X122586513Y-106188500D01*
X122777487Y-106188500D01*
X122964288Y-106148794D01*
X123138752Y-106071118D01*
X123288163Y-105962563D01*
X123355031Y-105938706D01*
X123362224Y-105938500D01*
X124370461Y-105938500D01*
X124438582Y-105958502D01*
X124477700Y-105998351D01*
X124480970Y-106003652D01*
X124480975Y-106003658D01*
X124606341Y-106129024D01*
X124606347Y-106129029D01*
X124606348Y-106129030D01*
X124757262Y-106222115D01*
X124925574Y-106277887D01*
X125029455Y-106288500D01*
X126430544Y-106288499D01*
X126534426Y-106277887D01*
X126702738Y-106222115D01*
X126853652Y-106129030D01*
X126903954Y-106078728D01*
X126957278Y-106025405D01*
X127019590Y-105991379D01*
X127046373Y-105988500D01*
X127512278Y-105988500D01*
X127580399Y-106008502D01*
X127605914Y-106030190D01*
X127658744Y-106088864D01*
X127714026Y-106129029D01*
X127813248Y-106201118D01*
X127987712Y-106278794D01*
X128174513Y-106318500D01*
X128365487Y-106318500D01*
X128552288Y-106278794D01*
X128726752Y-106201118D01*
X128881253Y-106088866D01*
X128896986Y-106071393D01*
X129009034Y-105946951D01*
X129009035Y-105946949D01*
X129009040Y-105946944D01*
X129104527Y-105781556D01*
X129163542Y-105599928D01*
X129168449Y-105553232D01*
X129195460Y-105487575D01*
X129204655Y-105477313D01*
X130090315Y-104591655D01*
X130091278Y-104590215D01*
X130143836Y-104511556D01*
X130167853Y-104475613D01*
X130193580Y-104413500D01*
X130221261Y-104346674D01*
X130248488Y-104209793D01*
X130248488Y-97354500D01*
X130268490Y-97286379D01*
X130322146Y-97239886D01*
X130374488Y-97228500D01*
X135781777Y-97228500D01*
X135781782Y-97228500D01*
X135850221Y-97214886D01*
X135918662Y-97201273D01*
X135956427Y-97185630D01*
X136047601Y-97147865D01*
X136163643Y-97070328D01*
X136975328Y-96258643D01*
X137052865Y-96142601D01*
X137076474Y-96085601D01*
X137106273Y-96013662D01*
X137130446Y-95892135D01*
X137133500Y-95876782D01*
X137133500Y-95737219D01*
X137133500Y-94714500D01*
X137153502Y-94646379D01*
X137207158Y-94599886D01*
X137259500Y-94588500D01*
X140333122Y-94588500D01*
X140401243Y-94608502D01*
X140436335Y-94642229D01*
X140472023Y-94693197D01*
X140493802Y-94724300D01*
X140655700Y-94886198D01*
X140843251Y-95017523D01*
X140877488Y-95033488D01*
X140882457Y-95035805D01*
X140935742Y-95082722D01*
X140955203Y-95150999D01*
X140934661Y-95218959D01*
X140882457Y-95264195D01*
X140843250Y-95282477D01*
X140655703Y-95413799D01*
X140655697Y-95413804D01*
X140493804Y-95575697D01*
X140493799Y-95575703D01*
X140362477Y-95763250D01*
X140265717Y-95970753D01*
X140265715Y-95970759D01*
X140225819Y-96119653D01*
X140206457Y-96191913D01*
X140186502Y-96420000D01*
X140206457Y-96648087D01*
X140221899Y-96705716D01*
X140265715Y-96869240D01*
X140265717Y-96869246D01*
X140362477Y-97076749D01*
X140466253Y-97224957D01*
X140493802Y-97264300D01*
X140655700Y-97426198D01*
X140843251Y-97557523D01*
X140878359Y-97573894D01*
X140882457Y-97575805D01*
X140935742Y-97622722D01*
X140955203Y-97690999D01*
X140934661Y-97758959D01*
X140882457Y-97804195D01*
X140843250Y-97822477D01*
X140655703Y-97953799D01*
X140655697Y-97953804D01*
X140493804Y-98115697D01*
X140493799Y-98115703D01*
X140362477Y-98303250D01*
X140265717Y-98510753D01*
X140265715Y-98510759D01*
X140214411Y-98702229D01*
X140206457Y-98731913D01*
X140186502Y-98960000D01*
X140206457Y-99188087D01*
X140215400Y-99221461D01*
X140265715Y-99409240D01*
X140265717Y-99409246D01*
X140362477Y-99616749D01*
X140493799Y-99804296D01*
X140493804Y-99804302D01*
X140655697Y-99966195D01*
X140655706Y-99966203D01*
X140659001Y-99968510D01*
X140703329Y-100023968D01*
X140710637Y-100094587D01*
X140678605Y-100157947D01*
X140617403Y-100193931D01*
X140600197Y-100197000D01*
X140590803Y-100198009D01*
X140590795Y-100198011D01*
X140453797Y-100249110D01*
X140453792Y-100249112D01*
X140336738Y-100336738D01*
X140249112Y-100453792D01*
X140249110Y-100453797D01*
X140198011Y-100590795D01*
X140198009Y-100590803D01*
X140191500Y-100651350D01*
X140191500Y-102348649D01*
X140198009Y-102409196D01*
X140198011Y-102409204D01*
X140249110Y-102546202D01*
X140249112Y-102546207D01*
X140336738Y-102663261D01*
X140453792Y-102750887D01*
X140453794Y-102750888D01*
X140453796Y-102750889D01*
X140494310Y-102766000D01*
X140590795Y-102801988D01*
X140590803Y-102801990D01*
X140651350Y-102808499D01*
X140651355Y-102808499D01*
X140651362Y-102808500D01*
X140651368Y-102808500D01*
X142348632Y-102808500D01*
X142348638Y-102808500D01*
X142348645Y-102808499D01*
X142348649Y-102808499D01*
X142409196Y-102801990D01*
X142409199Y-102801989D01*
X142409201Y-102801989D01*
X142546204Y-102750889D01*
X142549484Y-102748434D01*
X142663261Y-102663261D01*
X142750887Y-102546207D01*
X142750887Y-102546206D01*
X142750889Y-102546204D01*
X142799403Y-102416134D01*
X142801988Y-102409204D01*
X142801990Y-102409196D01*
X142808499Y-102348649D01*
X142808500Y-102348632D01*
X142808500Y-100651367D01*
X142808499Y-100651350D01*
X142801990Y-100590803D01*
X142801988Y-100590795D01*
X142766033Y-100494399D01*
X142750889Y-100453796D01*
X142750888Y-100453794D01*
X142750887Y-100453792D01*
X142663261Y-100336738D01*
X142546207Y-100249112D01*
X142546202Y-100249110D01*
X142409204Y-100198011D01*
X142409196Y-100198009D01*
X142399802Y-100197000D01*
X142334210Y-100169832D01*
X142293718Y-100111514D01*
X142291184Y-100040563D01*
X142327410Y-99979504D01*
X142341004Y-99968506D01*
X142341278Y-99968313D01*
X142344300Y-99966198D01*
X142506198Y-99804300D01*
X142637523Y-99616749D01*
X142734284Y-99409243D01*
X142793543Y-99188087D01*
X142813498Y-98960000D01*
X142793543Y-98731913D01*
X142734284Y-98510757D01*
X142637523Y-98303251D01*
X142506198Y-98115700D01*
X142344300Y-97953802D01*
X142342963Y-97952866D01*
X142281998Y-97910177D01*
X142156749Y-97822477D01*
X142117543Y-97804195D01*
X142064258Y-97757279D01*
X142044796Y-97689002D01*
X142065337Y-97621042D01*
X142117543Y-97575805D01*
X142119997Y-97574660D01*
X142156749Y-97557523D01*
X142344300Y-97426198D01*
X142506198Y-97264300D01*
X142616181Y-97107229D01*
X142671638Y-97062901D01*
X142719394Y-97053500D01*
X143037393Y-97053500D01*
X143037394Y-97053500D01*
X143159785Y-97029155D01*
X143275075Y-96981400D01*
X143378833Y-96912071D01*
X144002071Y-96288833D01*
X144071400Y-96185075D01*
X144119155Y-96069785D01*
X144143500Y-95947394D01*
X144143500Y-95822606D01*
X144143500Y-92647606D01*
X144119155Y-92525215D01*
X144071400Y-92409925D01*
X144002071Y-92306167D01*
X143913833Y-92217929D01*
X143810075Y-92148600D01*
X143694785Y-92100845D01*
X143620908Y-92086150D01*
X143572396Y-92076500D01*
X143572394Y-92076500D01*
X142798115Y-92076500D01*
X142729994Y-92056498D01*
X142683501Y-92002842D01*
X142673397Y-91932568D01*
X142683920Y-91897251D01*
X142710053Y-91841206D01*
X142734284Y-91789243D01*
X142793543Y-91568087D01*
X142813498Y-91340000D01*
X142793543Y-91111913D01*
X142734284Y-90890757D01*
X142637523Y-90683251D01*
X142506198Y-90495700D01*
X142344300Y-90333802D01*
X142329177Y-90323213D01*
X142156749Y-90202477D01*
X142116951Y-90183919D01*
X142063666Y-90137002D01*
X142044205Y-90068725D01*
X142064747Y-90000765D01*
X142116951Y-89955529D01*
X142156498Y-89937087D01*
X142343974Y-89805815D01*
X142343980Y-89805810D01*
X142505810Y-89643980D01*
X142505815Y-89643974D01*
X142637087Y-89456498D01*
X142733811Y-89249073D01*
X142733813Y-89249068D01*
X142786082Y-89054000D01*
X141811686Y-89054000D01*
X141820080Y-89045606D01*
X141872741Y-88954394D01*
X141900000Y-88852661D01*
X141900000Y-88747339D01*
X141872741Y-88645606D01*
X141820080Y-88554394D01*
X141811686Y-88546000D01*
X142786082Y-88546000D01*
X142733813Y-88350931D01*
X142733811Y-88350926D01*
X142637087Y-88143501D01*
X142505815Y-87956025D01*
X142505810Y-87956019D01*
X142343980Y-87794189D01*
X142343974Y-87794184D01*
X142156498Y-87662912D01*
X142116359Y-87644195D01*
X142063074Y-87597278D01*
X142043613Y-87529001D01*
X142064155Y-87461041D01*
X142116359Y-87415805D01*
X142156498Y-87397087D01*
X142343974Y-87265815D01*
X142343980Y-87265810D01*
X142505810Y-87103980D01*
X142505815Y-87103974D01*
X142637087Y-86916498D01*
X142733811Y-86709073D01*
X142733813Y-86709068D01*
X142786082Y-86514000D01*
X141811686Y-86514000D01*
X141820080Y-86505606D01*
X141872741Y-86414394D01*
X141900000Y-86312661D01*
X141900000Y-86207339D01*
X141872741Y-86105606D01*
X141820080Y-86014394D01*
X141811686Y-86006000D01*
X142786082Y-86006000D01*
X142733813Y-85810931D01*
X142733811Y-85810926D01*
X142637087Y-85603501D01*
X142505815Y-85416025D01*
X142505810Y-85416019D01*
X142343980Y-85254189D01*
X142343974Y-85254184D01*
X142156497Y-85122911D01*
X142116949Y-85104469D01*
X142063665Y-85057551D01*
X142044205Y-84989273D01*
X142064748Y-84921314D01*
X142116950Y-84876081D01*
X142156749Y-84857523D01*
X142344300Y-84726198D01*
X142506198Y-84564300D01*
X142637523Y-84376749D01*
X142734284Y-84169243D01*
X142793543Y-83948087D01*
X142813498Y-83720000D01*
X142793543Y-83491913D01*
X142734284Y-83270757D01*
X142637523Y-83063251D01*
X142506198Y-82875700D01*
X142344300Y-82713802D01*
X142203933Y-82615516D01*
X142156749Y-82582477D01*
X141949246Y-82485717D01*
X141949240Y-82485715D01*
X141812225Y-82449002D01*
X141728087Y-82426457D01*
X141500000Y-82406502D01*
X141271913Y-82426457D01*
X141050759Y-82485715D01*
X141050753Y-82485717D01*
X140843250Y-82582477D01*
X140655703Y-82713799D01*
X140655697Y-82713804D01*
X140493804Y-82875697D01*
X140493799Y-82875703D01*
X140362477Y-83063250D01*
X140265717Y-83270753D01*
X140265715Y-83270759D01*
X140219948Y-83441565D01*
X140206457Y-83491913D01*
X140186502Y-83720000D01*
X140206457Y-83948087D01*
X140224095Y-84013912D01*
X140265715Y-84169240D01*
X140265717Y-84169246D01*
X140297950Y-84238370D01*
X140362477Y-84376749D01*
X140493802Y-84564300D01*
X140655700Y-84726198D01*
X140843251Y-84857523D01*
X140883045Y-84876079D01*
X140883047Y-84876080D01*
X140936332Y-84922996D01*
X140955794Y-84991273D01*
X140935253Y-85059233D01*
X140883051Y-85104468D01*
X140843504Y-85122910D01*
X140656025Y-85254184D01*
X140656019Y-85254189D01*
X140494189Y-85416019D01*
X140494184Y-85416025D01*
X140362912Y-85603501D01*
X140266188Y-85810926D01*
X140266186Y-85810931D01*
X140213917Y-86006000D01*
X141188314Y-86006000D01*
X141179920Y-86014394D01*
X141127259Y-86105606D01*
X141100000Y-86207339D01*
X141100000Y-86312661D01*
X141127259Y-86414394D01*
X141179920Y-86505606D01*
X141188314Y-86514000D01*
X140213918Y-86514000D01*
X140266186Y-86709068D01*
X140266188Y-86709073D01*
X140362912Y-86916498D01*
X140494184Y-87103974D01*
X140494189Y-87103980D01*
X140656019Y-87265810D01*
X140656025Y-87265815D01*
X140843503Y-87397089D01*
X140883641Y-87415806D01*
X140936925Y-87462723D01*
X140956386Y-87531000D01*
X140935844Y-87598960D01*
X140883641Y-87644194D01*
X140843503Y-87662910D01*
X140656025Y-87794184D01*
X140656019Y-87794189D01*
X140494189Y-87956019D01*
X140494184Y-87956025D01*
X140362912Y-88143501D01*
X140266188Y-88350926D01*
X140266186Y-88350931D01*
X140213917Y-88546000D01*
X141188314Y-88546000D01*
X141179920Y-88554394D01*
X141127259Y-88645606D01*
X141100000Y-88747339D01*
X141100000Y-88852661D01*
X141127259Y-88954394D01*
X141179920Y-89045606D01*
X141188314Y-89054000D01*
X140213918Y-89054000D01*
X140266186Y-89249068D01*
X140266188Y-89249073D01*
X140362912Y-89456498D01*
X140494184Y-89643974D01*
X140494189Y-89643980D01*
X140656019Y-89805810D01*
X140656025Y-89805815D01*
X140843503Y-89937089D01*
X140883049Y-89955530D01*
X140936334Y-90002447D01*
X140955794Y-90070724D01*
X140935252Y-90138684D01*
X140883049Y-90183918D01*
X140843252Y-90202475D01*
X140655703Y-90333799D01*
X140655697Y-90333804D01*
X140493804Y-90495697D01*
X140493799Y-90495703D01*
X140362477Y-90683250D01*
X140265717Y-90890753D01*
X140265715Y-90890759D01*
X140210690Y-91096117D01*
X140206457Y-91111913D01*
X140186502Y-91340000D01*
X140206457Y-91568087D01*
X140223412Y-91631362D01*
X140265715Y-91789240D01*
X140265719Y-91789250D01*
X140316080Y-91897251D01*
X140326741Y-91967442D01*
X140297761Y-92032255D01*
X140238341Y-92071111D01*
X140201885Y-92076500D01*
X136839594Y-92076500D01*
X136771473Y-92056498D01*
X136750499Y-92039595D01*
X135523835Y-90812931D01*
X135523833Y-90812929D01*
X135420075Y-90743600D01*
X135304785Y-90695845D01*
X135231086Y-90681185D01*
X135182396Y-90671500D01*
X135182394Y-90671500D01*
X131088038Y-90671500D01*
X131019917Y-90651498D01*
X130973424Y-90597842D01*
X130962760Y-90532032D01*
X130968499Y-90478649D01*
X130968500Y-90478632D01*
X130968500Y-90131367D01*
X130968499Y-90131350D01*
X130961739Y-90068468D01*
X130961739Y-90041532D01*
X130968499Y-89978649D01*
X130968500Y-89978632D01*
X130968500Y-89631367D01*
X130968499Y-89631350D01*
X130961739Y-89568468D01*
X130961739Y-89541532D01*
X130968499Y-89478649D01*
X130968500Y-89478632D01*
X130968500Y-89131367D01*
X130968499Y-89131352D01*
X130966902Y-89116502D01*
X130961989Y-89070799D01*
X130961988Y-89070797D01*
X130961485Y-89066114D01*
X130961485Y-89039173D01*
X130967999Y-88978592D01*
X130968000Y-88978585D01*
X130968000Y-88879500D01*
X130988002Y-88811379D01*
X131041658Y-88764886D01*
X131094000Y-88753500D01*
X133308632Y-88753500D01*
X133308638Y-88753500D01*
X133308645Y-88753499D01*
X133308649Y-88753499D01*
X133369196Y-88746990D01*
X133369199Y-88746989D01*
X133369201Y-88746989D01*
X133378285Y-88743601D01*
X133388045Y-88739960D01*
X133506204Y-88695889D01*
X133506262Y-88695846D01*
X133623261Y-88608261D01*
X133710887Y-88491207D01*
X133710887Y-88491206D01*
X133710889Y-88491204D01*
X133756879Y-88367901D01*
X133761988Y-88354204D01*
X133761990Y-88354196D01*
X133768499Y-88293649D01*
X133768500Y-88293632D01*
X133768500Y-86446367D01*
X133768499Y-86446350D01*
X133761990Y-86385803D01*
X133761988Y-86385795D01*
X133710889Y-86248797D01*
X133710887Y-86248792D01*
X133623261Y-86131738D01*
X133506207Y-86044112D01*
X133506202Y-86044110D01*
X133369204Y-85993011D01*
X133369196Y-85993009D01*
X133308649Y-85986500D01*
X133308638Y-85986500D01*
X130411362Y-85986500D01*
X130411350Y-85986500D01*
X130350803Y-85993009D01*
X130350795Y-85993011D01*
X130213797Y-86044110D01*
X130213792Y-86044112D01*
X130096738Y-86131738D01*
X130009112Y-86248792D01*
X130009110Y-86248797D01*
X129958011Y-86385795D01*
X129958009Y-86385803D01*
X129951500Y-86446350D01*
X129951500Y-88046000D01*
X129931498Y-88114121D01*
X129877842Y-88160614D01*
X129825500Y-88172000D01*
X129711402Y-88172000D01*
X129650906Y-88178505D01*
X129514035Y-88229555D01*
X129514034Y-88229555D01*
X129397095Y-88317095D01*
X129309555Y-88434034D01*
X129309555Y-88434035D01*
X129258506Y-88570903D01*
X129257663Y-88574473D01*
X129256248Y-88576957D01*
X129255751Y-88578291D01*
X129255534Y-88578210D01*
X129222532Y-88636169D01*
X129159624Y-88669078D01*
X129135039Y-88671500D01*
X128437603Y-88671500D01*
X128370898Y-88684769D01*
X128315215Y-88695845D01*
X128315213Y-88695845D01*
X128315212Y-88695846D01*
X128199923Y-88743601D01*
X128107637Y-88805265D01*
X128039884Y-88826480D01*
X128037635Y-88826500D01*
X125660216Y-88826500D01*
X125523332Y-88853728D01*
X125519347Y-88854937D01*
X125448353Y-88855560D01*
X125388292Y-88817703D01*
X125358233Y-88753383D01*
X125357478Y-88747525D01*
X125357458Y-88747339D01*
X125353542Y-88710072D01*
X125294527Y-88528444D01*
X125199040Y-88363056D01*
X125199038Y-88363054D01*
X125199034Y-88363048D01*
X125071255Y-88221135D01*
X124916752Y-88108882D01*
X124742288Y-88031206D01*
X124555487Y-87991500D01*
X124364513Y-87991500D01*
X124177711Y-88031206D01*
X124003247Y-88108882D01*
X123848744Y-88221135D01*
X123720965Y-88363048D01*
X123720958Y-88363058D01*
X123625476Y-88528438D01*
X123625473Y-88528445D01*
X123566459Y-88710067D01*
X123566458Y-88710069D01*
X123566458Y-88710072D01*
X123554817Y-88820829D01*
X123553245Y-88835785D01*
X123526231Y-88901442D01*
X123517031Y-88911709D01*
X122954143Y-89474596D01*
X122891833Y-89508620D01*
X122865050Y-89511500D01*
X122758010Y-89511500D01*
X122689889Y-89491498D01*
X122643396Y-89437842D01*
X122633292Y-89367568D01*
X122649555Y-89321363D01*
X122651173Y-89318626D01*
X122654145Y-89313601D01*
X122700562Y-89153831D01*
X122703499Y-89116511D01*
X122703500Y-89116511D01*
X122703500Y-88683489D01*
X122703499Y-88683488D01*
X122702555Y-88671500D01*
X122700562Y-88646169D01*
X122654145Y-88486399D01*
X122654143Y-88486397D01*
X122654143Y-88486394D01*
X122569455Y-88343196D01*
X122568385Y-88341816D01*
X122567882Y-88340536D01*
X122565418Y-88336369D01*
X122566090Y-88335971D01*
X122542437Y-88275732D01*
X122556336Y-88206109D01*
X122568390Y-88187353D01*
X122569056Y-88186493D01*
X122653681Y-88043401D01*
X122699993Y-87884000D01*
X121092000Y-87884000D01*
X121023879Y-87863998D01*
X120977386Y-87810342D01*
X120966000Y-87758000D01*
X120966000Y-87376000D01*
X121474000Y-87376000D01*
X122699992Y-87376000D01*
X122653681Y-87216598D01*
X122569051Y-87073498D01*
X122569050Y-87073496D01*
X122451503Y-86955949D01*
X122451501Y-86955948D01*
X122308401Y-86871318D01*
X122148748Y-86824934D01*
X122148750Y-86824934D01*
X122111456Y-86822000D01*
X121474000Y-86822000D01*
X121474000Y-87376000D01*
X120966000Y-87376000D01*
X120966000Y-86822000D01*
X120328544Y-86822000D01*
X120291249Y-86824934D01*
X120199653Y-86851546D01*
X120128656Y-86851343D01*
X120069040Y-86812789D01*
X120039732Y-86748124D01*
X120038500Y-86730549D01*
X120038500Y-86115834D01*
X120058502Y-86047713D01*
X120112158Y-86001220D01*
X120138298Y-85992588D01*
X120297288Y-85958794D01*
X120471752Y-85881118D01*
X120626253Y-85768866D01*
X120638046Y-85755769D01*
X120754034Y-85626951D01*
X120754035Y-85626949D01*
X120754040Y-85626944D01*
X120849527Y-85461556D01*
X120908542Y-85279928D01*
X120928504Y-85090000D01*
X120908542Y-84900072D01*
X120849527Y-84718444D01*
X120754040Y-84553056D01*
X120754038Y-84553054D01*
X120754034Y-84553048D01*
X120626255Y-84411135D01*
X120471752Y-84298882D01*
X120297288Y-84221206D01*
X120110487Y-84181500D01*
X119919513Y-84181500D01*
X119732711Y-84221206D01*
X119558247Y-84298882D01*
X119403744Y-84411135D01*
X119275965Y-84553048D01*
X119275958Y-84553058D01*
X119180476Y-84718438D01*
X119180473Y-84718445D01*
X119129254Y-84876080D01*
X119121458Y-84900072D01*
X119111872Y-84991273D01*
X119108245Y-85025784D01*
X119081231Y-85091441D01*
X119072030Y-85101708D01*
X119064579Y-85109159D01*
X119002267Y-85143185D01*
X118931452Y-85138120D01*
X118874616Y-85095573D01*
X118866365Y-85083064D01*
X118849041Y-85053058D01*
X118849034Y-85053048D01*
X118721255Y-84911135D01*
X118566752Y-84798882D01*
X118392288Y-84721206D01*
X118205487Y-84681500D01*
X118014513Y-84681500D01*
X117827711Y-84721206D01*
X117653247Y-84798882D01*
X117498744Y-84911135D01*
X117370965Y-85053048D01*
X117370958Y-85053058D01*
X117275476Y-85218438D01*
X117275473Y-85218445D01*
X117216457Y-85400072D01*
X117196496Y-85590000D01*
X117216457Y-85779927D01*
X117242475Y-85860000D01*
X117275473Y-85961556D01*
X117293389Y-85992587D01*
X117370961Y-86126946D01*
X117419135Y-86180447D01*
X117449853Y-86244454D01*
X117451500Y-86264759D01*
X117451500Y-86730029D01*
X117431498Y-86798150D01*
X117377842Y-86844643D01*
X117307568Y-86854747D01*
X117290352Y-86851027D01*
X117244707Y-86837766D01*
X117198829Y-86824437D01*
X117161511Y-86821500D01*
X117161502Y-86821500D01*
X116879500Y-86821500D01*
X116811379Y-86801498D01*
X116764886Y-86747842D01*
X116753500Y-86695500D01*
X116753500Y-83560660D01*
X116773502Y-83492539D01*
X116790405Y-83471565D01*
X116901566Y-83360404D01*
X116963878Y-83326378D01*
X116990661Y-83323499D01*
X117645544Y-83323499D01*
X117749426Y-83312887D01*
X117917738Y-83257115D01*
X118068652Y-83164030D01*
X118194030Y-83038652D01*
X118287115Y-82887738D01*
X118342887Y-82719426D01*
X118353500Y-82615545D01*
X118353500Y-82615516D01*
X119137000Y-82615516D01*
X119147605Y-82719318D01*
X119147606Y-82719321D01*
X119203342Y-82887525D01*
X119296365Y-83038339D01*
X119296370Y-83038345D01*
X119421654Y-83163629D01*
X119421660Y-83163634D01*
X119572474Y-83256657D01*
X119740678Y-83312393D01*
X119740681Y-83312394D01*
X119844483Y-83322999D01*
X119844483Y-83323000D01*
X119966000Y-83323000D01*
X120474000Y-83323000D01*
X120595517Y-83323000D01*
X120595516Y-83322999D01*
X120699318Y-83312394D01*
X120699321Y-83312393D01*
X120867525Y-83256657D01*
X121018339Y-83163634D01*
X121018345Y-83163629D01*
X121143629Y-83038345D01*
X121143634Y-83038339D01*
X121236657Y-82887525D01*
X121292393Y-82719321D01*
X121292394Y-82719318D01*
X121302999Y-82615516D01*
X121303000Y-82615516D01*
X121303000Y-82169000D01*
X120474000Y-82169000D01*
X120474000Y-83323000D01*
X119966000Y-83323000D01*
X119966000Y-82169000D01*
X119137000Y-82169000D01*
X119137000Y-82615516D01*
X118353500Y-82615516D01*
X118353499Y-81214483D01*
X119137000Y-81214483D01*
X119137000Y-81661000D01*
X119966000Y-81661000D01*
X120474000Y-81661000D01*
X121303000Y-81661000D01*
X121303000Y-81214483D01*
X121292394Y-81110681D01*
X121292393Y-81110678D01*
X121236657Y-80942474D01*
X121143634Y-80791660D01*
X121143629Y-80791654D01*
X121018345Y-80666370D01*
X121018339Y-80666365D01*
X120867525Y-80573342D01*
X120699321Y-80517606D01*
X120699318Y-80517605D01*
X120595516Y-80507000D01*
X120474000Y-80507000D01*
X120474000Y-81661000D01*
X119966000Y-81661000D01*
X119966000Y-80507000D01*
X119844483Y-80507000D01*
X119740681Y-80517605D01*
X119740678Y-80517606D01*
X119572474Y-80573342D01*
X119421660Y-80666365D01*
X119421654Y-80666370D01*
X119296370Y-80791654D01*
X119296365Y-80791660D01*
X119203342Y-80942474D01*
X119147606Y-81110678D01*
X119147605Y-81110681D01*
X119137000Y-81214483D01*
X118353499Y-81214483D01*
X118353499Y-81214456D01*
X118342887Y-81110574D01*
X118287115Y-80942262D01*
X118194030Y-80791348D01*
X118194029Y-80791347D01*
X118194024Y-80791341D01*
X118177405Y-80774722D01*
X118143379Y-80712410D01*
X118140500Y-80685627D01*
X118140500Y-79566500D01*
X118160502Y-79498379D01*
X118214158Y-79451886D01*
X118266500Y-79440500D01*
X125979929Y-79440500D01*
X126048050Y-79460502D01*
X126094543Y-79514158D01*
X126105239Y-79553332D01*
X126106457Y-79564926D01*
X126110468Y-79577270D01*
X126165473Y-79746556D01*
X126165476Y-79746561D01*
X126260958Y-79911941D01*
X126260965Y-79911951D01*
X126388744Y-80053864D01*
X126388747Y-80053866D01*
X126543248Y-80166118D01*
X126717712Y-80243794D01*
X126904513Y-80283500D01*
X127095487Y-80283500D01*
X127282288Y-80243794D01*
X127456752Y-80166118D01*
X127611253Y-80053866D01*
X127670252Y-79988341D01*
X127739034Y-79911951D01*
X127739035Y-79911949D01*
X127739040Y-79911944D01*
X127834527Y-79746556D01*
X127893542Y-79564928D01*
X127913504Y-79375000D01*
X127893542Y-79185072D01*
X127834527Y-79003444D01*
X127739040Y-78838056D01*
X127739038Y-78838054D01*
X127739034Y-78838048D01*
X127650751Y-78740000D01*
X135161844Y-78740000D01*
X135169969Y-78838058D01*
X135180437Y-78964375D01*
X135235702Y-79182612D01*
X135235703Y-79182613D01*
X135235704Y-79182616D01*
X135258256Y-79234029D01*
X135326141Y-79388793D01*
X135449275Y-79577265D01*
X135449279Y-79577270D01*
X135601762Y-79742908D01*
X135646234Y-79777522D01*
X135779424Y-79881189D01*
X135977426Y-79988342D01*
X135977427Y-79988342D01*
X135977428Y-79988343D01*
X136081862Y-80024195D01*
X136190365Y-80061444D01*
X136412431Y-80098500D01*
X136412435Y-80098500D01*
X136637565Y-80098500D01*
X136637569Y-80098500D01*
X136859635Y-80061444D01*
X137072574Y-79988342D01*
X137270576Y-79881189D01*
X137448240Y-79742906D01*
X137600722Y-79577268D01*
X137723860Y-79388791D01*
X137814296Y-79182616D01*
X137869564Y-78964368D01*
X137888156Y-78740000D01*
X137869564Y-78515632D01*
X137814296Y-78297384D01*
X137723860Y-78091209D01*
X137717140Y-78080924D01*
X137600724Y-77902734D01*
X137600719Y-77902729D01*
X137457524Y-77747179D01*
X137426103Y-77683514D01*
X137434090Y-77612968D01*
X137478948Y-77557939D01*
X137506183Y-77543789D01*
X137621204Y-77500889D01*
X137738261Y-77413261D01*
X137821010Y-77302722D01*
X137825887Y-77296207D01*
X137825887Y-77296206D01*
X137825889Y-77296204D01*
X137876989Y-77159201D01*
X137883500Y-77098638D01*
X137883500Y-75301362D01*
X137883499Y-75301350D01*
X137876990Y-75240803D01*
X137876988Y-75240795D01*
X137825889Y-75103797D01*
X137825887Y-75103792D01*
X137738261Y-74986738D01*
X137621207Y-74899112D01*
X137621202Y-74899110D01*
X137484204Y-74848011D01*
X137484196Y-74848009D01*
X137423649Y-74841500D01*
X137423638Y-74841500D01*
X135626362Y-74841500D01*
X135626350Y-74841500D01*
X135565803Y-74848009D01*
X135565795Y-74848011D01*
X135428797Y-74899110D01*
X135428792Y-74899112D01*
X135311738Y-74986738D01*
X135224112Y-75103792D01*
X135224110Y-75103797D01*
X135173011Y-75240795D01*
X135173009Y-75240803D01*
X135166500Y-75301350D01*
X135166500Y-77098649D01*
X135173009Y-77159196D01*
X135173011Y-77159204D01*
X135224110Y-77296202D01*
X135224112Y-77296207D01*
X135311738Y-77413261D01*
X135428791Y-77500886D01*
X135428792Y-77500886D01*
X135428796Y-77500889D01*
X135543810Y-77543787D01*
X135600642Y-77586332D01*
X135625453Y-77652852D01*
X135610362Y-77722226D01*
X135592475Y-77747179D01*
X135449280Y-77902729D01*
X135449275Y-77902734D01*
X135326141Y-78091206D01*
X135235703Y-78297386D01*
X135235702Y-78297387D01*
X135180437Y-78515624D01*
X135180436Y-78515630D01*
X135180436Y-78515632D01*
X135161844Y-78740000D01*
X127650751Y-78740000D01*
X127611255Y-78696135D01*
X127456752Y-78583882D01*
X127282288Y-78506206D01*
X127129432Y-78473715D01*
X127066958Y-78439986D01*
X127066745Y-78439774D01*
X126808643Y-78181672D01*
X126692601Y-78104135D01*
X126582975Y-78058727D01*
X126582974Y-78058726D01*
X126563669Y-78050729D01*
X126563663Y-78050727D01*
X126563662Y-78050727D01*
X126495221Y-78037113D01*
X126495220Y-78037112D01*
X126426787Y-78023500D01*
X126426782Y-78023500D01*
X126426781Y-78023500D01*
X116901781Y-78023500D01*
X110567781Y-78023500D01*
X108211380Y-78023500D01*
X108143259Y-78003498D01*
X108096766Y-77949842D01*
X108086032Y-77910305D01*
X108077887Y-77830574D01*
X108046911Y-77737094D01*
X108022115Y-77662262D01*
X107929030Y-77511348D01*
X107929029Y-77511347D01*
X107929024Y-77511341D01*
X107803658Y-77385975D01*
X107803652Y-77385970D01*
X107779380Y-77370999D01*
X107652738Y-77292885D01*
X107540836Y-77255805D01*
X107484427Y-77237113D01*
X107484420Y-77237112D01*
X107380553Y-77226500D01*
X105979455Y-77226500D01*
X105875574Y-77237112D01*
X105707261Y-77292885D01*
X105556347Y-77385970D01*
X105556341Y-77385975D01*
X105430975Y-77511341D01*
X105430970Y-77511347D01*
X105337885Y-77662262D01*
X105282113Y-77830572D01*
X105282112Y-77830579D01*
X105271500Y-77934446D01*
X105271500Y-78685544D01*
X105282112Y-78789425D01*
X105337885Y-78957738D01*
X105430970Y-79108652D01*
X105430975Y-79108658D01*
X105556341Y-79234024D01*
X105556347Y-79234029D01*
X105556348Y-79234030D01*
X105707262Y-79327115D01*
X105875574Y-79382887D01*
X105979455Y-79393500D01*
X106897535Y-79393499D01*
X106945753Y-79403090D01*
X106970336Y-79413272D01*
X106970338Y-79413273D01*
X107038778Y-79426886D01*
X107107218Y-79440500D01*
X107107219Y-79440500D01*
X109185079Y-79440500D01*
X109253200Y-79460502D01*
X109299693Y-79514158D01*
X109309797Y-79584432D01*
X109292320Y-79632646D01*
X109267885Y-79672260D01*
X109212113Y-79840572D01*
X109212112Y-79840579D01*
X109201500Y-79944446D01*
X109201500Y-81345544D01*
X109212112Y-81449425D01*
X109212113Y-81449427D01*
X109267885Y-81617738D01*
X109267886Y-81617739D01*
X109274182Y-81627947D01*
X109292918Y-81696426D01*
X109271658Y-81764165D01*
X109217150Y-81809656D01*
X109146701Y-81818456D01*
X109092879Y-81796028D01*
X109041752Y-81758882D01*
X108867288Y-81681206D01*
X108680487Y-81641500D01*
X108489513Y-81641500D01*
X108302711Y-81681206D01*
X108128247Y-81758882D01*
X107973744Y-81871135D01*
X107845965Y-82013048D01*
X107845958Y-82013058D01*
X107750476Y-82178438D01*
X107750472Y-82178445D01*
X107706091Y-82315034D01*
X107666017Y-82373640D01*
X107600620Y-82401276D01*
X107530663Y-82389169D01*
X107497165Y-82365194D01*
X107063724Y-81931753D01*
X107023088Y-81904601D01*
X106947682Y-81854216D01*
X106835777Y-81807864D01*
X106835776Y-81807863D01*
X106818750Y-81800810D01*
X106818744Y-81800808D01*
X106818743Y-81800808D01*
X106750302Y-81787194D01*
X106750301Y-81787193D01*
X106681868Y-81773581D01*
X106681863Y-81773581D01*
X106681862Y-81773581D01*
X100953742Y-81773581D01*
X100885621Y-81753579D01*
X100864646Y-81736676D01*
X100440404Y-81312433D01*
X100406379Y-81250121D01*
X100403500Y-81223338D01*
X100403500Y-79971644D01*
X100423502Y-79903523D01*
X100452109Y-79872213D01*
X100618234Y-79742911D01*
X100618237Y-79742908D01*
X100618240Y-79742906D01*
X100770722Y-79577268D01*
X100893860Y-79388791D01*
X100984296Y-79182616D01*
X101039564Y-78964368D01*
X101058156Y-78740000D01*
X101039564Y-78515632D01*
X100984296Y-78297384D01*
X100893860Y-78091209D01*
X100887140Y-78080924D01*
X100770724Y-77902734D01*
X100770719Y-77902729D01*
X100627524Y-77747179D01*
X100596103Y-77683514D01*
X100604090Y-77612968D01*
X100648948Y-77557939D01*
X100676183Y-77543789D01*
X100791204Y-77500889D01*
X100908261Y-77413261D01*
X100991010Y-77302722D01*
X100995887Y-77296207D01*
X100995887Y-77296206D01*
X100995889Y-77296204D01*
X101046989Y-77159201D01*
X101053500Y-77098638D01*
X101053500Y-75735516D01*
X105272000Y-75735516D01*
X105282605Y-75839318D01*
X105282606Y-75839321D01*
X105338342Y-76007525D01*
X105431365Y-76158339D01*
X105431370Y-76158345D01*
X105556654Y-76283629D01*
X105556660Y-76283634D01*
X105707474Y-76376657D01*
X105875678Y-76432393D01*
X105875681Y-76432394D01*
X105979483Y-76442999D01*
X105979483Y-76443000D01*
X106426000Y-76443000D01*
X106934000Y-76443000D01*
X107380517Y-76443000D01*
X107380516Y-76442999D01*
X107484318Y-76432394D01*
X107484321Y-76432393D01*
X107652525Y-76376657D01*
X107803339Y-76283634D01*
X107803345Y-76283629D01*
X107928629Y-76158345D01*
X107928634Y-76158339D01*
X108021657Y-76007525D01*
X108077393Y-75839321D01*
X108077394Y-75839318D01*
X108087999Y-75735516D01*
X108088000Y-75735516D01*
X108088000Y-75614000D01*
X106934000Y-75614000D01*
X106934000Y-76443000D01*
X106426000Y-76443000D01*
X106426000Y-75614000D01*
X105272000Y-75614000D01*
X105272000Y-75735516D01*
X101053500Y-75735516D01*
X101053500Y-75301362D01*
X101053499Y-75301350D01*
X101046990Y-75240803D01*
X101046988Y-75240795D01*
X100995889Y-75103797D01*
X100995887Y-75103792D01*
X100908261Y-74986738D01*
X100905249Y-74984483D01*
X105272000Y-74984483D01*
X105272000Y-75106000D01*
X106426000Y-75106000D01*
X106934000Y-75106000D01*
X108088000Y-75106000D01*
X108088000Y-74984483D01*
X108077394Y-74880681D01*
X108077393Y-74880678D01*
X108021657Y-74712474D01*
X107928634Y-74561660D01*
X107928629Y-74561654D01*
X107803345Y-74436370D01*
X107803339Y-74436365D01*
X107652525Y-74343342D01*
X107484321Y-74287606D01*
X107484318Y-74287605D01*
X107380516Y-74277000D01*
X106934000Y-74277000D01*
X106934000Y-75106000D01*
X106426000Y-75106000D01*
X106426000Y-74277000D01*
X105979483Y-74277000D01*
X105875681Y-74287605D01*
X105875678Y-74287606D01*
X105707474Y-74343342D01*
X105556660Y-74436365D01*
X105556654Y-74436370D01*
X105431370Y-74561654D01*
X105431365Y-74561660D01*
X105338342Y-74712474D01*
X105282606Y-74880678D01*
X105282605Y-74880681D01*
X105272000Y-74984483D01*
X100905249Y-74984483D01*
X100791207Y-74899112D01*
X100791202Y-74899110D01*
X100654204Y-74848011D01*
X100654196Y-74848009D01*
X100593649Y-74841500D01*
X100593638Y-74841500D01*
X98796362Y-74841500D01*
X98796350Y-74841500D01*
X98735803Y-74848009D01*
X98735795Y-74848011D01*
X98598797Y-74899110D01*
X98598792Y-74899112D01*
X98481738Y-74986738D01*
X98394112Y-75103792D01*
X98394110Y-75103797D01*
X98343011Y-75240795D01*
X98343009Y-75240803D01*
X98336500Y-75301350D01*
X98336500Y-75395796D01*
X98316498Y-75463917D01*
X98262842Y-75510410D01*
X98244113Y-75516458D01*
X98244257Y-75516932D01*
X98238334Y-75518728D01*
X98184930Y-75540848D01*
X98184930Y-75540849D01*
X98109400Y-75572135D01*
X98109398Y-75572136D01*
X97993362Y-75649669D01*
X97993360Y-75649670D01*
X97259671Y-76383357D01*
X97182134Y-76499400D01*
X97182133Y-76499401D01*
X97144369Y-76590573D01*
X97128726Y-76628339D01*
X97128725Y-76628342D01*
X97101500Y-76765213D01*
X97101500Y-88643784D01*
X97108309Y-88678013D01*
X97111865Y-88695889D01*
X97128727Y-88780662D01*
X97128728Y-88780666D01*
X97128730Y-88780671D01*
X97132642Y-88790114D01*
X97132643Y-88790115D01*
X97182135Y-88909601D01*
X97190881Y-88922690D01*
X97259671Y-89025642D01*
X97259676Y-89025648D01*
X97930351Y-89696323D01*
X97930357Y-89696328D01*
X98046399Y-89773865D01*
X98137572Y-89811630D01*
X98175338Y-89827273D01*
X98214562Y-89835075D01*
X98312218Y-89854500D01*
X98312219Y-89854500D01*
X99482699Y-89854500D01*
X99550820Y-89874502D01*
X99597313Y-89928158D01*
X99607417Y-89998432D01*
X99602532Y-90019437D01*
X99571457Y-90115072D01*
X99551496Y-90305000D01*
X99571457Y-90494927D01*
X99596110Y-90570799D01*
X99630473Y-90676556D01*
X99630476Y-90676561D01*
X99725958Y-90841941D01*
X99725965Y-90841951D01*
X99853744Y-90983864D01*
X99853747Y-90983866D01*
X100008248Y-91096118D01*
X100182712Y-91173794D01*
X100369513Y-91213500D01*
X100560487Y-91213500D01*
X100747288Y-91173794D01*
X100921752Y-91096118D01*
X101076253Y-90983866D01*
X101076255Y-90983864D01*
X101102074Y-90955190D01*
X101162520Y-90917950D01*
X101195710Y-90913500D01*
X105416822Y-90913500D01*
X105484943Y-90933502D01*
X105531436Y-90987158D01*
X105542101Y-91026037D01*
X105543514Y-91039186D01*
X105543513Y-91066116D01*
X105536501Y-91131347D01*
X105536500Y-91131367D01*
X105536500Y-91478649D01*
X105543261Y-91541532D01*
X105543261Y-91568468D01*
X105536500Y-91631350D01*
X105536500Y-91978649D01*
X105543261Y-92041532D01*
X105543261Y-92068468D01*
X105536500Y-92131350D01*
X105536500Y-92478649D01*
X105543261Y-92541532D01*
X105543261Y-92568468D01*
X105536500Y-92631350D01*
X105536500Y-92978632D01*
X105536501Y-92978652D01*
X105543513Y-93043884D01*
X105543513Y-93070818D01*
X105537001Y-93131394D01*
X105537000Y-93131414D01*
X105537000Y-93230500D01*
X105516998Y-93298621D01*
X105463342Y-93345114D01*
X105411000Y-93356500D01*
X103764026Y-93356500D01*
X103695905Y-93336498D01*
X103649412Y-93282842D01*
X103639308Y-93212568D01*
X103654907Y-93167500D01*
X103675741Y-93131414D01*
X103704527Y-93081556D01*
X103763542Y-92899928D01*
X103783504Y-92710000D01*
X103763542Y-92520072D01*
X103704527Y-92338444D01*
X103609040Y-92173056D01*
X103609038Y-92173054D01*
X103609034Y-92173048D01*
X103481255Y-92031135D01*
X103326752Y-91918882D01*
X103152288Y-91841206D01*
X102965487Y-91801500D01*
X102774513Y-91801500D01*
X102587711Y-91841206D01*
X102413247Y-91918882D01*
X102258744Y-92031135D01*
X102130965Y-92173048D01*
X102130958Y-92173058D01*
X102035476Y-92338438D01*
X102035473Y-92338445D01*
X101976459Y-92520067D01*
X101976458Y-92520069D01*
X101976458Y-92520072D01*
X101972787Y-92555000D01*
X101971550Y-92566770D01*
X101944536Y-92632426D01*
X101935336Y-92642691D01*
X101895677Y-92682350D01*
X101895670Y-92682358D01*
X101818135Y-92798399D01*
X101783967Y-92880888D01*
X101764727Y-92927335D01*
X101762508Y-92938497D01*
X101762507Y-92938499D01*
X101754534Y-92978585D01*
X101741204Y-93045600D01*
X101737500Y-93064219D01*
X101737500Y-95680218D01*
X101737500Y-95819782D01*
X101737501Y-95819787D01*
X101741270Y-95838740D01*
X101741271Y-95838740D01*
X101764727Y-95956662D01*
X101773674Y-95978261D01*
X101818135Y-96085601D01*
X101818136Y-96085602D01*
X101889170Y-96191913D01*
X101895672Y-96201643D01*
X102403672Y-96709642D01*
X102502358Y-96808328D01*
X102525562Y-96823832D01*
X102525563Y-96823834D01*
X102581064Y-96860918D01*
X102618399Y-96885865D01*
X102618401Y-96885866D01*
X102618403Y-96885867D01*
X102658421Y-96902442D01*
X102658425Y-96902445D01*
X102658426Y-96902444D01*
X102747338Y-96939273D01*
X102884219Y-96966500D01*
X102884220Y-96966500D01*
X110821781Y-96966500D01*
X110821782Y-96966500D01*
X110943318Y-96942325D01*
X110958662Y-96939273D01*
X111024333Y-96912071D01*
X111087601Y-96885865D01*
X111203643Y-96808328D01*
X112016567Y-95995403D01*
X112078878Y-95961380D01*
X112105661Y-95958500D01*
X114711008Y-95958500D01*
X114779129Y-95978502D01*
X114825622Y-96032158D01*
X114835726Y-96102432D01*
X114832006Y-96119644D01*
X114812998Y-96185075D01*
X114789437Y-96266170D01*
X114789437Y-96266171D01*
X114786500Y-96303488D01*
X114786500Y-96736511D01*
X114789437Y-96773828D01*
X114789437Y-96773829D01*
X114835856Y-96933605D01*
X114920544Y-97076803D01*
X114920549Y-97076810D01*
X115038189Y-97194450D01*
X115038196Y-97194455D01*
X115181398Y-97279145D01*
X115181399Y-97279146D01*
X115245651Y-97297812D01*
X115305487Y-97336024D01*
X115335166Y-97400520D01*
X115336500Y-97418809D01*
X115336500Y-97661408D01*
X115316498Y-97729529D01*
X115262842Y-97776022D01*
X115210501Y-97787408D01*
X114961950Y-97787408D01*
X114858069Y-97798020D01*
X114689756Y-97853793D01*
X114538842Y-97946878D01*
X114538836Y-97946883D01*
X114413470Y-98072249D01*
X114413465Y-98072255D01*
X114320380Y-98223170D01*
X114264608Y-98391480D01*
X114264607Y-98391487D01*
X114253995Y-98495354D01*
X114253995Y-99221452D01*
X114264607Y-99325333D01*
X114320380Y-99493646D01*
X114413465Y-99644560D01*
X114413470Y-99644566D01*
X114538836Y-99769932D01*
X114538842Y-99769937D01*
X114538843Y-99769938D01*
X114689757Y-99863023D01*
X114858069Y-99918795D01*
X114961950Y-99929408D01*
X116313039Y-99929407D01*
X116416921Y-99918795D01*
X116585233Y-99863023D01*
X116716351Y-99782148D01*
X116784827Y-99763412D01*
X116848638Y-99782147D01*
X116979757Y-99863023D01*
X117148069Y-99918795D01*
X117251950Y-99929408D01*
X118603039Y-99929407D01*
X118706921Y-99918795D01*
X118875233Y-99863023D01*
X119026147Y-99769938D01*
X119151525Y-99644560D01*
X119244610Y-99493646D01*
X119300382Y-99325334D01*
X119310995Y-99221453D01*
X119310994Y-98495364D01*
X119300382Y-98391482D01*
X119244610Y-98223170D01*
X119151525Y-98072256D01*
X119151524Y-98072255D01*
X119151519Y-98072249D01*
X119026153Y-97946883D01*
X119026147Y-97946878D01*
X119014996Y-97940000D01*
X118875233Y-97853793D01*
X118780723Y-97822476D01*
X118706922Y-97798021D01*
X118706915Y-97798020D01*
X118603048Y-97787408D01*
X117251950Y-97787408D01*
X117148069Y-97798020D01*
X117022205Y-97839727D01*
X116979757Y-97853793D01*
X116979755Y-97853793D01*
X116979755Y-97853794D01*
X116945645Y-97874833D01*
X116877166Y-97893569D01*
X116809427Y-97872309D01*
X116763936Y-97817801D01*
X116753500Y-97767591D01*
X116753500Y-97454500D01*
X116773502Y-97386379D01*
X116827158Y-97339886D01*
X116879500Y-97328500D01*
X117161511Y-97328500D01*
X117161511Y-97328499D01*
X117198831Y-97325562D01*
X117358601Y-97279145D01*
X117414567Y-97246046D01*
X117478706Y-97228500D01*
X120011294Y-97228500D01*
X120075432Y-97246046D01*
X120131399Y-97279145D01*
X120291169Y-97325562D01*
X120328488Y-97328499D01*
X120328489Y-97328500D01*
X120328498Y-97328500D01*
X122111511Y-97328500D01*
X122111511Y-97328499D01*
X122148831Y-97325562D01*
X122308601Y-97279145D01*
X122364567Y-97246046D01*
X122428706Y-97228500D01*
X128705488Y-97228500D01*
X128773609Y-97248502D01*
X128820102Y-97302158D01*
X128831488Y-97354500D01*
X128831488Y-103794351D01*
X128811486Y-103862472D01*
X128794587Y-103883441D01*
X128492114Y-104185915D01*
X128203465Y-104474564D01*
X128141153Y-104508589D01*
X128140567Y-104508714D01*
X127987716Y-104541204D01*
X127975826Y-104546498D01*
X127944135Y-104560607D01*
X127892888Y-104571500D01*
X127151220Y-104571500D01*
X127083099Y-104551498D01*
X127043979Y-104511647D01*
X127042093Y-104508589D01*
X126979030Y-104406348D01*
X126979029Y-104406347D01*
X126979024Y-104406341D01*
X126853658Y-104280975D01*
X126853652Y-104280970D01*
X126830123Y-104266457D01*
X126702738Y-104187885D01*
X126702735Y-104187884D01*
X126699543Y-104185915D01*
X126652065Y-104133129D01*
X126640662Y-104063054D01*
X126668954Y-103997938D01*
X126727960Y-103958456D01*
X126783619Y-103953956D01*
X126850000Y-103963500D01*
X126850003Y-103963500D01*
X127421885Y-103963500D01*
X127421889Y-103963500D01*
X127566558Y-103942700D01*
X127704513Y-103902193D01*
X127837462Y-103841477D01*
X127952725Y-103767402D01*
X127954172Y-103766579D01*
X127958376Y-103763770D01*
X127958416Y-103763745D01*
X127958420Y-103763743D01*
X128068878Y-103668029D01*
X128163032Y-103559368D01*
X128242047Y-103436417D01*
X128298979Y-103311752D01*
X128301255Y-103307403D01*
X128301775Y-103305631D01*
X128301776Y-103305631D01*
X128342953Y-103165394D01*
X128363415Y-103023079D01*
X128363415Y-102966512D01*
X128363500Y-102966222D01*
X128363500Y-102434278D01*
X128363415Y-102433488D01*
X128363415Y-102376920D01*
X128363414Y-102376915D01*
X128344783Y-102247333D01*
X128343500Y-102229401D01*
X128343500Y-100314229D01*
X128363502Y-100246108D01*
X128370208Y-100237325D01*
X128370157Y-100237288D01*
X128374033Y-100231950D01*
X128374040Y-100231944D01*
X128469527Y-100066556D01*
X128528542Y-99884928D01*
X128548504Y-99695000D01*
X128528542Y-99505072D01*
X128469527Y-99323444D01*
X128374040Y-99158056D01*
X128374038Y-99158054D01*
X128374034Y-99158048D01*
X128246255Y-99016135D01*
X128091752Y-98903882D01*
X127917288Y-98826206D01*
X127730487Y-98786500D01*
X127539513Y-98786500D01*
X127352711Y-98826206D01*
X127178247Y-98903882D01*
X127023744Y-99016135D01*
X126895965Y-99158048D01*
X126895958Y-99158058D01*
X126800476Y-99323438D01*
X126800473Y-99323444D01*
X126799859Y-99325334D01*
X126741457Y-99505072D01*
X126721496Y-99695000D01*
X126741457Y-99884927D01*
X126761279Y-99945931D01*
X126800473Y-100066556D01*
X126800476Y-100066561D01*
X126895958Y-100231941D01*
X126899843Y-100237288D01*
X126898233Y-100238457D01*
X126924853Y-100293925D01*
X126926500Y-100314229D01*
X126926500Y-101313718D01*
X126906498Y-101381839D01*
X126852842Y-101428332D01*
X126809492Y-101439397D01*
X126786405Y-101441048D01*
X126776921Y-101441727D01*
X126776918Y-101441727D01*
X126776910Y-101441729D01*
X126740579Y-101452397D01*
X126687151Y-101456219D01*
X126550000Y-101436500D01*
X125978111Y-101436500D01*
X125881665Y-101450366D01*
X125833440Y-101457300D01*
X125833433Y-101457302D01*
X125695490Y-101497806D01*
X125695487Y-101497807D01*
X125562538Y-101558523D01*
X125562536Y-101558524D01*
X125562530Y-101558527D01*
X125447290Y-101632587D01*
X125445836Y-101633415D01*
X125441577Y-101636259D01*
X125331122Y-101731970D01*
X125236970Y-101840629D01*
X125157953Y-101963582D01*
X125157950Y-101963587D01*
X125101031Y-102088223D01*
X125098746Y-102092591D01*
X125057049Y-102234597D01*
X125057044Y-102234618D01*
X125036585Y-102376915D01*
X125036585Y-102433488D01*
X125036500Y-102433777D01*
X125036500Y-102659339D01*
X125016498Y-102727460D01*
X124999595Y-102748434D01*
X124985934Y-102762095D01*
X124923622Y-102796121D01*
X124896839Y-102799000D01*
X120577716Y-102799000D01*
X120513735Y-102811727D01*
X120440838Y-102826227D01*
X120440836Y-102826227D01*
X120440830Y-102826229D01*
X120311903Y-102879633D01*
X120311899Y-102879635D01*
X120195862Y-102957169D01*
X120195855Y-102957174D01*
X120097174Y-103055855D01*
X120097169Y-103055862D01*
X120045331Y-103133444D01*
X120019636Y-103171899D01*
X119979343Y-103269175D01*
X119978763Y-103270575D01*
X119934214Y-103325855D01*
X119866851Y-103348276D01*
X119811106Y-103337463D01*
X119662290Y-103271206D01*
X119475487Y-103231500D01*
X119284513Y-103231500D01*
X119284512Y-103231500D01*
X119107264Y-103269175D01*
X119036473Y-103263773D01*
X118979840Y-103220956D01*
X118961235Y-103184868D01*
X118944527Y-103133444D01*
X118849040Y-102968056D01*
X118849038Y-102968054D01*
X118846707Y-102964845D01*
X118845932Y-102962673D01*
X118845738Y-102962337D01*
X118845799Y-102962301D01*
X118822848Y-102897978D01*
X118838927Y-102828826D01*
X118882493Y-102783544D01*
X119026147Y-102694938D01*
X119151525Y-102569560D01*
X119244610Y-102418646D01*
X119300382Y-102250334D01*
X119310995Y-102146453D01*
X119310994Y-101420364D01*
X119300382Y-101316482D01*
X119244610Y-101148170D01*
X119151525Y-100997256D01*
X119151524Y-100997255D01*
X119151519Y-100997249D01*
X119026153Y-100871883D01*
X119026147Y-100871878D01*
X119006348Y-100859666D01*
X118875233Y-100778793D01*
X118771262Y-100744341D01*
X118706922Y-100723021D01*
X118706915Y-100723020D01*
X118603048Y-100712408D01*
X117251950Y-100712408D01*
X117148069Y-100723020D01*
X116979756Y-100778793D01*
X116848642Y-100859666D01*
X116780162Y-100878403D01*
X116716348Y-100859666D01*
X116585233Y-100778793D01*
X116481262Y-100744341D01*
X116416922Y-100723021D01*
X116416915Y-100723020D01*
X116313048Y-100712408D01*
X114961950Y-100712408D01*
X114858069Y-100723020D01*
X114689756Y-100778793D01*
X114538842Y-100871878D01*
X114538836Y-100871883D01*
X114413470Y-100997249D01*
X114413465Y-100997255D01*
X114320380Y-101148170D01*
X114264608Y-101316480D01*
X114264607Y-101316487D01*
X114253995Y-101420354D01*
X114253995Y-102146452D01*
X114264607Y-102250333D01*
X114320380Y-102418646D01*
X114413465Y-102569560D01*
X114413470Y-102569566D01*
X114425309Y-102581405D01*
X114459335Y-102643717D01*
X114454270Y-102714532D01*
X114411723Y-102771368D01*
X114345203Y-102796179D01*
X114336214Y-102796500D01*
X110437169Y-102796500D01*
X110369048Y-102776498D01*
X110322555Y-102722842D01*
X110312451Y-102652568D01*
X110341945Y-102587988D01*
X110363108Y-102568564D01*
X110374737Y-102560115D01*
X110423253Y-102524866D01*
X110521157Y-102416133D01*
X110551034Y-102382951D01*
X110551035Y-102382949D01*
X110551040Y-102382944D01*
X110646527Y-102217556D01*
X110705542Y-102035928D01*
X110725504Y-101846000D01*
X110705542Y-101656072D01*
X110646527Y-101474444D01*
X110551040Y-101309056D01*
X110551038Y-101309054D01*
X110551034Y-101309048D01*
X110423255Y-101167135D01*
X110268752Y-101054882D01*
X110094288Y-100977206D01*
X109907487Y-100937500D01*
X109716513Y-100937500D01*
X109529711Y-100977206D01*
X109355247Y-101054882D01*
X109274656Y-101113436D01*
X109207788Y-101137294D01*
X109200595Y-101137500D01*
X108531368Y-101137500D01*
X108463247Y-101117498D01*
X108416754Y-101063842D01*
X108411770Y-101051151D01*
X108360115Y-100895262D01*
X108267030Y-100744348D01*
X108267029Y-100744347D01*
X108267024Y-100744341D01*
X108141658Y-100618975D01*
X108141652Y-100618970D01*
X108095986Y-100590803D01*
X107990738Y-100525885D01*
X107852264Y-100480000D01*
X107822427Y-100470113D01*
X107822420Y-100470112D01*
X107718553Y-100459500D01*
X106317455Y-100459500D01*
X106213574Y-100470112D01*
X106045261Y-100525885D01*
X105894347Y-100618970D01*
X105894341Y-100618975D01*
X105790722Y-100722595D01*
X105728410Y-100756621D01*
X105701627Y-100759500D01*
X104445661Y-100759500D01*
X104377540Y-100739498D01*
X104356570Y-100722599D01*
X104167643Y-100533672D01*
X104097140Y-100486563D01*
X104051613Y-100432085D01*
X104042221Y-100398243D01*
X104039602Y-100378351D01*
X104034415Y-100338945D01*
X104034415Y-100306054D01*
X104039706Y-100265862D01*
X104048500Y-100199066D01*
X104048500Y-99945934D01*
X104033160Y-99829413D01*
X103973105Y-99684428D01*
X103973101Y-99684423D01*
X103973100Y-99684421D01*
X103877572Y-99559927D01*
X103797295Y-99498328D01*
X103755427Y-99440990D01*
X103748296Y-99400072D01*
X103748268Y-99400074D01*
X103748250Y-99399810D01*
X103747999Y-99398366D01*
X103747999Y-99395965D01*
X103747998Y-99395957D01*
X103732672Y-99279544D01*
X103732672Y-99279543D01*
X103672669Y-99134681D01*
X103672664Y-99134673D01*
X103577216Y-99010283D01*
X103522784Y-98968516D01*
X105610000Y-98968516D01*
X105620605Y-99072318D01*
X105620606Y-99072321D01*
X105676342Y-99240525D01*
X105769365Y-99391339D01*
X105769370Y-99391345D01*
X105894654Y-99516629D01*
X105894660Y-99516634D01*
X106045474Y-99609657D01*
X106213678Y-99665393D01*
X106213681Y-99665394D01*
X106317483Y-99675999D01*
X106317483Y-99676000D01*
X106764000Y-99676000D01*
X107272000Y-99676000D01*
X107718517Y-99676000D01*
X107718516Y-99675999D01*
X107822318Y-99665394D01*
X107822321Y-99665393D01*
X107990525Y-99609657D01*
X108141339Y-99516634D01*
X108141345Y-99516629D01*
X108266629Y-99391345D01*
X108266634Y-99391339D01*
X108359657Y-99240525D01*
X108415393Y-99072321D01*
X108415394Y-99072318D01*
X108425999Y-98968516D01*
X108426000Y-98968516D01*
X108426000Y-98847000D01*
X107272000Y-98847000D01*
X107272000Y-99676000D01*
X106764000Y-99676000D01*
X106764000Y-98847000D01*
X105610000Y-98847000D01*
X105610000Y-98968516D01*
X103522784Y-98968516D01*
X103452826Y-98914835D01*
X103452818Y-98914830D01*
X103307955Y-98854826D01*
X103240000Y-98845880D01*
X103240000Y-99268421D01*
X103219998Y-99336542D01*
X103166342Y-99383035D01*
X103130446Y-99393342D01*
X103046913Y-99404340D01*
X103038725Y-99405418D01*
X103038491Y-99403645D01*
X102977627Y-99402193D01*
X102918834Y-99362394D01*
X102890890Y-99297128D01*
X102890000Y-99282178D01*
X102890000Y-98845881D01*
X102889999Y-98845880D01*
X102831446Y-98853589D01*
X102798554Y-98853589D01*
X102740000Y-98845880D01*
X102740000Y-98879060D01*
X102719998Y-98947181D01*
X102666342Y-98993674D01*
X102596068Y-99003778D01*
X102537295Y-98979022D01*
X102453066Y-98914390D01*
X102452993Y-98914348D01*
X102452943Y-98914295D01*
X102446520Y-98909367D01*
X102447288Y-98908364D01*
X102404003Y-98862962D01*
X102402523Y-98856864D01*
X102389999Y-98845880D01*
X102333357Y-98853337D01*
X102300468Y-98853337D01*
X102252333Y-98847000D01*
X102191568Y-98839000D01*
X102191566Y-98839000D01*
X101938434Y-98839000D01*
X101938431Y-98839000D01*
X101821914Y-98854339D01*
X101676929Y-98914394D01*
X101676921Y-98914399D01*
X101552427Y-99009927D01*
X101456899Y-99134421D01*
X101456896Y-99134426D01*
X101456895Y-99134428D01*
X101440386Y-99174284D01*
X101396838Y-99279417D01*
X101394409Y-99297867D01*
X101365684Y-99362793D01*
X101358585Y-99370509D01*
X101310430Y-99418665D01*
X101310428Y-99418668D01*
X101241099Y-99522425D01*
X101241099Y-99522426D01*
X101200401Y-99620676D01*
X101183957Y-99649158D01*
X101156899Y-99684422D01*
X101156894Y-99684429D01*
X101137406Y-99731478D01*
X101113281Y-99789719D01*
X101068735Y-99844999D01*
X101001371Y-99867420D01*
X100996874Y-99867500D01*
X100852211Y-99867500D01*
X100832741Y-99871373D01*
X100832740Y-99871374D01*
X100754472Y-99886942D01*
X100715337Y-99894727D01*
X100715334Y-99894728D01*
X100639807Y-99926013D01*
X100586398Y-99948135D01*
X100470357Y-100025671D01*
X100470351Y-100025676D01*
X100117676Y-100378351D01*
X100117671Y-100378357D01*
X100040136Y-100494397D01*
X100023868Y-100533672D01*
X99986726Y-100623340D01*
X99986725Y-100623345D01*
X99983866Y-100637712D01*
X99983867Y-100637713D01*
X99960087Y-100757268D01*
X99960084Y-100757283D01*
X99959500Y-100760217D01*
X99959500Y-104575500D01*
X99939498Y-104643621D01*
X99885842Y-104690114D01*
X99833500Y-104701500D01*
X98355216Y-104701500D01*
X98218337Y-104728727D01*
X98218332Y-104728729D01*
X98164930Y-104750848D01*
X98164930Y-104750849D01*
X98089400Y-104782135D01*
X98089398Y-104782136D01*
X97973362Y-104859669D01*
X97973355Y-104859674D01*
X96818433Y-106014596D01*
X96756121Y-106048622D01*
X96729338Y-106051501D01*
X94627168Y-106051501D01*
X94559047Y-106031499D01*
X94512554Y-105977843D01*
X94502450Y-105907569D01*
X94505461Y-105892890D01*
X94519143Y-105841827D01*
X94533543Y-105788087D01*
X94553498Y-105560000D01*
X94533543Y-105331913D01*
X94474284Y-105110757D01*
X94377523Y-104903251D01*
X94246198Y-104715700D01*
X94084300Y-104553802D01*
X94066308Y-104541204D01*
X93896749Y-104422477D01*
X93856951Y-104403919D01*
X93803666Y-104357002D01*
X93784205Y-104288725D01*
X93804747Y-104220765D01*
X93856951Y-104175529D01*
X93896498Y-104157087D01*
X94083974Y-104025815D01*
X94083980Y-104025810D01*
X94245810Y-103863980D01*
X94245815Y-103863974D01*
X94377087Y-103676498D01*
X94473811Y-103469073D01*
X94473813Y-103469068D01*
X94526082Y-103274000D01*
X93551686Y-103274000D01*
X93560080Y-103265606D01*
X93612741Y-103174394D01*
X93640000Y-103072661D01*
X93640000Y-102967339D01*
X93612741Y-102865606D01*
X93560080Y-102774394D01*
X93551686Y-102766000D01*
X94526082Y-102766000D01*
X94473813Y-102570931D01*
X94473811Y-102570926D01*
X94377087Y-102363501D01*
X94245815Y-102176025D01*
X94245810Y-102176019D01*
X94083980Y-102014189D01*
X94083974Y-102014184D01*
X93896497Y-101882911D01*
X93856949Y-101864469D01*
X93803665Y-101817551D01*
X93784205Y-101749273D01*
X93804748Y-101681314D01*
X93856950Y-101636081D01*
X93896749Y-101617523D01*
X94084300Y-101486198D01*
X94246198Y-101324300D01*
X94377523Y-101136749D01*
X94474284Y-100929243D01*
X94533543Y-100708087D01*
X94553498Y-100480000D01*
X94533543Y-100251913D01*
X94474284Y-100030757D01*
X94377523Y-99823251D01*
X94246198Y-99635700D01*
X94084300Y-99473802D01*
X94070865Y-99464395D01*
X93978629Y-99399810D01*
X93896749Y-99342477D01*
X93859985Y-99325334D01*
X93857543Y-99324195D01*
X93804258Y-99277279D01*
X93784796Y-99209002D01*
X93805337Y-99141042D01*
X93857543Y-99095805D01*
X93859997Y-99094660D01*
X93896749Y-99077523D01*
X94084300Y-98946198D01*
X94246198Y-98784300D01*
X94303665Y-98702229D01*
X94359122Y-98657901D01*
X94406878Y-98648500D01*
X98801777Y-98648500D01*
X98801782Y-98648500D01*
X98870221Y-98634886D01*
X98938662Y-98621273D01*
X98976427Y-98605630D01*
X99067601Y-98567865D01*
X99183643Y-98490328D01*
X99456487Y-98217483D01*
X105610000Y-98217483D01*
X105610000Y-98339000D01*
X106764000Y-98339000D01*
X107272000Y-98339000D01*
X108426000Y-98339000D01*
X108426000Y-98217483D01*
X108415394Y-98113681D01*
X108415393Y-98113678D01*
X108359657Y-97945474D01*
X108266634Y-97794660D01*
X108266629Y-97794654D01*
X108141345Y-97669370D01*
X108141339Y-97669365D01*
X107990525Y-97576342D01*
X107822321Y-97520606D01*
X107822318Y-97520605D01*
X107718516Y-97510000D01*
X107272000Y-97510000D01*
X107272000Y-98339000D01*
X106764000Y-98339000D01*
X106764000Y-97510000D01*
X106317483Y-97510000D01*
X106213681Y-97520605D01*
X106213678Y-97520606D01*
X106045474Y-97576342D01*
X105894660Y-97669365D01*
X105894654Y-97669370D01*
X105769370Y-97794654D01*
X105769365Y-97794660D01*
X105676342Y-97945474D01*
X105620606Y-98113678D01*
X105620605Y-98113681D01*
X105610000Y-98217483D01*
X99456487Y-98217483D01*
X99464537Y-98209433D01*
X99526845Y-98175411D01*
X99527240Y-98175325D01*
X99680288Y-98142794D01*
X99854752Y-98065118D01*
X100009253Y-97952866D01*
X100137040Y-97810944D01*
X100232527Y-97645556D01*
X100291542Y-97463928D01*
X100311504Y-97274000D01*
X100291542Y-97084072D01*
X100232527Y-96902444D01*
X100137040Y-96737056D01*
X100137038Y-96737054D01*
X100137034Y-96737048D01*
X100009255Y-96595135D01*
X99854752Y-96482882D01*
X99680288Y-96405206D01*
X99493487Y-96365500D01*
X99302513Y-96365500D01*
X99115711Y-96405206D01*
X98941247Y-96482882D01*
X98786744Y-96595135D01*
X98658965Y-96737048D01*
X98658958Y-96737058D01*
X98563476Y-96902438D01*
X98563473Y-96902444D01*
X98550515Y-96942325D01*
X98506818Y-97076810D01*
X98504458Y-97084072D01*
X98500821Y-97118672D01*
X98473808Y-97184328D01*
X98415586Y-97224957D01*
X98375512Y-97231500D01*
X94406878Y-97231500D01*
X94338757Y-97211498D01*
X94303665Y-97177771D01*
X94246200Y-97095703D01*
X94246195Y-97095697D01*
X94084302Y-96933804D01*
X94084296Y-96933799D01*
X93992096Y-96869240D01*
X93896749Y-96802477D01*
X93857543Y-96784195D01*
X93804258Y-96737279D01*
X93784796Y-96669002D01*
X93805337Y-96601042D01*
X93857543Y-96555805D01*
X93859997Y-96554660D01*
X93896749Y-96537523D01*
X94084300Y-96406198D01*
X94246198Y-96244300D01*
X94377523Y-96056749D01*
X94474284Y-95849243D01*
X94533543Y-95628087D01*
X94553498Y-95400000D01*
X94533543Y-95171913D01*
X94474284Y-94950757D01*
X94377523Y-94743251D01*
X94246198Y-94555700D01*
X94084300Y-94393802D01*
X94070548Y-94384173D01*
X93980518Y-94321133D01*
X93896749Y-94262477D01*
X93857543Y-94244195D01*
X93804258Y-94197279D01*
X93784796Y-94129002D01*
X93805337Y-94061042D01*
X93857543Y-94015805D01*
X93859997Y-94014660D01*
X93896749Y-93997523D01*
X94084300Y-93866198D01*
X94246198Y-93704300D01*
X94377523Y-93516749D01*
X94474284Y-93309243D01*
X94533543Y-93088087D01*
X94553498Y-92860000D01*
X94533543Y-92631913D01*
X94474284Y-92410757D01*
X94377523Y-92203251D01*
X94246198Y-92015700D01*
X94084300Y-91853802D01*
X93896749Y-91722477D01*
X93857543Y-91704195D01*
X93804258Y-91657279D01*
X93784796Y-91589002D01*
X93805337Y-91521042D01*
X93857543Y-91475805D01*
X93859997Y-91474660D01*
X93896749Y-91457523D01*
X94084300Y-91326198D01*
X94246198Y-91164300D01*
X94377523Y-90976749D01*
X94474284Y-90769243D01*
X94533543Y-90548087D01*
X94553498Y-90320000D01*
X94533543Y-90091913D01*
X94474284Y-89870757D01*
X94377523Y-89663251D01*
X94246198Y-89475700D01*
X94084300Y-89313802D01*
X93896749Y-89182477D01*
X93883296Y-89176204D01*
X93857543Y-89164195D01*
X93804258Y-89117279D01*
X93784796Y-89049002D01*
X93805337Y-88981042D01*
X93857543Y-88935805D01*
X93861851Y-88933796D01*
X93896749Y-88917523D01*
X94084300Y-88786198D01*
X94246198Y-88624300D01*
X94377523Y-88436749D01*
X94474284Y-88229243D01*
X94533543Y-88008087D01*
X94553498Y-87780000D01*
X94533543Y-87551913D01*
X94474284Y-87330757D01*
X94377523Y-87123251D01*
X94246198Y-86935700D01*
X94084300Y-86773802D01*
X94047225Y-86747842D01*
X93896749Y-86642477D01*
X93689246Y-86545717D01*
X93689240Y-86545715D01*
X93570878Y-86514000D01*
X93468087Y-86486457D01*
X93240000Y-86466502D01*
X93011913Y-86486457D01*
X92790759Y-86545715D01*
X92790753Y-86545717D01*
X92583250Y-86642477D01*
X92395703Y-86773799D01*
X92395697Y-86773804D01*
X92233804Y-86935697D01*
X92233799Y-86935703D01*
X92102477Y-87123250D01*
X92005717Y-87330753D01*
X92005715Y-87330759D01*
X91951808Y-87531944D01*
X91946457Y-87551913D01*
X91926502Y-87780000D01*
X91946457Y-88008087D01*
X91955973Y-88043601D01*
X92005715Y-88229240D01*
X92005717Y-88229246D01*
X92102477Y-88436749D01*
X92178975Y-88546000D01*
X92233802Y-88624300D01*
X92395700Y-88786198D01*
X92583251Y-88917523D01*
X92618149Y-88933796D01*
X92622457Y-88935805D01*
X92675742Y-88982722D01*
X92695203Y-89050999D01*
X92674661Y-89118959D01*
X92622457Y-89164195D01*
X92583250Y-89182477D01*
X92395703Y-89313799D01*
X92395697Y-89313804D01*
X92233804Y-89475697D01*
X92233799Y-89475703D01*
X92102477Y-89663250D01*
X92005717Y-89870753D01*
X92005715Y-89870759D01*
X91946457Y-90091913D01*
X91926502Y-90320000D01*
X91946457Y-90548087D01*
X91952543Y-90570799D01*
X92005715Y-90769240D01*
X92005717Y-90769246D01*
X92102477Y-90976749D01*
X92186059Y-91096117D01*
X92233802Y-91164300D01*
X92395700Y-91326198D01*
X92583251Y-91457523D01*
X92618359Y-91473894D01*
X92622457Y-91475805D01*
X92675742Y-91522722D01*
X92695203Y-91590999D01*
X92674661Y-91658959D01*
X92622457Y-91704195D01*
X92583250Y-91722477D01*
X92395703Y-91853799D01*
X92395697Y-91853804D01*
X92233804Y-92015697D01*
X92233799Y-92015703D01*
X92102477Y-92203250D01*
X92005717Y-92410753D01*
X92005715Y-92410759D01*
X91952023Y-92611142D01*
X91946457Y-92631913D01*
X91926502Y-92860000D01*
X91945885Y-93081554D01*
X91946457Y-93088086D01*
X92005715Y-93309240D01*
X92005717Y-93309246D01*
X92102477Y-93516749D01*
X92213961Y-93675965D01*
X92233802Y-93704300D01*
X92395700Y-93866198D01*
X92583251Y-93997523D01*
X92618359Y-94013894D01*
X92622457Y-94015805D01*
X92675742Y-94062722D01*
X92695203Y-94130999D01*
X92674661Y-94198959D01*
X92622457Y-94244195D01*
X92583250Y-94262477D01*
X92395703Y-94393799D01*
X92395697Y-94393804D01*
X92233804Y-94555697D01*
X92233799Y-94555703D01*
X92102477Y-94743250D01*
X92005717Y-94950753D01*
X92005715Y-94950759D01*
X91951808Y-95151944D01*
X91946457Y-95171913D01*
X91926502Y-95400000D01*
X91946457Y-95628087D01*
X91960426Y-95680218D01*
X92005715Y-95849240D01*
X92005717Y-95849246D01*
X92065990Y-95978502D01*
X92102477Y-96056749D01*
X92233802Y-96244300D01*
X92395700Y-96406198D01*
X92583251Y-96537523D01*
X92618359Y-96553894D01*
X92622457Y-96555805D01*
X92675742Y-96602722D01*
X92695203Y-96670999D01*
X92674661Y-96738959D01*
X92622457Y-96784195D01*
X92583250Y-96802477D01*
X92395703Y-96933799D01*
X92395697Y-96933804D01*
X92233804Y-97095697D01*
X92233799Y-97095703D01*
X92102477Y-97283250D01*
X92005717Y-97490753D01*
X92005715Y-97490759D01*
X91997718Y-97520605D01*
X91946457Y-97711913D01*
X91926502Y-97940000D01*
X91946457Y-98168087D01*
X91950319Y-98182500D01*
X92005715Y-98389240D01*
X92005717Y-98389246D01*
X92102477Y-98596749D01*
X92138713Y-98648500D01*
X92233802Y-98784300D01*
X92395700Y-98946198D01*
X92583251Y-99077523D01*
X92618359Y-99093894D01*
X92622457Y-99095805D01*
X92675742Y-99142722D01*
X92695203Y-99210999D01*
X92674661Y-99278959D01*
X92622457Y-99324195D01*
X92583250Y-99342477D01*
X92395703Y-99473799D01*
X92395697Y-99473804D01*
X92233804Y-99635697D01*
X92233799Y-99635703D01*
X92102477Y-99823250D01*
X92005717Y-100030753D01*
X92005715Y-100030759D01*
X91951808Y-100231944D01*
X91946457Y-100251913D01*
X91926502Y-100480000D01*
X91946457Y-100708087D01*
X91950459Y-100723021D01*
X92005715Y-100929240D01*
X92005717Y-100929246D01*
X92037430Y-100997255D01*
X92102477Y-101136749D01*
X92233802Y-101324300D01*
X92395700Y-101486198D01*
X92583251Y-101617523D01*
X92610508Y-101630233D01*
X92623047Y-101636080D01*
X92676332Y-101682996D01*
X92695794Y-101751273D01*
X92675253Y-101819233D01*
X92623051Y-101864468D01*
X92583504Y-101882910D01*
X92396025Y-102014184D01*
X92396019Y-102014189D01*
X92234189Y-102176019D01*
X92234184Y-102176025D01*
X92102912Y-102363501D01*
X92006188Y-102570926D01*
X92006186Y-102570931D01*
X91953917Y-102766000D01*
X92928314Y-102766000D01*
X92919920Y-102774394D01*
X92867259Y-102865606D01*
X92840000Y-102967339D01*
X92840000Y-103072661D01*
X92867259Y-103174394D01*
X92919920Y-103265606D01*
X92928314Y-103274000D01*
X91953918Y-103274000D01*
X92006186Y-103469068D01*
X92006188Y-103469073D01*
X92102912Y-103676498D01*
X92234184Y-103863974D01*
X92234189Y-103863980D01*
X92396019Y-104025810D01*
X92396025Y-104025815D01*
X92583503Y-104157089D01*
X92623049Y-104175530D01*
X92676334Y-104222447D01*
X92695794Y-104290724D01*
X92675252Y-104358684D01*
X92623049Y-104403918D01*
X92583252Y-104422475D01*
X92395703Y-104553799D01*
X92395697Y-104553804D01*
X92233804Y-104715697D01*
X92233799Y-104715703D01*
X92102477Y-104903250D01*
X92005717Y-105110753D01*
X92005716Y-105110757D01*
X91946457Y-105331913D01*
X91926502Y-105560000D01*
X91945885Y-105781554D01*
X91946457Y-105788086D01*
X91977574Y-105904215D01*
X91975884Y-105975191D01*
X91936090Y-106033987D01*
X91880451Y-106060404D01*
X91856780Y-106065113D01*
X91856778Y-106065113D01*
X91856777Y-106065114D01*
X91814619Y-106073500D01*
X91788337Y-106078728D01*
X91763859Y-106088867D01*
X91659398Y-106132136D01*
X91543356Y-106209672D01*
X91543350Y-106209677D01*
X91423605Y-106329423D01*
X91361293Y-106363449D01*
X91290478Y-106358384D01*
X91233642Y-106315837D01*
X91208831Y-106249317D01*
X91208510Y-106240328D01*
X91208510Y-82565651D01*
X91228512Y-82497530D01*
X91245415Y-82476556D01*
X91796566Y-81925405D01*
X91858878Y-81891379D01*
X91885661Y-81888500D01*
X92073122Y-81888500D01*
X92141243Y-81908502D01*
X92176335Y-81942229D01*
X92231241Y-82020643D01*
X92233802Y-82024300D01*
X92395700Y-82186198D01*
X92583251Y-82317523D01*
X92618359Y-82333894D01*
X92622457Y-82335805D01*
X92675742Y-82382722D01*
X92695203Y-82450999D01*
X92674661Y-82518959D01*
X92622457Y-82564195D01*
X92583250Y-82582477D01*
X92395703Y-82713799D01*
X92395697Y-82713804D01*
X92233804Y-82875697D01*
X92233799Y-82875703D01*
X92102477Y-83063250D01*
X92005717Y-83270753D01*
X92005715Y-83270759D01*
X91959948Y-83441565D01*
X91946457Y-83491913D01*
X91926502Y-83720000D01*
X91946457Y-83948087D01*
X91964095Y-84013912D01*
X92005715Y-84169240D01*
X92005717Y-84169246D01*
X92037950Y-84238370D01*
X92102477Y-84376749D01*
X92233802Y-84564300D01*
X92395700Y-84726198D01*
X92583251Y-84857523D01*
X92790757Y-84954284D01*
X93011913Y-85013543D01*
X93240000Y-85033498D01*
X93468087Y-85013543D01*
X93689243Y-84954284D01*
X93896749Y-84857523D01*
X94084300Y-84726198D01*
X94246198Y-84564300D01*
X94377523Y-84376749D01*
X94474284Y-84169243D01*
X94533543Y-83948087D01*
X94553498Y-83720000D01*
X94533543Y-83491913D01*
X94474284Y-83270757D01*
X94377523Y-83063251D01*
X94246198Y-82875700D01*
X94084300Y-82713802D01*
X93896749Y-82582477D01*
X93857543Y-82564195D01*
X93804258Y-82517279D01*
X93784796Y-82449002D01*
X93805337Y-82381042D01*
X93857543Y-82335805D01*
X93859997Y-82334660D01*
X93896749Y-82317523D01*
X94084300Y-82186198D01*
X94246198Y-82024300D01*
X94377523Y-81836749D01*
X94474284Y-81629243D01*
X94533543Y-81408087D01*
X94553498Y-81180000D01*
X94533543Y-80951913D01*
X94474284Y-80730757D01*
X94377523Y-80523251D01*
X94246198Y-80335700D01*
X94084300Y-80173802D01*
X93896749Y-80042477D01*
X93857543Y-80024195D01*
X93804258Y-79977279D01*
X93784796Y-79909002D01*
X93805337Y-79841042D01*
X93857543Y-79795805D01*
X93868486Y-79790702D01*
X93896749Y-79777523D01*
X94084300Y-79646198D01*
X94246198Y-79484300D01*
X94377523Y-79296749D01*
X94474284Y-79089243D01*
X94533543Y-78868087D01*
X94553498Y-78640000D01*
X94533543Y-78411913D01*
X94474284Y-78190757D01*
X94377523Y-77983251D01*
X94246198Y-77795700D01*
X94084300Y-77633802D01*
X93896749Y-77502477D01*
X93857543Y-77484195D01*
X93804258Y-77437279D01*
X93784796Y-77369002D01*
X93805337Y-77301042D01*
X93857543Y-77255805D01*
X93859997Y-77254660D01*
X93896749Y-77237523D01*
X94084300Y-77106198D01*
X94246198Y-76944300D01*
X94377523Y-76756749D01*
X94474284Y-76549243D01*
X94533543Y-76328087D01*
X94553498Y-76100000D01*
X94533543Y-75871913D01*
X94474284Y-75650757D01*
X94377523Y-75443251D01*
X94246198Y-75255700D01*
X94084300Y-75093802D01*
X93896749Y-74962477D01*
X93857543Y-74944195D01*
X93804258Y-74897279D01*
X93784796Y-74829002D01*
X93805337Y-74761042D01*
X93857543Y-74715805D01*
X93864686Y-74712474D01*
X93896749Y-74697523D01*
X94084300Y-74566198D01*
X94246198Y-74404300D01*
X94377523Y-74216749D01*
X94474284Y-74009243D01*
X94533543Y-73788087D01*
X94553498Y-73560000D01*
X94533543Y-73331913D01*
X94474284Y-73110757D01*
X94377523Y-72903251D01*
X94246198Y-72715700D01*
X94084300Y-72553802D01*
X93896749Y-72422477D01*
X93857543Y-72404195D01*
X93804258Y-72357279D01*
X93784796Y-72289002D01*
X93805337Y-72221042D01*
X93857543Y-72175805D01*
X93859997Y-72174660D01*
X93896749Y-72157523D01*
X94084300Y-72026198D01*
X94246198Y-71864300D01*
X94377523Y-71676749D01*
X94474284Y-71469243D01*
X94533543Y-71248087D01*
X94553498Y-71020000D01*
X94533543Y-70791913D01*
X94474284Y-70570757D01*
X94377523Y-70363251D01*
X94246198Y-70175700D01*
X94084300Y-70013802D01*
X93896749Y-69882477D01*
X93857543Y-69864195D01*
X93804258Y-69817279D01*
X93784796Y-69749002D01*
X93805337Y-69681042D01*
X93857543Y-69635805D01*
X93859997Y-69634660D01*
X93896749Y-69617523D01*
X94084300Y-69486198D01*
X94246198Y-69324300D01*
X94377523Y-69136749D01*
X94474284Y-68929243D01*
X94533543Y-68708087D01*
X94553498Y-68480000D01*
X94533543Y-68251913D01*
X94474284Y-68030757D01*
X94377523Y-67823251D01*
X94246198Y-67635700D01*
X94084300Y-67473802D01*
X93896749Y-67342477D01*
X93857543Y-67324195D01*
X93804258Y-67277279D01*
X93784796Y-67209002D01*
X93805337Y-67141042D01*
X93857543Y-67095805D01*
X93859997Y-67094660D01*
X93896749Y-67077523D01*
X94084300Y-66946198D01*
X94246198Y-66784300D01*
X94377523Y-66596749D01*
X94474284Y-66389243D01*
X94533543Y-66168087D01*
X94553498Y-65940000D01*
X140186502Y-65940000D01*
X140206457Y-66168087D01*
X140265716Y-66389243D01*
X140362477Y-66596749D01*
X140493802Y-66784300D01*
X140655700Y-66946198D01*
X140843251Y-67077523D01*
X140878359Y-67093894D01*
X140882457Y-67095805D01*
X140935742Y-67142722D01*
X140955203Y-67210999D01*
X140934661Y-67278959D01*
X140882457Y-67324195D01*
X140843250Y-67342477D01*
X140655703Y-67473799D01*
X140655697Y-67473804D01*
X140493804Y-67635697D01*
X140493799Y-67635703D01*
X140362477Y-67823250D01*
X140265717Y-68030753D01*
X140265716Y-68030757D01*
X140206457Y-68251913D01*
X140186502Y-68480000D01*
X140206457Y-68708087D01*
X140265716Y-68929243D01*
X140362477Y-69136749D01*
X140493802Y-69324300D01*
X140655700Y-69486198D01*
X140843251Y-69617523D01*
X140878359Y-69633894D01*
X140882457Y-69635805D01*
X140935742Y-69682722D01*
X140955203Y-69750999D01*
X140934661Y-69818959D01*
X140882457Y-69864195D01*
X140843250Y-69882477D01*
X140655703Y-70013799D01*
X140655697Y-70013804D01*
X140493804Y-70175697D01*
X140493799Y-70175703D01*
X140362477Y-70363250D01*
X140265717Y-70570753D01*
X140265716Y-70570757D01*
X140206457Y-70791913D01*
X140186502Y-71020000D01*
X140206457Y-71248087D01*
X140265716Y-71469243D01*
X140362477Y-71676749D01*
X140493802Y-71864300D01*
X140655700Y-72026198D01*
X140843251Y-72157523D01*
X140878359Y-72173894D01*
X140882457Y-72175805D01*
X140935742Y-72222722D01*
X140955203Y-72290999D01*
X140934661Y-72358959D01*
X140882457Y-72404195D01*
X140843250Y-72422477D01*
X140655703Y-72553799D01*
X140655697Y-72553804D01*
X140493804Y-72715697D01*
X140493799Y-72715703D01*
X140362477Y-72903250D01*
X140265717Y-73110753D01*
X140265715Y-73110759D01*
X140206457Y-73331913D01*
X140186502Y-73560000D01*
X140206457Y-73788086D01*
X140265715Y-74009240D01*
X140265717Y-74009246D01*
X140362477Y-74216749D01*
X140451118Y-74343342D01*
X140493802Y-74404300D01*
X140655700Y-74566198D01*
X140843251Y-74697523D01*
X140875314Y-74712474D01*
X140882457Y-74715805D01*
X140935742Y-74762722D01*
X140955203Y-74830999D01*
X140934661Y-74898959D01*
X140882457Y-74944195D01*
X140843250Y-74962477D01*
X140655703Y-75093799D01*
X140655697Y-75093804D01*
X140493804Y-75255697D01*
X140493799Y-75255703D01*
X140362477Y-75443250D01*
X140265717Y-75650753D01*
X140265715Y-75650759D01*
X140215191Y-75839318D01*
X140206457Y-75871913D01*
X140186502Y-76100000D01*
X140206457Y-76328087D01*
X140221267Y-76383357D01*
X140252360Y-76499400D01*
X140265716Y-76549243D01*
X140362477Y-76756749D01*
X140493802Y-76944300D01*
X140655700Y-77106198D01*
X140843251Y-77237523D01*
X140878359Y-77253894D01*
X140882457Y-77255805D01*
X140935742Y-77302722D01*
X140955203Y-77370999D01*
X140934661Y-77438959D01*
X140882457Y-77484195D01*
X140843250Y-77502477D01*
X140655703Y-77633799D01*
X140655697Y-77633804D01*
X140493804Y-77795697D01*
X140493799Y-77795703D01*
X140362477Y-77983250D01*
X140265717Y-78190753D01*
X140265715Y-78190759D01*
X140237144Y-78297387D01*
X140206457Y-78411913D01*
X140186502Y-78640000D01*
X140206457Y-78868087D01*
X140240670Y-78995771D01*
X140265715Y-79089240D01*
X140265717Y-79089246D01*
X140362477Y-79296749D01*
X140444067Y-79413272D01*
X140493802Y-79484300D01*
X140655700Y-79646198D01*
X140843251Y-79777523D01*
X141050757Y-79874284D01*
X141271913Y-79933543D01*
X141500000Y-79953498D01*
X141728087Y-79933543D01*
X141949243Y-79874284D01*
X142156749Y-79777523D01*
X142344300Y-79646198D01*
X142506198Y-79484300D01*
X142637523Y-79296749D01*
X142734284Y-79089243D01*
X142793543Y-78868087D01*
X142813498Y-78640000D01*
X142793543Y-78411913D01*
X142734284Y-78190757D01*
X142637523Y-77983251D01*
X142506198Y-77795700D01*
X142344300Y-77633802D01*
X142156749Y-77502477D01*
X142117543Y-77484195D01*
X142064258Y-77437279D01*
X142044796Y-77369002D01*
X142065337Y-77301042D01*
X142117543Y-77255805D01*
X142119997Y-77254660D01*
X142156749Y-77237523D01*
X142344300Y-77106198D01*
X142506198Y-76944300D01*
X142637523Y-76756749D01*
X142734284Y-76549243D01*
X142793543Y-76328087D01*
X142813498Y-76100000D01*
X142793543Y-75871913D01*
X142734284Y-75650757D01*
X142637523Y-75443251D01*
X142506198Y-75255700D01*
X142344300Y-75093802D01*
X142156749Y-74962477D01*
X142117543Y-74944195D01*
X142064258Y-74897279D01*
X142044796Y-74829002D01*
X142065337Y-74761042D01*
X142117543Y-74715805D01*
X142124686Y-74712474D01*
X142156749Y-74697523D01*
X142344300Y-74566198D01*
X142506198Y-74404300D01*
X142637523Y-74216749D01*
X142734284Y-74009243D01*
X142793543Y-73788087D01*
X142813498Y-73560000D01*
X142793543Y-73331913D01*
X142734284Y-73110757D01*
X142637523Y-72903251D01*
X142506198Y-72715700D01*
X142344300Y-72553802D01*
X142156749Y-72422477D01*
X142117543Y-72404195D01*
X142064258Y-72357279D01*
X142044796Y-72289002D01*
X142065337Y-72221042D01*
X142117543Y-72175805D01*
X142119997Y-72174660D01*
X142156749Y-72157523D01*
X142344300Y-72026198D01*
X142506198Y-71864300D01*
X142637523Y-71676749D01*
X142734284Y-71469243D01*
X142793543Y-71248087D01*
X142813498Y-71020000D01*
X142793543Y-70791913D01*
X142734284Y-70570757D01*
X142637523Y-70363251D01*
X142506198Y-70175700D01*
X142344300Y-70013802D01*
X142156749Y-69882477D01*
X142117543Y-69864195D01*
X142064258Y-69817279D01*
X142044796Y-69749002D01*
X142065337Y-69681042D01*
X142117543Y-69635805D01*
X142119997Y-69634660D01*
X142156749Y-69617523D01*
X142344300Y-69486198D01*
X142506198Y-69324300D01*
X142637523Y-69136749D01*
X142734284Y-68929243D01*
X142793543Y-68708087D01*
X142813498Y-68480000D01*
X142793543Y-68251913D01*
X142734284Y-68030757D01*
X142637523Y-67823251D01*
X142506198Y-67635700D01*
X142344300Y-67473802D01*
X142156749Y-67342477D01*
X142117543Y-67324195D01*
X142064258Y-67277279D01*
X142044796Y-67209002D01*
X142065337Y-67141042D01*
X142117543Y-67095805D01*
X142119997Y-67094660D01*
X142156749Y-67077523D01*
X142344300Y-66946198D01*
X142506198Y-66784300D01*
X142637523Y-66596749D01*
X142734284Y-66389243D01*
X142793543Y-66168087D01*
X142813498Y-65940000D01*
X142793543Y-65711913D01*
X142734284Y-65490757D01*
X142637523Y-65283251D01*
X142506198Y-65095700D01*
X142344300Y-64933802D01*
X142156749Y-64802477D01*
X141949246Y-64705717D01*
X141949240Y-64705715D01*
X141855771Y-64680670D01*
X141728087Y-64646457D01*
X141500000Y-64626502D01*
X141271913Y-64646457D01*
X141050759Y-64705715D01*
X141050753Y-64705717D01*
X140843250Y-64802477D01*
X140655703Y-64933799D01*
X140655697Y-64933804D01*
X140493804Y-65095697D01*
X140493799Y-65095703D01*
X140362477Y-65283250D01*
X140265717Y-65490753D01*
X140265716Y-65490757D01*
X140206457Y-65711913D01*
X140186502Y-65940000D01*
X94553498Y-65940000D01*
X94533543Y-65711913D01*
X94474284Y-65490757D01*
X94377523Y-65283251D01*
X94246198Y-65095700D01*
X94084300Y-64933802D01*
X93896749Y-64802477D01*
X93689246Y-64705717D01*
X93689240Y-64705715D01*
X93595771Y-64680670D01*
X93468087Y-64646457D01*
X93240000Y-64626502D01*
X93011913Y-64646457D01*
X92790759Y-64705715D01*
X92790753Y-64705717D01*
X92583250Y-64802477D01*
X92395703Y-64933799D01*
X92395697Y-64933804D01*
X92233804Y-65095697D01*
X92233799Y-65095703D01*
X92102477Y-65283250D01*
X92005717Y-65490753D01*
X92005716Y-65490757D01*
X91946457Y-65711913D01*
X91926502Y-65940000D01*
X91946457Y-66168087D01*
X92005716Y-66389243D01*
X92102477Y-66596749D01*
X92233802Y-66784300D01*
X92395700Y-66946198D01*
X92583251Y-67077523D01*
X92618359Y-67093894D01*
X92622457Y-67095805D01*
X92675742Y-67142722D01*
X92695203Y-67210999D01*
X92674661Y-67278959D01*
X92622457Y-67324195D01*
X92583250Y-67342477D01*
X92395703Y-67473799D01*
X92395697Y-67473804D01*
X92233804Y-67635697D01*
X92233799Y-67635703D01*
X92102477Y-67823250D01*
X92005717Y-68030753D01*
X92005716Y-68030757D01*
X91946457Y-68251913D01*
X91926502Y-68480000D01*
X91946457Y-68708087D01*
X92005716Y-68929243D01*
X92102477Y-69136749D01*
X92233802Y-69324300D01*
X92395700Y-69486198D01*
X92583251Y-69617523D01*
X92618359Y-69633894D01*
X92622457Y-69635805D01*
X92675742Y-69682722D01*
X92695203Y-69750999D01*
X92674661Y-69818959D01*
X92622457Y-69864195D01*
X92583250Y-69882477D01*
X92395703Y-70013799D01*
X92395697Y-70013804D01*
X92233804Y-70175697D01*
X92233799Y-70175703D01*
X92102477Y-70363250D01*
X92005717Y-70570753D01*
X92005716Y-70570757D01*
X91946457Y-70791913D01*
X91926502Y-71020000D01*
X91946457Y-71248087D01*
X92005716Y-71469243D01*
X92102477Y-71676749D01*
X92233802Y-71864300D01*
X92395700Y-72026198D01*
X92583251Y-72157523D01*
X92618359Y-72173894D01*
X92622457Y-72175805D01*
X92675742Y-72222722D01*
X92695203Y-72290999D01*
X92674661Y-72358959D01*
X92622457Y-72404195D01*
X92583250Y-72422477D01*
X92395703Y-72553799D01*
X92395697Y-72553804D01*
X92233804Y-72715697D01*
X92233799Y-72715703D01*
X92102477Y-72903250D01*
X92005717Y-73110753D01*
X92005715Y-73110759D01*
X91946457Y-73331913D01*
X91926502Y-73560000D01*
X91946457Y-73788086D01*
X92005715Y-74009240D01*
X92005717Y-74009246D01*
X92102477Y-74216749D01*
X92191118Y-74343342D01*
X92233802Y-74404300D01*
X92395700Y-74566198D01*
X92583251Y-74697523D01*
X92615314Y-74712474D01*
X92622457Y-74715805D01*
X92675742Y-74762722D01*
X92695203Y-74830999D01*
X92674661Y-74898959D01*
X92622457Y-74944195D01*
X92583250Y-74962477D01*
X92395703Y-75093799D01*
X92395697Y-75093804D01*
X92233804Y-75255697D01*
X92233799Y-75255703D01*
X92102477Y-75443250D01*
X92005717Y-75650753D01*
X92005715Y-75650759D01*
X91955191Y-75839318D01*
X91946457Y-75871913D01*
X91926502Y-76100000D01*
X91946457Y-76328087D01*
X91961267Y-76383357D01*
X91992360Y-76499400D01*
X92005716Y-76549243D01*
X92102477Y-76756749D01*
X92233802Y-76944300D01*
X92395700Y-77106198D01*
X92583251Y-77237523D01*
X92618359Y-77253894D01*
X92622457Y-77255805D01*
X92675742Y-77302722D01*
X92695203Y-77370999D01*
X92674661Y-77438959D01*
X92622457Y-77484195D01*
X92583250Y-77502477D01*
X92395703Y-77633799D01*
X92395697Y-77633804D01*
X92233804Y-77795697D01*
X92233799Y-77795703D01*
X92102477Y-77983250D01*
X92005717Y-78190753D01*
X92005715Y-78190759D01*
X91977144Y-78297387D01*
X91946457Y-78411913D01*
X91926502Y-78640000D01*
X91946457Y-78868087D01*
X91980670Y-78995771D01*
X92005715Y-79089240D01*
X92005717Y-79089246D01*
X92102477Y-79296749D01*
X92184067Y-79413272D01*
X92233802Y-79484300D01*
X92395700Y-79646198D01*
X92583251Y-79777523D01*
X92611514Y-79790702D01*
X92622457Y-79795805D01*
X92675742Y-79842722D01*
X92695203Y-79910999D01*
X92674661Y-79978959D01*
X92622457Y-80024195D01*
X92583250Y-80042477D01*
X92395703Y-80173799D01*
X92395697Y-80173804D01*
X92233804Y-80335697D01*
X92233799Y-80335703D01*
X92176335Y-80417771D01*
X92120878Y-80462099D01*
X92073122Y-80471500D01*
X91470212Y-80471500D01*
X91401779Y-80485112D01*
X91401778Y-80485113D01*
X91356151Y-80494189D01*
X91333337Y-80498727D01*
X91333334Y-80498728D01*
X91295572Y-80514368D01*
X91295572Y-80514369D01*
X91271757Y-80524233D01*
X91204401Y-80552133D01*
X91204400Y-80552134D01*
X91088357Y-80629671D01*
X91088351Y-80629676D01*
X90315595Y-81402433D01*
X90253283Y-81436459D01*
X90182468Y-81431394D01*
X90125632Y-81388847D01*
X90100821Y-81322327D01*
X90100500Y-81313338D01*
X90100500Y-64226500D01*
X90120502Y-64158379D01*
X90174158Y-64111886D01*
X90226500Y-64100500D01*
X116380009Y-64100500D01*
X136080009Y-64100500D01*
X144273500Y-64100500D01*
X144341621Y-64120502D01*
G37*
G04 #@! TD.AperFunction*
G04 #@! TA.AperFunction,Conductor*
G36*
X107771966Y-106892502D02*
G01*
X107818459Y-106946158D01*
X107828563Y-107016432D01*
X107823447Y-107038139D01*
X107822607Y-107040672D01*
X107822605Y-107040681D01*
X107812000Y-107144483D01*
X107812000Y-107266000D01*
X109348000Y-107266000D01*
X109416121Y-107286002D01*
X109462614Y-107339658D01*
X109474000Y-107392000D01*
X109474000Y-108603000D01*
X109920517Y-108603000D01*
X109920516Y-108602999D01*
X110024318Y-108592394D01*
X110024321Y-108592393D01*
X110192523Y-108536657D01*
X110199348Y-108532448D01*
X110267826Y-108513707D01*
X110335566Y-108534964D01*
X110381061Y-108589469D01*
X110391500Y-108639686D01*
X110391500Y-109171210D01*
X110371498Y-109239331D01*
X110333621Y-109277208D01*
X110240628Y-109336970D01*
X110240622Y-109336975D01*
X110135326Y-109428213D01*
X110133577Y-109429624D01*
X110131966Y-109431125D01*
X110036257Y-109541581D01*
X109958525Y-109662534D01*
X109958523Y-109662537D01*
X109958523Y-109662538D01*
X109900562Y-109789456D01*
X109897806Y-109795490D01*
X109857302Y-109933433D01*
X109857300Y-109933440D01*
X109850139Y-109983250D01*
X109836500Y-110078111D01*
X109836500Y-110650000D01*
X109840420Y-110704809D01*
X109841727Y-110723081D01*
X109852397Y-110759419D01*
X109856219Y-110812848D01*
X109836500Y-110950000D01*
X109836500Y-111521889D01*
X109846591Y-111592072D01*
X109857300Y-111666559D01*
X109857302Y-111666566D01*
X109879288Y-111741443D01*
X109897807Y-111804513D01*
X109958523Y-111937462D01*
X109958525Y-111937465D01*
X110032587Y-112052708D01*
X110033419Y-112054169D01*
X110036255Y-112058416D01*
X110036257Y-112058420D01*
X110044583Y-112068029D01*
X110087882Y-112117997D01*
X110117375Y-112182577D01*
X110107272Y-112252851D01*
X110060780Y-112306507D01*
X109992659Y-112326510D01*
X91882671Y-112326510D01*
X91814550Y-112306508D01*
X91793575Y-112289605D01*
X91245414Y-111741443D01*
X91211389Y-111679131D01*
X91208510Y-111652348D01*
X91208510Y-111046040D01*
X91228512Y-110977919D01*
X91282168Y-110931426D01*
X91352442Y-110921322D01*
X91417022Y-110950816D01*
X91423591Y-110956931D01*
X91656988Y-111190328D01*
X91773030Y-111267865D01*
X91813879Y-111284785D01*
X91813880Y-111284786D01*
X91901960Y-111321270D01*
X91901961Y-111321270D01*
X91901968Y-111321273D01*
X92038849Y-111348500D01*
X92073122Y-111348500D01*
X92141243Y-111368502D01*
X92176335Y-111402229D01*
X92233802Y-111484300D01*
X92395700Y-111646198D01*
X92583251Y-111777523D01*
X92790757Y-111874284D01*
X93011913Y-111933543D01*
X93240000Y-111953498D01*
X93468087Y-111933543D01*
X93689243Y-111874284D01*
X93896749Y-111777523D01*
X94084300Y-111646198D01*
X94246198Y-111484300D01*
X94377523Y-111296749D01*
X94474284Y-111089243D01*
X94533543Y-110868087D01*
X94553498Y-110640000D01*
X94533543Y-110411913D01*
X94474284Y-110190757D01*
X94377523Y-109983251D01*
X94246198Y-109795700D01*
X94084300Y-109633802D01*
X93896749Y-109502477D01*
X93857543Y-109484195D01*
X93804258Y-109437279D01*
X93784796Y-109369002D01*
X93805337Y-109301042D01*
X93857543Y-109255805D01*
X93859997Y-109254660D01*
X93896749Y-109237523D01*
X94084300Y-109106198D01*
X94246198Y-108944300D01*
X94303665Y-108862229D01*
X94359122Y-108817901D01*
X94406878Y-108808500D01*
X97709777Y-108808500D01*
X97709782Y-108808500D01*
X97778221Y-108794886D01*
X97846662Y-108781273D01*
X97894639Y-108761400D01*
X97975601Y-108727865D01*
X98091643Y-108650328D01*
X99131566Y-107610403D01*
X99193877Y-107576380D01*
X99220660Y-107573500D01*
X103574780Y-107573500D01*
X103574781Y-107573500D01*
X103711662Y-107546273D01*
X103711665Y-107546271D01*
X103711668Y-107546271D01*
X103717276Y-107543948D01*
X103787866Y-107536355D01*
X103851354Y-107568131D01*
X103887585Y-107629187D01*
X103891500Y-107660354D01*
X103891500Y-107885404D01*
X103871498Y-107953525D01*
X103854593Y-107974502D01*
X103835550Y-107993544D01*
X103816460Y-108009211D01*
X103720229Y-108073511D01*
X102863507Y-108930232D01*
X102863506Y-108930234D01*
X102834541Y-108973585D01*
X102834540Y-108973587D01*
X102791444Y-109038084D01*
X102791440Y-109038090D01*
X102782928Y-109058642D01*
X102738380Y-109113923D01*
X102706153Y-109130027D01*
X102652265Y-109147883D01*
X102501347Y-109240970D01*
X102501341Y-109240975D01*
X102375975Y-109366341D01*
X102375970Y-109366347D01*
X102282885Y-109517262D01*
X102227113Y-109685572D01*
X102227112Y-109685579D01*
X102216500Y-109789446D01*
X102216500Y-111190544D01*
X102227112Y-111294425D01*
X102282885Y-111462738D01*
X102375970Y-111613652D01*
X102375975Y-111613658D01*
X102501341Y-111739024D01*
X102501347Y-111739029D01*
X102501348Y-111739030D01*
X102652262Y-111832115D01*
X102820574Y-111887887D01*
X102924455Y-111898500D01*
X103675544Y-111898499D01*
X103779426Y-111887887D01*
X103947738Y-111832115D01*
X104098652Y-111739030D01*
X104224030Y-111613652D01*
X104317115Y-111462738D01*
X104372887Y-111294426D01*
X104383500Y-111190545D01*
X104383500Y-111190516D01*
X105167000Y-111190516D01*
X105177605Y-111294318D01*
X105177606Y-111294321D01*
X105233342Y-111462525D01*
X105326365Y-111613339D01*
X105326370Y-111613345D01*
X105451654Y-111738629D01*
X105451660Y-111738634D01*
X105602474Y-111831657D01*
X105770678Y-111887393D01*
X105770681Y-111887394D01*
X105874483Y-111897999D01*
X105874483Y-111898000D01*
X105996000Y-111898000D01*
X106504000Y-111898000D01*
X106625517Y-111898000D01*
X106625516Y-111897999D01*
X106729318Y-111887394D01*
X106729321Y-111887393D01*
X106897525Y-111831657D01*
X107048339Y-111738634D01*
X107048345Y-111738629D01*
X107173629Y-111613345D01*
X107173634Y-111613339D01*
X107266657Y-111462525D01*
X107322393Y-111294321D01*
X107322394Y-111294318D01*
X107332999Y-111190516D01*
X107333000Y-111190516D01*
X107333000Y-110744000D01*
X106504000Y-110744000D01*
X106504000Y-111898000D01*
X105996000Y-111898000D01*
X105996000Y-110744000D01*
X105167000Y-110744000D01*
X105167000Y-111190516D01*
X104383500Y-111190516D01*
X104383499Y-109789483D01*
X105167000Y-109789483D01*
X105167000Y-110236000D01*
X105996000Y-110236000D01*
X106504000Y-110236000D01*
X107333000Y-110236000D01*
X107333000Y-109789483D01*
X107322394Y-109685681D01*
X107322393Y-109685678D01*
X107266657Y-109517474D01*
X107173634Y-109366660D01*
X107173629Y-109366654D01*
X107048345Y-109241370D01*
X107048339Y-109241365D01*
X106897525Y-109148342D01*
X106729321Y-109092606D01*
X106729318Y-109092605D01*
X106625516Y-109082000D01*
X106504000Y-109082000D01*
X106504000Y-110236000D01*
X105996000Y-110236000D01*
X105996000Y-109082000D01*
X105874483Y-109082000D01*
X105770681Y-109092605D01*
X105770678Y-109092606D01*
X105602474Y-109148342D01*
X105451660Y-109241365D01*
X105451654Y-109241370D01*
X105326370Y-109366654D01*
X105326365Y-109366660D01*
X105233342Y-109517474D01*
X105177606Y-109685678D01*
X105177605Y-109685681D01*
X105167000Y-109789483D01*
X104383499Y-109789483D01*
X104383499Y-109789456D01*
X104380178Y-109756951D01*
X104372887Y-109685574D01*
X104355732Y-109633804D01*
X104317115Y-109517262D01*
X104301463Y-109491887D01*
X104282727Y-109423413D01*
X104303985Y-109355674D01*
X104319604Y-109336653D01*
X104651490Y-109004769D01*
X104715787Y-108908538D01*
X104731453Y-108889449D01*
X105017071Y-108603833D01*
X105086400Y-108500075D01*
X105134155Y-108384785D01*
X105158500Y-108262394D01*
X105158500Y-108137606D01*
X105158500Y-107895516D01*
X107812000Y-107895516D01*
X107822605Y-107999318D01*
X107822606Y-107999321D01*
X107878342Y-108167525D01*
X107971365Y-108318339D01*
X107971370Y-108318345D01*
X108096654Y-108443629D01*
X108096660Y-108443634D01*
X108247474Y-108536657D01*
X108415678Y-108592393D01*
X108415681Y-108592394D01*
X108519483Y-108602999D01*
X108519483Y-108603000D01*
X108966000Y-108603000D01*
X108966000Y-107774000D01*
X107812000Y-107774000D01*
X107812000Y-107895516D01*
X105158500Y-107895516D01*
X105158500Y-107604521D01*
X105178502Y-107536400D01*
X105232158Y-107489907D01*
X105271031Y-107479243D01*
X105296595Y-107476494D01*
X105323543Y-107466444D01*
X105367574Y-107458500D01*
X105761132Y-107458500D01*
X105761138Y-107458500D01*
X105761145Y-107458499D01*
X105761149Y-107458499D01*
X105821695Y-107451990D01*
X105821696Y-107451989D01*
X105821701Y-107451989D01*
X105843471Y-107443868D01*
X105863380Y-107436444D01*
X105907411Y-107428500D01*
X105912606Y-107428500D01*
X105937672Y-107428500D01*
X105962251Y-107430920D01*
X105975219Y-107433500D01*
X105975220Y-107433500D01*
X106704781Y-107433500D01*
X106704782Y-107433500D01*
X106807561Y-107413056D01*
X106841662Y-107406273D01*
X106886102Y-107387865D01*
X106970601Y-107352865D01*
X107086643Y-107275328D01*
X107452565Y-106909404D01*
X107514878Y-106875380D01*
X107541661Y-106872500D01*
X107703845Y-106872500D01*
X107771966Y-106892502D01*
G37*
G04 #@! TD.AperFunction*
G04 #@! TA.AperFunction,Conductor*
G36*
X101579204Y-101654989D02*
G01*
X101677173Y-101730164D01*
X101677181Y-101730169D01*
X101828718Y-101792937D01*
X101883999Y-101837485D01*
X101906420Y-101904848D01*
X101906500Y-101909346D01*
X101906500Y-102618620D01*
X101889620Y-102681619D01*
X101865474Y-102723440D01*
X101865473Y-102723442D01*
X101865473Y-102723443D01*
X101855382Y-102754500D01*
X101806457Y-102905071D01*
X101786496Y-103094999D01*
X101806457Y-103284926D01*
X101827238Y-103348882D01*
X101865473Y-103466555D01*
X101865476Y-103466560D01*
X101960958Y-103631940D01*
X101960965Y-103631950D01*
X102088744Y-103773863D01*
X102088747Y-103773865D01*
X102243248Y-103886117D01*
X102417712Y-103963793D01*
X102417717Y-103963794D01*
X102419541Y-103964387D01*
X102420464Y-103965018D01*
X102423745Y-103966479D01*
X102423478Y-103967078D01*
X102478150Y-104004456D01*
X102505792Y-104069850D01*
X102493691Y-104139808D01*
X102469710Y-104173318D01*
X102319671Y-104323357D01*
X102242135Y-104439398D01*
X102212247Y-104511556D01*
X102188727Y-104568337D01*
X102184375Y-104590212D01*
X102184375Y-104590216D01*
X102182413Y-104600079D01*
X102149508Y-104662989D01*
X102087814Y-104698122D01*
X102058834Y-104701500D01*
X101502500Y-104701500D01*
X101434379Y-104681498D01*
X101387886Y-104627842D01*
X101376500Y-104575500D01*
X101376500Y-101754951D01*
X101396502Y-101686830D01*
X101450158Y-101640337D01*
X101520432Y-101630233D01*
X101579204Y-101654989D01*
G37*
G04 #@! TD.AperFunction*
G04 #@! TA.AperFunction,Conductor*
G36*
X126680290Y-93500845D02*
G01*
X126737126Y-93543392D01*
X126756091Y-93579964D01*
X126800473Y-93716556D01*
X126800476Y-93716561D01*
X126895958Y-93881941D01*
X126895965Y-93881951D01*
X127023744Y-94023864D01*
X127074915Y-94061042D01*
X127178248Y-94136118D01*
X127352712Y-94213794D01*
X127539513Y-94253500D01*
X127730491Y-94253500D01*
X127853305Y-94227394D01*
X127878714Y-94221993D01*
X127949505Y-94227394D01*
X128006138Y-94270210D01*
X128030632Y-94336848D01*
X128024746Y-94384173D01*
X128011457Y-94425072D01*
X127991496Y-94615000D01*
X128011457Y-94804927D01*
X128037863Y-94886195D01*
X128070473Y-94986556D01*
X128070476Y-94986561D01*
X128165958Y-95151941D01*
X128165965Y-95151951D01*
X128293744Y-95293864D01*
X128293747Y-95293866D01*
X128448248Y-95406118D01*
X128622712Y-95483794D01*
X128809513Y-95523500D01*
X129000487Y-95523500D01*
X129187288Y-95483794D01*
X129361752Y-95406118D01*
X129516253Y-95293866D01*
X129542969Y-95264195D01*
X129644034Y-95151951D01*
X129644035Y-95151949D01*
X129644040Y-95151944D01*
X129716381Y-95026646D01*
X129767764Y-94977653D01*
X129837477Y-94964217D01*
X129903388Y-94990603D01*
X129944570Y-95048436D01*
X129951500Y-95089646D01*
X129951500Y-95663632D01*
X129951501Y-95663652D01*
X129952402Y-95672033D01*
X129939796Y-95741901D01*
X129891417Y-95793863D01*
X129827124Y-95811500D01*
X124569662Y-95811500D01*
X124501541Y-95791498D01*
X124455048Y-95737842D01*
X124444944Y-95667568D01*
X124474438Y-95602988D01*
X124480566Y-95596405D01*
X124812776Y-95264195D01*
X126547166Y-93529803D01*
X126609475Y-93495781D01*
X126680290Y-93500845D01*
G37*
G04 #@! TD.AperFunction*
G04 #@! TA.AperFunction,Conductor*
G36*
X129119524Y-92958502D02*
G01*
X129166017Y-93012158D01*
X129176121Y-93082432D01*
X129146627Y-93147012D01*
X129140498Y-93153595D01*
X128753052Y-93541041D01*
X128690740Y-93575067D01*
X128619925Y-93570002D01*
X128563089Y-93527455D01*
X128538278Y-93460935D01*
X128538646Y-93438785D01*
X128545907Y-93369703D01*
X128572921Y-93304048D01*
X128582112Y-93293790D01*
X128900500Y-92975404D01*
X128962812Y-92941379D01*
X128989595Y-92938500D01*
X129051403Y-92938500D01*
X129119524Y-92958502D01*
G37*
G04 #@! TD.AperFunction*
G04 #@! TA.AperFunction,Conductor*
G36*
X112203789Y-79460502D02*
G01*
X112250282Y-79514158D01*
X112260386Y-79584432D01*
X112242909Y-79632647D01*
X112218342Y-79672474D01*
X112162606Y-79840678D01*
X112162605Y-79840681D01*
X112152000Y-79944483D01*
X112152000Y-80391000D01*
X114318000Y-80391000D01*
X114318000Y-79944483D01*
X114307394Y-79840681D01*
X114307393Y-79840678D01*
X114251657Y-79672474D01*
X114227091Y-79632647D01*
X114208354Y-79564168D01*
X114229613Y-79496429D01*
X114284120Y-79450937D01*
X114334332Y-79440500D01*
X116597500Y-79440500D01*
X116665621Y-79460502D01*
X116712114Y-79514158D01*
X116723500Y-79566500D01*
X116723500Y-80448352D01*
X116703498Y-80516473D01*
X116649842Y-80562966D01*
X116637138Y-80567955D01*
X116622263Y-80572884D01*
X116471347Y-80665970D01*
X116471341Y-80665975D01*
X116345975Y-80791341D01*
X116345970Y-80791347D01*
X116252885Y-80942262D01*
X116197113Y-81110572D01*
X116197112Y-81110579D01*
X116186500Y-81214446D01*
X116186500Y-82019337D01*
X116166498Y-82087458D01*
X116149596Y-82108432D01*
X115494670Y-82763359D01*
X115494669Y-82763361D01*
X115417134Y-82879399D01*
X115417133Y-82879401D01*
X115388883Y-82947604D01*
X115388883Y-82947606D01*
X115366501Y-83001643D01*
X115366500Y-83001646D01*
X115363728Y-83008335D01*
X115363726Y-83008343D01*
X115338557Y-83134880D01*
X115338556Y-83134885D01*
X115336500Y-83145218D01*
X115336500Y-86731190D01*
X115316498Y-86799311D01*
X115262842Y-86845804D01*
X115245654Y-86852187D01*
X115236843Y-86854747D01*
X115181399Y-86870855D01*
X115181398Y-86870855D01*
X115181393Y-86870857D01*
X115038196Y-86955544D01*
X115038189Y-86955549D01*
X114920549Y-87073189D01*
X114920544Y-87073196D01*
X114835856Y-87216394D01*
X114789437Y-87376170D01*
X114789437Y-87376171D01*
X114786500Y-87413488D01*
X114786500Y-87846511D01*
X114789437Y-87883828D01*
X114789438Y-87883832D01*
X114837566Y-88049491D01*
X114837363Y-88120487D01*
X114798809Y-88180103D01*
X114741151Y-88208221D01*
X114688338Y-88218727D01*
X114688336Y-88218727D01*
X114688335Y-88218728D01*
X114654665Y-88232675D01*
X114654664Y-88232675D01*
X114559399Y-88272135D01*
X114443357Y-88349671D01*
X114313109Y-88479920D01*
X114003432Y-88789596D01*
X113941122Y-88823620D01*
X113914339Y-88826500D01*
X109150212Y-88826500D01*
X109131521Y-88830218D01*
X109131522Y-88830219D01*
X109013337Y-88853727D01*
X109013332Y-88853729D01*
X108937807Y-88885013D01*
X108884398Y-88907135D01*
X108768357Y-88984671D01*
X108768351Y-88984676D01*
X107468595Y-90284433D01*
X107406283Y-90318459D01*
X107335468Y-90313394D01*
X107278632Y-90270847D01*
X107253821Y-90204327D01*
X107253500Y-90195338D01*
X107253500Y-90131367D01*
X107253499Y-90131350D01*
X107246739Y-90068468D01*
X107246739Y-90041532D01*
X107253499Y-89978649D01*
X107253500Y-89978632D01*
X107253500Y-89631367D01*
X107253499Y-89631352D01*
X107246485Y-89566114D01*
X107246485Y-89539174D01*
X107249574Y-89510446D01*
X107276744Y-89444854D01*
X107335063Y-89404364D01*
X107342208Y-89402220D01*
X107377491Y-89392766D01*
X107454873Y-89372032D01*
X107593627Y-89291922D01*
X107801921Y-89083628D01*
X107882032Y-88944873D01*
X107912753Y-88830219D01*
X107923500Y-88790111D01*
X107923500Y-88032803D01*
X107941399Y-87971841D01*
X107939945Y-87971064D01*
X107942863Y-87965603D01*
X107946831Y-87956025D01*
X107996273Y-87836662D01*
X108023500Y-87699781D01*
X108023500Y-87306825D01*
X108043502Y-87238704D01*
X108097158Y-87192211D01*
X108167432Y-87182107D01*
X108200746Y-87191717D01*
X108317711Y-87243793D01*
X108504512Y-87283499D01*
X108695486Y-87283499D01*
X108882287Y-87243793D01*
X109056751Y-87166117D01*
X109211252Y-87053865D01*
X109249142Y-87011784D01*
X109339033Y-86911950D01*
X109339034Y-86911948D01*
X109339039Y-86911943D01*
X109434526Y-86746555D01*
X109493541Y-86564927D01*
X109513503Y-86374999D01*
X109493541Y-86185071D01*
X109434526Y-86003443D01*
X109367447Y-85887259D01*
X109339041Y-85838058D01*
X109335157Y-85832712D01*
X109336762Y-85831545D01*
X109310143Y-85776054D01*
X109308499Y-85755769D01*
X109308499Y-84679596D01*
X109328501Y-84611475D01*
X109345404Y-84590500D01*
X109445501Y-84490404D01*
X109507813Y-84456379D01*
X109534596Y-84453500D01*
X109640500Y-84453500D01*
X109708621Y-84473502D01*
X109755114Y-84527158D01*
X109766500Y-84579500D01*
X109766500Y-85034883D01*
X109766501Y-85034892D01*
X109773946Y-85091441D01*
X109782162Y-85153850D01*
X109823722Y-85254184D01*
X109831909Y-85273950D01*
X109841500Y-85322168D01*
X109841500Y-85802396D01*
X109854079Y-85865632D01*
X109856500Y-85890214D01*
X109856500Y-86927474D01*
X109836498Y-86995595D01*
X109824137Y-87011784D01*
X109750957Y-87093059D01*
X109655476Y-87258438D01*
X109655473Y-87258445D01*
X109596457Y-87440072D01*
X109576496Y-87630000D01*
X109596457Y-87819927D01*
X109617222Y-87883832D01*
X109655473Y-88001556D01*
X109673514Y-88032803D01*
X109750958Y-88166941D01*
X109750965Y-88166951D01*
X109878744Y-88308864D01*
X109878747Y-88308866D01*
X110033248Y-88421118D01*
X110207712Y-88498794D01*
X110394513Y-88538500D01*
X110585487Y-88538500D01*
X110772288Y-88498794D01*
X110946752Y-88421118D01*
X111101253Y-88308866D01*
X111114952Y-88293652D01*
X111229034Y-88166951D01*
X111229035Y-88166949D01*
X111229040Y-88166944D01*
X111324527Y-88001556D01*
X111383542Y-87819928D01*
X111395633Y-87704885D01*
X111422646Y-87639229D01*
X111480867Y-87598599D01*
X111551812Y-87595896D01*
X111569164Y-87601648D01*
X111575215Y-87604155D01*
X111673260Y-87623657D01*
X111697605Y-87628500D01*
X111698692Y-87628607D01*
X111699225Y-87628822D01*
X111703678Y-87629708D01*
X111703510Y-87630552D01*
X111764526Y-87655186D01*
X111779983Y-87669687D01*
X111783744Y-87673864D01*
X111826442Y-87704886D01*
X111938248Y-87786118D01*
X112112712Y-87863794D01*
X112299513Y-87903500D01*
X112490487Y-87903500D01*
X112677288Y-87863794D01*
X112851752Y-87786118D01*
X113006253Y-87673866D01*
X113046811Y-87628822D01*
X113134034Y-87531951D01*
X113134035Y-87531949D01*
X113134040Y-87531944D01*
X113229527Y-87366556D01*
X113288542Y-87184928D01*
X113308504Y-86995000D01*
X113288542Y-86805072D01*
X113229527Y-86623444D01*
X113134040Y-86458056D01*
X113134038Y-86458054D01*
X113134034Y-86458048D01*
X113006255Y-86316135D01*
X112851752Y-86203882D01*
X112677288Y-86126206D01*
X112490487Y-86086500D01*
X112299513Y-86086500D01*
X112112711Y-86126206D01*
X111966528Y-86191291D01*
X111896161Y-86200725D01*
X111831864Y-86170618D01*
X111826190Y-86165285D01*
X111795403Y-86134498D01*
X111761379Y-86072185D01*
X111758500Y-86045404D01*
X111758500Y-85728999D01*
X111778502Y-85660878D01*
X111832158Y-85614385D01*
X111884500Y-85602999D01*
X111914846Y-85602999D01*
X111914854Y-85602998D01*
X112033718Y-85587349D01*
X112033719Y-85587349D01*
X112181621Y-85526087D01*
X112181629Y-85526082D01*
X112308630Y-85428630D01*
X112406082Y-85301629D01*
X112406087Y-85301621D01*
X112467350Y-85153718D01*
X112482999Y-85034849D01*
X112483000Y-85034840D01*
X112483000Y-84970000D01*
X111959500Y-84970000D01*
X111891379Y-84949998D01*
X111844886Y-84896342D01*
X111833500Y-84844001D01*
X111833499Y-84696001D01*
X111853501Y-84627880D01*
X111907156Y-84581387D01*
X111959499Y-84570000D01*
X112482999Y-84570000D01*
X112482999Y-84505154D01*
X112482998Y-84505145D01*
X112467349Y-84386281D01*
X112467349Y-84386280D01*
X112406087Y-84238378D01*
X112406082Y-84238370D01*
X112308630Y-84111369D01*
X112181629Y-84013917D01*
X112181621Y-84013912D01*
X112105077Y-83982207D01*
X112049796Y-83937658D01*
X112027375Y-83870295D01*
X112044933Y-83801504D01*
X112064191Y-83776712D01*
X112252072Y-83588833D01*
X112262691Y-83572939D01*
X112290752Y-83542978D01*
X112308987Y-83528987D01*
X112406524Y-83401876D01*
X112467838Y-83253850D01*
X112483500Y-83134885D01*
X112483499Y-82605116D01*
X112467838Y-82486150D01*
X112406524Y-82338124D01*
X112308987Y-82211013D01*
X112229747Y-82150209D01*
X112181878Y-82113477D01*
X112169698Y-82108432D01*
X112080604Y-82071528D01*
X112033848Y-82052161D01*
X111956402Y-82041965D01*
X111914885Y-82036500D01*
X111914882Y-82036500D01*
X111635116Y-82036500D01*
X111635107Y-82036501D01*
X111528046Y-82050595D01*
X111516150Y-82052162D01*
X111368124Y-82113476D01*
X111368122Y-82113477D01*
X111360494Y-82116637D01*
X111359451Y-82114119D01*
X111303480Y-82127686D01*
X111236393Y-82104452D01*
X111192516Y-82048637D01*
X111183500Y-82001830D01*
X111183500Y-81844735D01*
X111203502Y-81776614D01*
X111208024Y-81770281D01*
X111209026Y-81768655D01*
X111209030Y-81768652D01*
X111302115Y-81617738D01*
X111357887Y-81449426D01*
X111368500Y-81345545D01*
X111368500Y-81345516D01*
X112152000Y-81345516D01*
X112162605Y-81449318D01*
X112162606Y-81449321D01*
X112218342Y-81617525D01*
X112311365Y-81768339D01*
X112311370Y-81768345D01*
X112436654Y-81893629D01*
X112436660Y-81893634D01*
X112587474Y-81986657D01*
X112755678Y-82042393D01*
X112755681Y-82042394D01*
X112859483Y-82052999D01*
X112859483Y-82053000D01*
X112981000Y-82053000D01*
X113489000Y-82053000D01*
X113610517Y-82053000D01*
X113610516Y-82052999D01*
X113714318Y-82042394D01*
X113714321Y-82042393D01*
X113882525Y-81986657D01*
X114033339Y-81893634D01*
X114033345Y-81893629D01*
X114158629Y-81768345D01*
X114158634Y-81768339D01*
X114251657Y-81617525D01*
X114307393Y-81449321D01*
X114307394Y-81449318D01*
X114317999Y-81345516D01*
X114318000Y-81345516D01*
X114318000Y-80899000D01*
X113489000Y-80899000D01*
X113489000Y-82053000D01*
X112981000Y-82053000D01*
X112981000Y-80899000D01*
X112152000Y-80899000D01*
X112152000Y-81345516D01*
X111368500Y-81345516D01*
X111368499Y-79944456D01*
X111365178Y-79911951D01*
X111357887Y-79840574D01*
X111336994Y-79777522D01*
X111302115Y-79672262D01*
X111286037Y-79646195D01*
X111277680Y-79632646D01*
X111258943Y-79564167D01*
X111280203Y-79496428D01*
X111334710Y-79450937D01*
X111384921Y-79440500D01*
X112135668Y-79440500D01*
X112203789Y-79460502D01*
G37*
G04 #@! TD.AperFunction*
G04 #@! TA.AperFunction,Conductor*
G36*
X141754000Y-88488314D02*
G01*
X141745606Y-88479920D01*
X141654394Y-88427259D01*
X141552661Y-88400000D01*
X141447339Y-88400000D01*
X141345606Y-88427259D01*
X141254394Y-88479920D01*
X141246000Y-88488314D01*
X141246000Y-86571686D01*
X141254394Y-86580080D01*
X141345606Y-86632741D01*
X141447339Y-86660000D01*
X141552661Y-86660000D01*
X141654394Y-86632741D01*
X141745606Y-86580080D01*
X141754000Y-86571686D01*
X141754000Y-88488314D01*
G37*
G04 #@! TD.AperFunction*
M02*
