G04 #@! TF.GenerationSoftware,KiCad,Pcbnew,8.0.5-8.0.5-0~ubuntu22.04.1*
G04 #@! TF.CreationDate,2024-09-12T15:59:49+02:00*
G04 #@! TF.ProjectId,carte_principale,63617274-655f-4707-9269-6e636970616c,03A*
G04 #@! TF.SameCoordinates,Original*
G04 #@! TF.FileFunction,Soldermask,Top*
G04 #@! TF.FilePolarity,Negative*
%FSLAX46Y46*%
G04 Gerber Fmt 4.6, Leading zero omitted, Abs format (unit mm)*
G04 Created by KiCad (PCBNEW 8.0.5-8.0.5-0~ubuntu22.04.1) date 2024-09-12 15:59:49*
%MOMM*%
%LPD*%
G01*
G04 APERTURE LIST*
G04 Aperture macros list*
%AMRoundRect*
0 Rectangle with rounded corners*
0 $1 Rounding radius*
0 $2 $3 $4 $5 $6 $7 $8 $9 X,Y pos of 4 corners*
0 Add a 4 corners polygon primitive as box body*
4,1,4,$2,$3,$4,$5,$6,$7,$8,$9,$2,$3,0*
0 Add four circle primitives for the rounded corners*
1,1,$1+$1,$2,$3*
1,1,$1+$1,$4,$5*
1,1,$1+$1,$6,$7*
1,1,$1+$1,$8,$9*
0 Add four rect primitives between the rounded corners*
20,1,$1+$1,$2,$3,$4,$5,0*
20,1,$1+$1,$4,$5,$6,$7,0*
20,1,$1+$1,$6,$7,$8,$9,0*
20,1,$1+$1,$8,$9,$2,$3,0*%
%AMFreePoly0*
4,1,19,0.500000,-0.750000,0.000000,-0.750000,0.000000,-0.744911,-0.071157,-0.744911,-0.207708,-0.704816,-0.327430,-0.627875,-0.420627,-0.520320,-0.479746,-0.390866,-0.500000,-0.250000,-0.500000,0.250000,-0.479746,0.390866,-0.420627,0.520320,-0.327430,0.627875,-0.207708,0.704816,-0.071157,0.744911,0.000000,0.744911,0.000000,0.750000,0.500000,0.750000,0.500000,-0.750000,0.500000,-0.750000,
$1*%
%AMFreePoly1*
4,1,19,0.000000,0.744911,0.071157,0.744911,0.207708,0.704816,0.327430,0.627875,0.420627,0.520320,0.479746,0.390866,0.500000,0.250000,0.500000,-0.250000,0.479746,-0.390866,0.420627,-0.520320,0.327430,-0.627875,0.207708,-0.704816,0.071157,-0.744911,0.000000,-0.744911,0.000000,-0.750000,-0.500000,-0.750000,-0.500000,0.750000,0.000000,0.750000,0.000000,0.744911,0.000000,0.744911,
$1*%
G04 Aperture macros list end*
%ADD10RoundRect,0.087500X0.087500X-0.225000X0.087500X0.225000X-0.087500X0.225000X-0.087500X-0.225000X0*%
%ADD11RoundRect,0.087500X0.225000X-0.087500X0.225000X0.087500X-0.225000X0.087500X-0.225000X-0.087500X0*%
%ADD12RoundRect,0.250000X-0.625000X0.312500X-0.625000X-0.312500X0.625000X-0.312500X0.625000X0.312500X0*%
%ADD13RoundRect,0.250000X0.650000X-0.325000X0.650000X0.325000X-0.650000X0.325000X-0.650000X-0.325000X0*%
%ADD14RoundRect,0.250000X-0.650000X0.325000X-0.650000X-0.325000X0.650000X-0.325000X0.650000X0.325000X0*%
%ADD15RoundRect,0.250000X-0.325000X-0.650000X0.325000X-0.650000X0.325000X0.650000X-0.325000X0.650000X0*%
%ADD16RoundRect,0.100000X0.100000X-0.225000X0.100000X0.225000X-0.100000X0.225000X-0.100000X-0.225000X0*%
%ADD17RoundRect,0.150000X0.825000X0.150000X-0.825000X0.150000X-0.825000X-0.150000X0.825000X-0.150000X0*%
%ADD18R,0.375000X0.350000*%
%ADD19R,0.350000X0.375000*%
%ADD20RoundRect,0.087500X-0.125000X-0.087500X0.125000X-0.087500X0.125000X0.087500X-0.125000X0.087500X0*%
%ADD21RoundRect,0.087500X-0.087500X-0.125000X0.087500X-0.125000X0.087500X0.125000X-0.087500X0.125000X0*%
%ADD22O,1.600000X1.600000*%
%ADD23R,1.600000X1.600000*%
%ADD24R,0.700000X0.250000*%
%ADD25R,2.800000X1.750000*%
%ADD26R,1.700000X1.700000*%
%ADD27O,1.700000X1.700000*%
%ADD28FreePoly0,0.000000*%
%ADD29FreePoly1,0.000000*%
%ADD30FreePoly1,90.000000*%
%ADD31FreePoly0,90.000000*%
G04 APERTURE END LIST*
D10*
X119647500Y-107842500D03*
X120147500Y-107842500D03*
X120647500Y-107842500D03*
X121147500Y-107842500D03*
D11*
X121310000Y-107180000D03*
X121310000Y-106680000D03*
X121310000Y-106180000D03*
D10*
X121147500Y-105517500D03*
X120647500Y-105517500D03*
X120147500Y-105517500D03*
X119647500Y-105517500D03*
D11*
X119485000Y-106180000D03*
X119485000Y-106680000D03*
X119485000Y-107180000D03*
D12*
X117927495Y-98858408D03*
X117927495Y-101783408D03*
X115637495Y-98858408D03*
X115637495Y-101783408D03*
D13*
X106680000Y-78310000D03*
X106680000Y-75360000D03*
D14*
X125730000Y-105205000D03*
X125730000Y-108155000D03*
D13*
X107018000Y-101543000D03*
X107018000Y-98593000D03*
D15*
X110285000Y-80645000D03*
X113235000Y-80645000D03*
X117270000Y-81915000D03*
X120220000Y-81915000D03*
D14*
X109220000Y-104570000D03*
X109220000Y-107520000D03*
D15*
X103300000Y-110490000D03*
X106250000Y-110490000D03*
D16*
X110475000Y-84770000D03*
X111125000Y-84770000D03*
X111775000Y-84770000D03*
X111775000Y-82870000D03*
X110475000Y-82870000D03*
D17*
X121220000Y-96520000D03*
X121220000Y-95250000D03*
X121220000Y-93980000D03*
X121220000Y-92710000D03*
X121220000Y-91440000D03*
X121220000Y-90170000D03*
X121220000Y-88900000D03*
X121220000Y-87630000D03*
X116270000Y-87630000D03*
X116270000Y-88900000D03*
X116270000Y-90170000D03*
X116270000Y-91440000D03*
X116270000Y-92710000D03*
X116270000Y-93980000D03*
X116270000Y-95250000D03*
X116270000Y-96520000D03*
D18*
X104000000Y-105275000D03*
X104000000Y-105775000D03*
X104000000Y-106275000D03*
X104000000Y-106775000D03*
D19*
X104512500Y-106787500D03*
X105012500Y-106787500D03*
D18*
X105525000Y-106775000D03*
X105525000Y-106275000D03*
X105525000Y-105775000D03*
X105525000Y-105275000D03*
D19*
X105012500Y-105262500D03*
X104512500Y-105262500D03*
D20*
X101802500Y-100072500D03*
X101802500Y-100572500D03*
D21*
X102065000Y-101085000D03*
X102565000Y-101085000D03*
X103065000Y-101085000D03*
D20*
X103327500Y-100572500D03*
X103327500Y-100072500D03*
D21*
X103065000Y-99560000D03*
X102565000Y-99560000D03*
X102065000Y-99560000D03*
D22*
X93240000Y-68480000D03*
X93240000Y-65940000D03*
X93240000Y-105560000D03*
X141500000Y-65940000D03*
X93240000Y-103020000D03*
X141500000Y-68480000D03*
X93240000Y-100480000D03*
X141500000Y-71020000D03*
X93240000Y-97940000D03*
X141500000Y-73560000D03*
X93240000Y-95400000D03*
X141500000Y-76100000D03*
X93240000Y-92860000D03*
X141500000Y-78640000D03*
X93240000Y-90320000D03*
X141500000Y-83720000D03*
X93240000Y-87780000D03*
X141500000Y-86260000D03*
X93240000Y-83720000D03*
X141500000Y-88800000D03*
X93240000Y-81180000D03*
X141500000Y-91340000D03*
X93240000Y-78640000D03*
X141500000Y-93880000D03*
X93240000Y-76100000D03*
X141500000Y-96420000D03*
X93240000Y-73560000D03*
X141500000Y-98960000D03*
X93240000Y-71020000D03*
D23*
X141500000Y-101500000D03*
D22*
X93240000Y-108100000D03*
X93240000Y-110640000D03*
D24*
X130110000Y-93305000D03*
X130110000Y-88805000D03*
X130110000Y-91305000D03*
X130110000Y-91805000D03*
X130110000Y-92305000D03*
X130110000Y-92805000D03*
X130110000Y-90805000D03*
X130110000Y-90305000D03*
X130110000Y-89805000D03*
X130110000Y-89305000D03*
D25*
X131860000Y-94740000D03*
X131860000Y-87370000D03*
X104645000Y-94740000D03*
X104645000Y-87370000D03*
D24*
X106395000Y-92805000D03*
X106395000Y-92305000D03*
X106395000Y-91805000D03*
X106395000Y-91305000D03*
X106395000Y-89305000D03*
X106395000Y-89805000D03*
X106395000Y-90305000D03*
X106395000Y-90805000D03*
X106395000Y-93305000D03*
X106395000Y-88805000D03*
D26*
X99695000Y-76200000D03*
D27*
X99695000Y-78740000D03*
X136525000Y-78740000D03*
D26*
X136525000Y-76200000D03*
D28*
X127950000Y-111100000D03*
D29*
X129250000Y-111100000D03*
D28*
X126050000Y-102700000D03*
D29*
X127350000Y-102700000D03*
D30*
X111100000Y-110150000D03*
D31*
X111100000Y-111450000D03*
M02*
