%TF.GenerationSoftware,KiCad,Pcbnew,8.0.5-8.0.5-0~ubuntu22.04.1*%
%TF.CreationDate,2024-09-12T15:59:54+02:00*%
%TF.ProjectId,carte_principale,63617274-655f-4707-9269-6e636970616c,03A*%
%TF.SameCoordinates,Original*%
%TF.FileFunction,Drillmap*%
%TF.FilePolarity,Positive*%
%FSLAX45Y45*%
G04 Gerber Fmt 4.5, Leading zero omitted, Abs format (unit mm)*
G04 Created by KiCad (PCBNEW 8.0.5-8.0.5-0~ubuntu22.04.1) date 2024-09-12 15:59:54*
%MOMM*%
%LPD*%
G01*
G04 APERTURE LIST*
%ADD10C,0.200000*%
G04 APERTURE END LIST*
D10*
X13610000Y-6400000D02*
X11640000Y-6400000D01*
X14450000Y-11400000D02*
X14450000Y-6400000D01*
X9000000Y-11400000D02*
X9000000Y-6400000D01*
X9000000Y-11400000D02*
X14450000Y-11400000D01*
X9000000Y-6400000D02*
X11640000Y-6400000D01*
X14450000Y-6400000D02*
X13610000Y-6400000D01*
X9250777Y-11721484D02*
X9250777Y-11521484D01*
X9250777Y-11521484D02*
X9298396Y-11521484D01*
X9298396Y-11521484D02*
X9326967Y-11531008D01*
X9326967Y-11531008D02*
X9346015Y-11550055D01*
X9346015Y-11550055D02*
X9355539Y-11569103D01*
X9355539Y-11569103D02*
X9365063Y-11607198D01*
X9365063Y-11607198D02*
X9365063Y-11635769D01*
X9365063Y-11635769D02*
X9355539Y-11673865D01*
X9355539Y-11673865D02*
X9346015Y-11692912D01*
X9346015Y-11692912D02*
X9326967Y-11711960D01*
X9326967Y-11711960D02*
X9298396Y-11721484D01*
X9298396Y-11721484D02*
X9250777Y-11721484D01*
X9450777Y-11721484D02*
X9450777Y-11588150D01*
X9450777Y-11626246D02*
X9460301Y-11607198D01*
X9460301Y-11607198D02*
X9469824Y-11597674D01*
X9469824Y-11597674D02*
X9488872Y-11588150D01*
X9488872Y-11588150D02*
X9507920Y-11588150D01*
X9574586Y-11721484D02*
X9574586Y-11588150D01*
X9574586Y-11521484D02*
X9565063Y-11531008D01*
X9565063Y-11531008D02*
X9574586Y-11540531D01*
X9574586Y-11540531D02*
X9584110Y-11531008D01*
X9584110Y-11531008D02*
X9574586Y-11521484D01*
X9574586Y-11521484D02*
X9574586Y-11540531D01*
X9698396Y-11721484D02*
X9679348Y-11711960D01*
X9679348Y-11711960D02*
X9669824Y-11692912D01*
X9669824Y-11692912D02*
X9669824Y-11521484D01*
X9803158Y-11721484D02*
X9784110Y-11711960D01*
X9784110Y-11711960D02*
X9774586Y-11692912D01*
X9774586Y-11692912D02*
X9774586Y-11521484D01*
X10031729Y-11721484D02*
X10031729Y-11521484D01*
X10031729Y-11521484D02*
X10098396Y-11664341D01*
X10098396Y-11664341D02*
X10165063Y-11521484D01*
X10165063Y-11521484D02*
X10165063Y-11721484D01*
X10346015Y-11721484D02*
X10346015Y-11616722D01*
X10346015Y-11616722D02*
X10336491Y-11597674D01*
X10336491Y-11597674D02*
X10317444Y-11588150D01*
X10317444Y-11588150D02*
X10279348Y-11588150D01*
X10279348Y-11588150D02*
X10260301Y-11597674D01*
X10346015Y-11711960D02*
X10326967Y-11721484D01*
X10326967Y-11721484D02*
X10279348Y-11721484D01*
X10279348Y-11721484D02*
X10260301Y-11711960D01*
X10260301Y-11711960D02*
X10250777Y-11692912D01*
X10250777Y-11692912D02*
X10250777Y-11673865D01*
X10250777Y-11673865D02*
X10260301Y-11654817D01*
X10260301Y-11654817D02*
X10279348Y-11645293D01*
X10279348Y-11645293D02*
X10326967Y-11645293D01*
X10326967Y-11645293D02*
X10346015Y-11635769D01*
X10441253Y-11588150D02*
X10441253Y-11788150D01*
X10441253Y-11597674D02*
X10460301Y-11588150D01*
X10460301Y-11588150D02*
X10498396Y-11588150D01*
X10498396Y-11588150D02*
X10517444Y-11597674D01*
X10517444Y-11597674D02*
X10526967Y-11607198D01*
X10526967Y-11607198D02*
X10536491Y-11626246D01*
X10536491Y-11626246D02*
X10536491Y-11683388D01*
X10536491Y-11683388D02*
X10526967Y-11702436D01*
X10526967Y-11702436D02*
X10517444Y-11711960D01*
X10517444Y-11711960D02*
X10498396Y-11721484D01*
X10498396Y-11721484D02*
X10460301Y-11721484D01*
X10460301Y-11721484D02*
X10441253Y-11711960D01*
X10622205Y-11702436D02*
X10631729Y-11711960D01*
X10631729Y-11711960D02*
X10622205Y-11721484D01*
X10622205Y-11721484D02*
X10612682Y-11711960D01*
X10612682Y-11711960D02*
X10622205Y-11702436D01*
X10622205Y-11702436D02*
X10622205Y-11721484D01*
X10622205Y-11597674D02*
X10631729Y-11607198D01*
X10631729Y-11607198D02*
X10622205Y-11616722D01*
X10622205Y-11616722D02*
X10612682Y-11607198D01*
X10612682Y-11607198D02*
X10622205Y-11597674D01*
X10622205Y-11597674D02*
X10622205Y-11616722D01*
M02*
